<svg width="15" height="10" viewBox="0 0 15 10" fill="none" xmlns="http://www.w3.org/2000/svg">
<path d="M5.21331 9.81764L0.0931739 5.46431C0.0636451 5.43921 0.040212 5.40937 0.0242219 5.3765C0.00823171 5.34363 0 5.30839 0 5.27279C0 5.23719 0.00823171 5.20195 0.0242219 5.16908C0.040212 5.13621 0.0636451 5.10637 0.0931739 5.08127L1.38578 3.97514C1.50929 3.86956 1.70893 3.86956 1.83244 3.97514L5.20326 6.8393C5.32677 6.94488 5.52785 6.94365 5.65136 6.83807L13.0996 0.409972C13.2231 0.303164 13.4242 0.303164 13.5492 0.408744L14.8432 1.51488C14.9667 1.62046 14.9667 1.79111 14.8446 1.89669L6.72997 8.89566L6.7314 8.89688L5.66141 9.81641C5.5379 9.92199 5.33683 9.92199 5.21331 9.81764Z" fill="#01DB5E"/>
</svg>
