<svg width="24" height="21" viewBox="0 0 24 21" fill="none" xmlns="http://www.w3.org/2000/svg">
<path d="M17.052 12.4727C17.052 13.3488 17.3388 13.6983 18.0888 13.6983C19.7604 13.6983 20.8248 11.8468 20.8248 8.76775C20.8248 4.06149 16.8792 1.8085 11.9532 1.8085C6.8856 1.8085 2.2764 4.76243 2.2764 10.3449C2.2764 15.6769 6.3084 18.5808 12.5004 18.5808C14.6028 18.5808 16.014 18.3805 18.1728 17.7547L18.636 19.4309C16.5048 20.0327 14.2272 20.2069 12.4716 20.2069C4.35 20.2069 0 16.3268 0 10.3438C0 4.31078 5.0412 0.205322 11.982 0.205322C19.2108 0.205322 23.04 3.96032 23.04 8.56644C23.04 12.4716 21.63 15.4506 17.1948 15.4506C15.1776 15.4506 13.854 14.7497 13.6812 13.1966C13.1628 14.9239 11.7804 15.4506 9.9072 15.4506C7.4016 15.4506 5.2992 13.7723 5.2992 10.3939C5.2992 6.98935 7.1436 4.88655 10.4556 4.88655C12.2124 4.88655 13.3068 5.48735 13.794 6.43861L14.6304 5.11185H17.0496V12.4727H17.052V12.4727ZM13.5108 9.16829C13.5108 7.7925 12.3288 7.21569 11.3496 7.21569C10.284 7.21569 9.1044 7.96564 9.1044 10.1696C9.1044 11.9219 9.9972 12.8982 11.3496 12.8982C12.3 12.8982 13.5108 12.3725 13.5108 10.9206V9.16829Z" fill="black"/>
</svg>
