<svg width="133" height="125" viewBox="0 0 133 125" fill="none" xmlns="http://www.w3.org/2000/svg">
<g clip-path="url(#clip0_201_1087)">
<path d="M134.44 125H8.84974C7.63501 125 5.20557 123.386 5.20557 121.419V120.099C5.20557 118.132 9.55427 119.291 10.7083 119.291L134.306 117.677C135.521 117.677 138.206 118.132 138.206 120.099V121.419C138.206 123.386 135.594 125 134.44 125Z" fill="#E7E2E5"/>
<path d="M124.053 81.6653H20.5224C20.3146 81.6451 20.106 81.6899 19.9167 81.7952C19.7274 81.9006 19.5637 82.0631 19.4413 82.267L5.27767 119.468C5.03472 120.113 5.37485 120.466 6.26159 120.466H137.245C138.29 120.466 138.29 119.776 138.12 119.159L125.608 82.9421C125.509 82.5463 125.301 82.2036 125.018 81.9712C124.735 81.7389 124.394 81.6309 124.053 81.6653Z" fill="#F2F1F2"/>
<path d="M24.5685 83.6904H115.673L124.795 117.002H12.9436L24.5685 83.6904Z" fill="#C3DBF2"/>
<path d="M33.9946 122.168H18.4583C18.1295 122.168 17.863 122.49 17.863 122.887C17.863 123.284 18.1295 123.606 18.4583 123.606H33.9946C34.3233 123.606 34.5898 123.284 34.5898 122.887C34.5898 122.49 34.3233 122.168 33.9946 122.168Z" fill="#7A99A2"/>
<path d="M33.6787 122.388H18.2639C17.9352 122.388 17.6687 122.71 17.6687 123.107C17.6687 123.504 17.9352 123.826 18.2639 123.826H33.6787C34.0075 123.826 34.274 123.504 34.274 123.107C34.274 122.71 34.0075 122.388 33.6787 122.388Z" fill="#90B1C2"/>
<path d="M128.33 101.711H124.127C124.098 101.707 124.07 101.697 124.045 101.68C124.02 101.663 123.997 101.641 123.979 101.613C123.961 101.586 123.948 101.555 123.94 101.521C123.932 101.487 123.929 101.452 123.933 101.418L122.56 97.3673C122.56 97.1912 122.645 97.0591 122.754 97.0591H126.969C127.029 97.0701 127.082 97.1083 127.118 97.1658C127.154 97.2233 127.171 97.2955 127.164 97.3673L128.536 101.418C128.54 101.489 128.52 101.56 128.482 101.614C128.443 101.669 128.389 101.704 128.33 101.711Z" fill="#C3DBF2"/>
<path d="M15.9194 101.095L16.794 101.374C16.794 101.374 16.8548 101.256 16.8669 101.08L18.8591 95.5036C18.8801 95.4025 18.8801 95.2966 18.8591 95.1955L17.9723 94.9166C17.9723 94.9166 17.9723 95.0487 17.8994 95.2101L15.9073 100.787C15.883 100.948 15.8951 101.08 15.9194 101.095Z" fill="#7A9DA6"/>
<path d="M116.851 0L102.189 10.2283L106.793 13.8677L92.3984 39.754L82.2433 39.9008L73.0236 56.498H65.966L58.1311 70.6885H50.0046L49.6523 72.3028L41.8052 87.77L44.8177 91.0278L53.0171 76.5291H60.4755V76.0448L60.8156 76.3237L68.8813 61.825H75.2951V59.0661L76.7528 60.2401L84.855 45.6827H93.2122L94.8764 42.7624L96.407 43.0119L110.838 17.0668L116.377 21.1464L118.078 0.689716L116.851 0Z" fill="#209346"/>
<path d="M35.1242 106.568L31.3342 104.206L49.5794 70.6885H52.7376L35.1242 106.568Z" fill="#D7E1E6"/>
<path d="M118.078 0.689697L103.416 10.918L107.935 14.484L92.7872 41.7498L82.8143 41.6324L82.7536 41.7498H82.7293V41.7792L73.6067 58.2003H66.3669H66.2819L66.2455 58.2443L58.4348 72.3028H49.7374V72.3761L49.6524 72.3028L32.0024 104.044L36.011 107.302L52.2276 78.1433H60.3905L61.0222 78.114L68.8571 64.0262H76.1576L76.2426 63.9088L85.3288 47.5757H95.3259V47.5317L95.3624 47.561L111.98 17.6831L116.377 21.1464L118.078 0.689697Z" fill="#52B958"/>
<path d="M113.814 42.7623H102.711V105.072H113.814V42.7623Z" fill="#52B958"/>
<path d="M97.3908 54.3849H86.4219V105.072H97.3908V54.3849Z" fill="white"/>
<path d="M80.8098 70.2043H69.8408V105.072H80.8098V70.2043Z" fill="white"/>
<path d="M64.4352 82.0763H53.4663V105.072H64.4352V82.0763Z" fill="white"/>
<path d="M112.393 41.1041H101.278L102.712 42.7624H113.814L112.393 41.1041Z" fill="#067D3F"/>
<path d="M102.712 105.072L101.278 103.355V41.1041L102.712 42.7624V105.072Z" fill="#1F9346"/>
<path d="M96.6862 52.4478H85.7173L86.4218 54.3849H97.3908L96.6862 52.4478Z" fill="#D5E3E6"/>
<path d="M86.5676 105.072L85.7173 102.239V52.4478L86.5676 54.3849V105.072Z" fill="#D7E1E6"/>
<path d="M81.5265 68.1497H70.5575L69.8408 70.2042H80.8098L81.5265 68.1497Z" fill="#D5E3E6"/>
<path d="M81.5267 102.357L80.8101 105.072V70.2042L81.5267 68.1497V102.357Z" fill="#D7E1E6"/>
<path d="M66.0023 80.2565H55.0333L53.4663 82.0762H64.4353L66.0023 80.2565Z" fill="#D5E3E6"/>
<path d="M66.0025 102.239L64.4355 105.072V82.0761L66.0025 80.2565V102.239Z" fill="#D7E1E6"/>
<path d="M49.6402 100.743V103.986C46.5662 102.548 43.3318 101.672 40.0439 101.388V107.405H21.5558C21.0488 106.825 20.4496 106.376 19.7944 106.084V115.931C23.0985 118.866 29.2571 120.818 36.3147 120.818C46.5669 120.818 54.9242 116.665 55.4101 111.455V100.743H49.6402Z" fill="#314781"/>
<path d="M36.8491 94.7699H22.0781V106.363H36.8491V94.7699Z" fill="#00545D"/>
<path d="M19.6002 102.504L19.7946 102.401C19.7946 102.401 17.3652 115.417 16.4663 114.713C15.7517 114.248 15.1395 113.583 14.681 112.774C14.2224 111.964 13.9308 111.034 13.8303 110.061V100.229L19.6245 99.2898L19.6002 102.504Z" fill="#209346"/>
<path d="M17.608 94.3737C15.2514 95.9585 13.8059 98.1451 13.8059 100.537C13.8669 101.611 14.1403 102.651 14.6033 103.57C15.0662 104.489 15.7051 105.261 16.4662 105.82L32.8406 101.256L17.608 94.3737Z" fill="#52B958"/>
<path d="M27.5564 119.746C30.4706 120.501 33.4435 120.875 36.4239 120.862C40.0512 120.896 43.6649 120.323 47.162 119.159V102.9C45.0191 102.16 42.8227 101.668 40.6025 101.432H40.1531V107.39H27.5564V119.746Z" fill="#D7E1E6"/>
<path d="M36.3146 91.4974C31.4306 91.3555 26.5776 92.4711 22.0781 94.7699L36.6547 101.447L19.7822 106.084C23.0863 109.019 29.2449 111.147 36.3025 111.147C46.8584 111.147 55.4222 106.745 55.4222 101.33C55.4222 95.9146 46.8705 91.4974 36.3146 91.4974Z" fill="#1E2D5C"/>
<path d="M19.7944 106.084L32.8405 102.577V101.227L16.4661 105.82V114.713L19.7944 113.832V106.084Z" fill="#067E40"/>
<path d="M31.5651 107.464H21.5558C21.0512 106.88 20.4513 106.43 19.7944 106.143V116.034C22.3332 118.279 26.5604 119.952 31.5651 120.612V107.464Z" fill="#D7E1E6"/>
<path d="M36.6547 101.447L19.7822 106.07C22.3331 108.315 26.5604 110.09 31.5893 110.795L36.6547 101.447Z" fill="white"/>
<path d="M36.4241 111.191C40.0093 111.231 43.5819 110.673 47.0408 109.533L36.6549 101.447L31.5652 110.839C33.1772 111.078 34.8 111.195 36.4241 111.191Z" fill="white"/>
<path d="M95.7388 94.9019V99.7006V99.8473V110.149H98.5083V99.8473V99.7006V94.9019H95.7388Z" fill="#52B958"/>
<path d="M98.5083 103.56H95.7388V110.149H98.5083V103.56Z" fill="#52B958"/>
<path d="M91.8882 101.917V102.562V106.862V107.361V110.149H94.6577V107.361V106.862V102.562V101.917V82.5898H91.8882V101.917Z" fill="#52B958"/>
<path d="M87.8677 93.0382V95.3275V96.7656V98.4825V110.149H90.6372V98.4825V96.7656V95.3275V93.0382V90.3967H87.8677V93.0382Z" fill="#52B958"/>
<path d="M83.7983 102.107V102.21V110.149H86.5679V102.21V102.107V98.4093H83.7983V102.107Z" fill="#52B958"/>
<path d="M86.5679 105.072H83.7983V110.149H86.5679V105.072Z" fill="#52B958"/>
<path d="M79.9478 103.81V104.309V107.61V107.992V110.149H82.7173V107.992V107.61V104.309V103.81V88.9293H79.9478V103.81Z" fill="#52B958"/>
<path d="M71.894 96.9711V98.7468V99.8474V101.168V110.149H74.6636V101.168V99.8474V98.7468V96.9711V94.946H71.894V96.9711Z" fill="#52B958"/>
<path d="M75.9023 96.9711V98.7467V99.8473V101.168V110.149H78.6719V101.168V99.8473V98.7467V96.9711V94.9313H75.9023V96.9711Z" fill="#52B958"/>
<path d="M73.2788 91.8497C73.5539 91.8497 73.7768 91.5803 73.7768 91.248C73.7768 90.9157 73.5539 90.6464 73.2788 90.6464C73.0037 90.6464 72.7808 90.9157 72.7808 91.248C72.7808 91.5803 73.0037 91.8497 73.2788 91.8497Z" fill="#52B958"/>
<path d="M81.3325 85.789C81.6076 85.789 81.8306 85.5196 81.8306 85.1873C81.8306 84.855 81.6076 84.5856 81.3325 84.5856C81.0575 84.5856 80.8345 84.855 80.8345 85.1873C80.8345 85.5196 81.0575 85.789 81.3325 85.789Z" fill="#52B958"/>
<path d="M85.1831 94.6086C85.4582 94.6086 85.6811 94.3392 85.6811 94.0069C85.6811 93.6746 85.4582 93.4052 85.1831 93.4052C84.908 93.4052 84.6851 93.6746 84.6851 94.0069C84.6851 94.3392 84.908 94.6086 85.1831 94.6086Z" fill="#52B958"/>
<path d="M89.2524 86.9483C89.5275 86.9483 89.7505 86.6789 89.7505 86.3466C89.7505 86.0143 89.5275 85.7449 89.2524 85.7449C88.9774 85.7449 88.7544 86.0143 88.7544 86.3466C88.7544 86.6789 88.9774 86.9483 89.2524 86.9483Z" fill="#52B958"/>
<path d="M93.2729 78.0406C93.548 78.0406 93.771 77.7712 93.771 77.4389C93.771 77.1066 93.548 76.8372 93.2729 76.8372C92.9979 76.8372 92.7749 77.1066 92.7749 77.4389C92.7749 77.7712 92.9979 78.0406 93.2729 78.0406Z" fill="#52B958"/>
<path d="M81.2949 85.1222L73.2451 91.1871L73.3223 91.3365L81.372 85.2716L81.2949 85.1222Z" fill="#52B958"/>
<path d="M81.4029 85.1471L81.2744 85.2303L85.1261 93.9084L85.2546 93.8252L81.4029 85.1471Z" fill="#52B958"/>
<path d="M89.1985 86.295L85.1265 93.9489L85.2491 94.0441L89.3211 86.3902L89.1985 86.295Z" fill="#52B958"/>
<path d="M93.2128 77.4022L89.2051 86.312L89.3332 86.3961L93.3409 77.4863L93.2128 77.4022Z" fill="#52B958"/>
</g>
<defs>
<clipPath id="clip0_201_1087">
<rect width="133" height="125" fill="white"/>
</clipPath>
</defs>
</svg>
