<svg width="138" height="94" viewBox="0 0 138 94" fill="none" xmlns="http://www.w3.org/2000/svg">
<path d="M102.144 48.7889C102.144 48.7043 102.144 48.7043 102.144 48.7889C102.144 48.7043 102.144 48.7043 102.144 48.7889C102.144 47.9433 102.144 47.1823 102.047 46.4213C102.047 46.3368 102.047 46.2522 102.047 46.1677C100.49 30.2711 85.2174 17.7568 66.5396 17.7568C47.8618 17.7568 32.5888 30.2711 31.0323 46.1677C31.0323 46.2522 31.0323 46.3368 31.0323 46.4213C30.9351 47.1823 30.9351 47.9433 30.9351 48.7043C30.9351 49.4654 30.9351 50.2264 31.0323 50.9874C31.0323 51.0719 31.0323 51.1565 31.0323 51.241C32.4915 67.1376 47.8618 79.6519 66.5396 79.6519C85.2174 79.6519 100.49 67.1376 102.047 51.241C102.047 51.1565 102.047 51.0719 102.047 50.9874C102.047 50.3109 102.144 49.5499 102.144 48.7889Z" fill="#0186CB"/>
<path d="M35.702 38.642C37.9394 38.7265 36.6748 39.6566 36.7721 41.1786C36.8693 43.208 38.7177 42.8697 39.9823 44.1381C40.3714 44.5608 40.3714 45.0682 40.7605 45.4909C41.2469 46.1674 42.1225 46.3365 42.8034 46.7593C44.0681 47.4357 45.0409 48.7886 46.4028 49.2114C49.8076 50.3106 46.2082 45.6601 46.4028 44.7299C46.5001 44.0535 47.0838 44.0535 46.7919 43.4616C46.5001 42.8697 45.8191 42.7852 45.3327 42.7852C44.9436 42.7852 44.4572 43.5462 43.9708 43.208C43.2898 42.7852 44.3599 42.2778 44.4572 41.9396C44.8463 40.7558 42.9007 39.9949 42.2197 40.925C41.9279 41.3477 42.4143 42.5315 41.5388 42.2778C40.9551 42.1087 40.4687 40.3331 40.566 39.8257C40.8578 37.7964 42.5116 37.3736 44.6518 37.3736C46.111 37.3736 46.7919 37.5428 47.181 38.8956C47.4729 40.164 46.7919 40.5867 48.1538 41.3477C49.613 42.1933 50.5858 41.6014 49.9049 40.0794C49.5158 39.3184 48.4457 38.3038 48.8348 37.3736C49.0294 37.0354 49.613 36.7818 49.9049 36.4435C50.3913 35.9362 49.9049 35.9362 50.6831 35.5134C51.3641 35.0907 52.1423 35.2598 52.4342 34.2451C52.726 33.3995 52.3369 33.3995 53.0178 32.7231C54.477 31.4548 55.6444 33.0613 56.909 32.3849C56.6172 31.9621 56.3254 31.5393 56.2281 31.032C56.5199 30.6938 59.8275 30.9474 57.9791 29.51C59.1465 28.9181 58.9519 30.6938 59.9247 30.4401C61.2867 30.1865 59.0492 29.1718 58.9519 28.9181C58.7574 28.0726 60.2166 28.0726 60.8003 28.4108C61.5785 28.8336 61.2867 30.1865 62.5513 30.0173C62.6486 30.9474 64.0105 30.6092 64.1078 29.9328C64.1078 29.2563 63.135 29.4255 63.135 28.5799C63.135 27.6498 63.9132 27.7343 63.3295 26.8888C62.9404 26.3815 62.0649 26.6351 62.1622 25.705C61.6758 25.705 61.1894 26.3815 61.0921 26.0432C60.703 25.0286 60.1193 22.8301 58.4655 24.3521C57.7846 23.8448 57.4927 23.0838 56.6172 23.0838C55.4498 23.0838 55.5471 24.2676 54.8662 25.0286C54.5743 25.3668 53.9906 25.5359 53.6988 25.8741C53.407 26.2124 53.7961 26.7197 53.0178 26.8042C51.6559 26.9734 52.045 25.4514 52.2396 24.944C50.1967 24.7749 50.975 23.2529 52.5314 23.2529C53.1151 23.2529 53.9906 23.5911 54.6716 23.2529C55.2553 22.9147 55.0607 22.1537 55.839 22.1537C56.0335 24.0139 57.59 22.4074 58.5628 22.2383C58.4655 22.4919 58.5628 22.8301 58.4655 23.0838C61.6758 23.5066 58.4655 19.7016 60.703 19.0252C62.0649 18.6024 62.3567 19.7016 62.3567 20.6317C62.2595 21.7309 62.3567 22.1537 63.135 22.9147C63.9132 23.6757 64.6915 24.6058 65.4697 23.1684C65.567 22.9147 65.567 22.0692 65.6643 21.9C65.9561 21.5618 66.9289 21.6464 67.4153 21.3927C68.9718 20.378 67.999 18.7715 66.6371 17.7568C62.3567 17.7568 58.1737 18.4333 54.3798 19.7016C54.1852 19.9553 53.9906 20.1244 53.9906 20.378C53.6015 20.4626 53.1151 20.4626 52.8233 20.2935C45.8191 22.9147 39.9823 27.4807 36.1884 33.1459C36.1884 33.315 36.1884 33.4841 36.1884 33.6532C36.1884 33.7378 36.2857 33.8223 36.2857 33.9069C36.4802 34.2451 36.7721 35.1752 36.7721 35.8517C36.2857 36.8663 35.5074 37.7119 35.702 38.642Z" fill="#FFD066"/>
<path d="M102.144 48.7041C102.144 47.9431 102.144 47.1821 102.047 46.4211C102.047 46.3365 102.047 46.2519 102.047 46.1674C101.755 42.7005 100.782 39.4028 99.2259 36.2741C99.0314 35.8513 98.8368 35.4285 98.545 35.0058C98.545 35.0058 98.545 34.9212 98.4477 34.9212C98.2531 34.583 97.9613 34.1602 97.7667 33.822C97.7667 33.7374 97.6695 33.7374 97.6695 33.6528C97.4749 33.3146 97.183 32.9764 96.9885 32.6381C96.9885 32.5536 96.8912 32.469 96.8912 32.469C96.6966 32.1308 96.4048 31.7926 96.2103 31.5389C96.113 31.4543 96.113 31.3698 96.0157 31.2852C95.8211 30.947 95.5293 30.6933 95.2374 30.3551C95.1402 30.2705 95.1402 30.186 95.0429 30.1014C94.751 29.7632 94.5565 29.5095 94.2646 29.2558C94.1674 29.1713 94.1674 29.0867 94.0701 29.0022C94.0701 28.9176 93.9728 28.9176 93.8755 28.833C93 28.833 92.2218 29.1713 91.8326 30.1014C91.5408 30.6933 91.6381 32.5536 90.6653 32.7227C89.6925 32.8918 88.817 28.072 86.8714 30.6933C86.5795 31.0315 86.7741 31.5389 86.5795 31.8771C86.2877 32.3845 86.0931 32.2999 85.6067 32.5536C86.1904 31.5389 84.5366 29.0867 86.2877 29.1713C86.6768 28.4103 86.0931 27.6492 86.2877 26.8882C86.7741 25.3662 87.1632 26.7191 87.5523 27.3956C87.7469 27.8184 88.7197 29.3404 89.4979 28.7485C90.0816 28.3257 89.4006 26.7191 89.4006 26.2118C90.0816 26.2963 90.3734 27.2265 91.0544 27.3956C91.6381 27.4801 92.0272 27.5647 92.4163 27.4801L92.319 27.3956C91.7354 26.8882 91.1517 26.3809 90.568 25.8735C89.887 25.3662 89.3034 24.8588 88.5251 24.436C87.8442 24.0133 87.1632 23.5059 86.4822 23.1677C86.385 23.1677 86.3849 23.0831 86.2877 23.0831C84.8285 22.2375 83.3693 21.5611 81.8128 20.8846C81.8128 20.8846 81.7155 20.8846 81.7155 20.8001C80.9373 20.4618 80.159 20.2082 79.3808 19.9545C79.2835 19.9545 79.2835 19.8699 79.1862 19.8699C77.5325 19.3626 75.8787 18.9398 74.2249 18.6016H74.1276C74.2249 18.7707 74.2249 19.0244 74.1276 19.4471C74.0304 20.1236 73.6412 19.9545 74.1276 20.6309C74.5168 21.1383 75.5868 21.2229 76.0733 21.6456C76.3651 21.8993 76.4624 22.2375 76.8515 22.5758C77.2406 22.914 77.9216 23.0831 78.2134 23.5905C78.3107 23.8441 78.6025 24.0133 78.6998 24.1824C77.9216 24.3515 76.7542 23.2522 76.3651 23.8441C75.8787 24.5206 77.1433 25.1971 77.3379 25.6199C77.5325 26.2118 76.9488 27.1419 78.1161 27.2264C79.1862 27.311 78.7971 26.2118 78.7971 25.6199C79.9645 25.4507 80.159 26.3809 80.6454 26.9728C81.3264 27.7338 82.2992 27.5647 82.9801 28.1566C84.4394 29.3404 82.7856 29.0867 82.1046 29.0867C81.5209 29.0867 81.2291 28.9176 80.7427 29.4249C80.159 30.0169 80.5481 29.6786 80.84 30.2705C81.1318 30.7779 81.7155 32.3845 82.1046 32.6381C82.3965 32.8918 84.5366 33.1455 85.1203 33.0609C84.5366 33.4837 84.2448 33.9911 83.6611 34.6675C82.4937 35.8513 83.0774 35.5131 83.272 36.866C83.4665 38.0498 82.3965 38.3881 82.0073 39.4028C81.6182 40.5866 82.591 41.8549 82.7856 42.9542C82.9801 43.8843 83.4665 44.0534 83.953 44.8145C84.3421 45.4064 84.2448 45.9983 84.7312 46.6747C85.4121 47.6049 87.2605 49.296 88.7197 49.1269C89.7898 49.0423 89.3034 48.1968 89.9843 47.8585C90.6653 47.4357 91.6381 48.1122 91.5408 46.9284C91.9299 46.9284 92.9027 47.6049 93.2918 47.4357C93.8755 47.2666 93.681 46.3365 93.681 45.8291C95.2375 45.5755 94.9456 47.4357 94.6538 48.1122C94.4592 48.4504 93.9728 48.9578 93.9728 49.296C93.9728 49.9725 94.3619 49.7188 94.751 50.3107C95.3347 51.3254 94.751 54.7923 94.0701 55.7224C93.4864 56.568 91.8326 56.9062 92.1245 58.2591C92.319 59.0202 93.3891 59.3584 93.5837 60.204C93.8755 61.2187 93.1946 62.2333 93.7782 63.248C94.3619 64.4318 94.8483 65.4465 95.3347 66.7149C95.432 66.884 95.432 66.9686 95.5293 67.1377C97.7667 64.5164 99.5178 61.6414 100.685 58.5128C100.685 58.4282 100.685 58.2591 100.685 58.1746C100.685 57.0753 101.172 56.6525 101.561 55.7224V55.6378C101.95 54.2849 102.144 52.8474 102.339 51.41C102.339 51.3254 102.339 51.2408 102.339 51.1563C102.047 50.3107 102.144 49.5497 102.144 48.7041C102.144 48.7887 102.144 48.7887 102.144 48.7041Z" fill="#FFD066"/>
<path d="M73.0576 55.2992C72.4739 55.0455 71.6957 55.4683 71.112 55.2146C70.2365 54.7918 70.7229 54.4536 69.6528 54.1999C68.9718 54.1154 68.3881 54.369 67.7072 54.2845C67.0262 54.1999 66.3453 53.4389 65.4697 53.4389C64.1078 52.5088 64.1078 51.325 63.2323 50.1412C62.2595 48.8728 61.6758 49.2956 60.3139 49.2956C58.952 49.2956 58.0765 48.1963 56.7145 47.9427C56.2281 47.8581 55.839 47.8581 55.3526 47.9427C54.7689 47.9427 54.5744 48.0272 53.7961 47.8581C53.407 47.7735 52.726 47.8581 52.3369 47.7735C52.3369 47.7735 51.9478 47.7735 51.7532 47.7735C51.5587 47.689 51.656 47.2662 51.2668 47.1816C50.7804 47.1816 48.3484 48.2809 48.1539 48.5346C47.6675 49.211 48.543 49.5493 48.6403 50.1412C48.7376 50.8176 48.4457 50.9022 48.0566 51.325C46.6947 52.9316 45.2355 55.4683 44.6518 57.4131C44.36 58.5124 44.7491 58.766 45.2355 59.6962C45.8192 60.7109 45.7219 61.8947 46.3056 62.9939C46.9865 64.2623 47.862 64.0932 49.0294 64.7696C50.0995 65.3615 50.1968 66.2071 50.294 67.2218C50.3913 67.9828 50.5859 68.8284 50.5859 69.5894C50.5859 70.0122 50.1968 70.1813 50.3913 70.6041C50.6832 71.196 51.656 71.4497 52.1424 71.957C52.6288 72.3798 53.0179 72.8872 53.5043 73.31C54.7689 74.4092 56.3254 75.2548 56.8118 76.8614C57.0064 77.5379 56.9091 78.0452 56.8118 78.5525C57.9792 78.8062 59.1465 79.0599 60.3139 79.229C60.5085 79.229 60.6057 77.2842 60.703 77.1151C60.9949 76.354 61.4813 76.1849 62.1622 75.593C62.8432 74.9166 62.7459 74.4938 63.0377 73.6482C63.7187 71.5343 64.8861 71.2806 67.0262 70.3504C68.68 69.5894 70.1392 68.8284 69.5555 67.1373C68.9718 65.277 70.0419 64.3469 71.3066 62.9939C72.6685 61.5564 73.544 59.6962 73.8358 57.8359C74.225 56.7367 74.0304 55.6374 73.0576 55.2992Z" fill="#FFD066"/>
<path d="M66.5396 11.3301L78.6996 21.3926L70.8199 11.3301H66.5396Z" fill="#110239"/>
<path d="M114.304 44.9839L100.49 49.3804L114.304 49.1267V44.9839Z" fill="#110239"/>
<path d="M40.7602 43.9692L22.1797 57.7515V53.0165L40.7602 43.9692Z" fill="#110239"/>
<path d="M62.8433 69.2524L78.6026 81.9355H84.634L62.8433 69.2524Z" fill="#110239"/>
<path d="M84.2443 24.0986C84.2443 25.5362 82.8823 26.7202 81.2286 26.7202C79.5748 26.7202 78.2129 25.5362 78.2129 24.0986C78.2129 22.6609 79.5748 21.4769 81.2286 21.4769C82.8823 21.3924 84.2443 22.5763 84.2443 24.0986Z" fill="#F45762"/>
<path d="M46.7916 42.3628C46.7916 43.8002 45.4297 44.9839 43.7759 44.9839C42.1222 44.9839 40.7603 43.8002 40.7603 42.3628C40.7603 40.9254 42.1222 39.7417 43.7759 39.7417C45.4297 39.7417 46.7916 40.9254 46.7916 42.3628Z" fill="#F45762"/>
<path d="M63.524 65.8696C63.524 67.307 62.1621 68.4907 60.5084 68.4907C58.8546 68.4907 57.4927 67.307 57.4927 65.8696C57.4927 64.4323 58.8546 63.2485 60.5084 63.2485C62.1621 63.2485 63.524 64.4323 63.524 65.8696Z" fill="#F45762"/>
<path d="M97.0855 53.2705C98.751 53.2705 100.101 52.097 100.101 50.6494C100.101 49.2018 98.751 48.0283 97.0855 48.0283C95.42 48.0283 94.0698 49.2018 94.0698 50.6494C94.0698 52.097 95.42 53.2705 97.0855 53.2705Z" fill="#F45762"/>
<path d="M79.2833 0H55.936V11.3301H79.2833V0Z" fill="#0186CB"/>
<path d="M61.3839 7.60798V8.53809H60.5084V7.60798C59.8274 7.52342 59.2437 7.26976 58.7573 7.01609L59.2437 6.17054C59.7301 6.50876 60.4111 6.76243 60.8975 6.76243C61.2866 6.76243 61.4812 6.67787 61.4812 6.42421C61.4812 5.74776 58.9519 6.17054 58.9519 4.64855C58.9519 3.97211 59.5356 3.54933 60.4111 3.38022V2.53467H61.2866V3.38022C61.8703 3.46477 62.3567 3.63389 62.7458 3.803L62.2594 4.64855C61.773 4.39488 61.092 4.22577 60.7029 4.22577C60.4111 4.22577 60.2165 4.31033 60.2165 4.47944C60.2165 5.15588 62.7458 4.81766 62.7458 6.2551C62.8431 7.10065 62.1621 7.52342 61.3839 7.60798Z" fill="white"/>
<path d="M65.7617 3.46533V7.60791H64.4971V4.31076H63.6216V3.46533H65.7617Z" fill="white"/>
<path d="M71.2092 5.49438C71.2092 6.84704 70.5283 7.60791 69.3609 7.60791C68.1936 7.60791 67.5126 6.84704 67.5126 5.49438C67.4153 4.14173 68.0963 3.38086 69.2636 3.38086C70.5283 3.38086 71.2092 4.14173 71.2092 5.49438ZM68.5827 5.49438C68.5827 6.42434 68.7772 6.84704 69.2636 6.84704C69.75 6.84704 69.9446 6.42434 69.9446 5.49438C69.9446 4.56443 69.75 4.14173 69.2636 4.14173C68.7772 4.14173 68.5827 4.56443 68.5827 5.49438Z" fill="white"/>
<path d="M75.3924 5.49438C75.3924 6.84704 74.7115 7.60791 73.5441 7.60791C72.3768 7.60791 71.6958 6.84704 71.6958 5.49438C71.6958 4.14173 72.3768 3.38086 73.5441 3.38086C74.7115 3.38086 75.3924 4.14173 75.3924 5.49438ZM72.8632 5.49438C72.8632 6.42434 73.0577 6.84704 73.5441 6.84704C74.0305 6.84704 74.2251 6.42434 74.2251 5.49438C74.2251 4.56443 74.0305 4.14173 73.5441 4.14173C73.0577 4.14173 72.8632 4.56443 72.8632 5.49438Z" fill="white"/>
<path d="M137.359 40.7563H114.012V52.0864H137.359V40.7563Z" fill="#F45762"/>
<path d="M121.211 48.7042V49.6343H120.336V48.7042C119.655 48.6197 119.071 48.3661 118.584 48.1124L119.071 47.2669C119.557 47.6051 120.336 47.8588 120.822 47.8588C121.211 47.8588 121.406 47.7742 121.406 47.5206C121.406 46.8442 118.876 47.2669 118.876 45.7451C118.876 45.0687 119.46 44.6459 120.336 44.4768V43.6313H121.211V44.4768C121.795 44.5614 122.281 44.7305 122.67 44.8996L122.184 45.7451C121.697 45.4914 121.016 45.3223 120.627 45.3223C120.336 45.3223 120.141 45.4069 120.141 45.576C120.141 46.2523 122.67 45.9142 122.67 47.3515C122.67 48.197 122.087 48.6197 121.211 48.7042Z" fill="white"/>
<path d="M124.908 46.0834C126.075 46.0834 126.756 46.5907 126.756 47.3517C126.756 48.1972 125.978 48.7891 124.81 48.7891C124.129 48.7891 123.448 48.62 122.962 48.2818L123.448 47.4362C123.837 47.7745 124.227 47.9436 124.713 47.9436C125.199 47.9436 125.491 47.7745 125.491 47.4362C125.491 47.098 125.199 46.9289 124.713 46.9289C124.421 46.9289 123.643 46.9289 123.351 46.9289V44.5615H126.561V45.407H124.518V45.9989C124.616 46.0834 124.81 46.0834 124.908 46.0834Z" fill="white"/>
<path d="M131.036 46.6753C131.036 48.0281 130.355 48.7891 129.188 48.7891C128.02 48.7891 127.339 48.0281 127.339 46.6753C127.339 45.3225 128.02 44.5615 129.188 44.5615C130.355 44.5615 131.036 45.3225 131.036 46.6753ZM128.507 46.6753C128.507 47.6054 128.701 48.0281 129.188 48.0281C129.674 48.0281 129.869 47.6054 129.869 46.6753C129.869 45.7452 129.674 45.3225 129.188 45.3225C128.701 45.3225 128.507 45.6607 128.507 46.6753Z" fill="white"/>
<path d="M96.3072 81.9355H72.96V93.2661H96.3072V81.9355Z" fill="#BBEADB"/>
<path d="M78.6998 89.63V90.5601H77.8243V89.63C77.1433 89.5454 76.5596 89.2917 76.0732 89.0381L76.5596 88.1925C77.046 88.5307 77.8243 88.7844 78.3107 88.7844C78.6998 88.7844 78.8944 88.6998 78.8944 88.4462C78.8944 87.7697 76.3651 88.1925 76.3651 86.6705C76.3651 85.9941 76.9488 85.5713 77.8243 85.4022V84.5566H78.6998V85.4022C79.2835 85.4867 79.7699 85.6559 80.159 85.825L79.6726 86.6705C79.1862 86.4169 78.5052 86.2477 78.1161 86.2477C77.8243 86.2477 77.6297 86.3323 77.6297 86.5014C77.6297 87.1779 80.159 86.8396 80.159 88.2771C80.2563 89.0381 79.5753 89.4608 78.6998 89.63Z" fill="white"/>
<path d="M82.8832 86.6704C82.8832 86.4168 82.6886 86.3322 82.2995 86.3322C81.9104 86.3322 81.424 86.5013 80.9376 86.8395L80.4512 86.0786C81.0349 85.6559 81.7158 85.4868 82.3968 85.4868C83.3696 85.4868 84.0505 85.9095 84.0505 86.5859C84.0505 87.0086 83.6614 87.5158 83.0777 87.9385L82.1049 88.784H84.1478V89.6294H80.743V88.9531L82.4941 87.4313C82.6886 87.0931 82.8832 86.8395 82.8832 86.6704Z" fill="white"/>
<path d="M88.5252 87.5146C88.5252 88.8675 87.8443 89.6284 86.6769 89.6284C85.5096 89.6284 84.8286 88.8675 84.8286 87.5146C84.8286 86.1618 85.5096 85.4009 86.6769 85.4009C87.8443 85.4009 88.5252 86.1618 88.5252 87.5146ZM85.996 87.5146C85.996 88.4447 86.1905 88.8675 86.6769 88.8675C87.1633 88.8675 87.3579 88.4447 87.3579 87.5146C87.3579 86.5846 87.1633 86.1618 86.6769 86.1618C86.1905 86.1618 85.996 86.5846 85.996 87.5146Z" fill="white"/>
<path d="M92.7084 87.5146C92.7084 88.8675 92.0274 89.6284 90.86 89.6284C89.6927 89.6284 89.0117 88.8675 89.0117 87.5146C89.0117 86.1618 89.6927 85.4009 90.86 85.4009C92.1247 85.4009 92.7084 86.1618 92.7084 87.5146ZM90.1791 87.5146C90.1791 88.4447 90.3736 88.8675 90.86 88.8675C91.3464 88.8675 91.541 88.4447 91.541 87.5146C91.541 86.5846 91.3464 86.1618 90.86 86.1618C90.3736 86.1618 90.1791 86.5846 90.1791 87.5146Z" fill="white"/>
<path d="M23.3472 50.1411H0V61.4727H23.3472V50.1411Z" fill="#09C9CE"/>
<path d="M5.83664 57.7524V58.6826H4.86383V57.7524C4.18287 57.6679 3.59919 57.4142 3.11279 57.1605L3.59919 56.3149C4.18287 56.6531 4.86383 56.9068 5.35024 56.9068C5.73936 56.9068 5.93392 56.8223 5.93392 56.5686C5.93392 55.8921 3.40463 56.3149 3.40463 54.7928C3.40463 54.1163 3.98831 53.6935 4.86383 53.5243V52.6787H5.83664V53.5243C6.42032 53.6089 6.90672 53.778 7.29584 53.9471L6.80944 54.7928C6.32304 54.5391 5.64208 54.37 5.25296 54.37C4.96111 54.37 4.76655 54.4545 4.76655 54.6236C4.76655 55.3001 7.29584 54.9619 7.29584 56.3994C7.29584 57.2451 6.61488 57.6679 5.83664 57.7524Z" fill="white"/>
<path d="M11.3818 56.4843C11.3818 57.2454 10.6036 57.8374 9.43622 57.8374C8.75525 57.8374 7.97701 57.6683 7.58789 57.33L8.07429 56.4843C8.46341 56.8226 8.85253 56.9917 9.33894 56.9917C9.82534 56.9917 10.1172 56.8226 10.1172 56.4843C10.1172 56.146 9.82534 55.9769 9.33894 55.9769H8.46341V55.3849L9.5335 54.4546H7.78245V53.6089H11.09V54.2009L9.82534 55.2157H10.0199C10.7981 55.3849 11.3818 55.8077 11.3818 56.4843Z" fill="white"/>
<path d="M13.7161 55.1311C14.8835 55.1311 15.5644 55.6386 15.5644 56.3997C15.5644 57.2454 14.7862 57.8374 13.6188 57.8374C12.9379 57.8374 12.2569 57.6683 11.7705 57.33L12.2569 56.4843C12.646 56.8226 13.0351 56.9917 13.5215 56.9917C14.0079 56.9917 14.2998 56.8226 14.2998 56.4843C14.2998 56.146 14.0079 55.9769 13.5215 55.9769C13.2297 55.9769 12.4515 55.9769 12.1596 55.9769V53.6089H15.3699V54.4546H13.327V55.0466C13.4243 55.1311 13.6188 55.1311 13.7161 55.1311Z" fill="white"/>
<path d="M19.8446 55.6372C19.8446 56.9894 19.1636 57.75 17.9963 57.75C16.8289 57.75 16.1479 56.9894 16.1479 55.6372C16.1479 54.285 16.8289 53.5244 17.9963 53.5244C19.1636 53.6089 19.8446 54.285 19.8446 55.6372ZM17.3153 55.6372C17.3153 56.5668 17.5099 56.9894 17.9963 56.9894C18.4827 56.9894 18.6772 56.5668 18.6772 55.6372C18.6772 54.7076 18.4827 54.285 17.9963 54.285C17.5099 54.3695 17.3153 54.7076 17.3153 55.6372Z" fill="white"/>
<path d="M34.9236 40.7566C34.729 40.5876 34.4372 40.5876 34.2426 40.7566C34.048 40.9256 34.048 41.1791 34.2426 41.3481C35.3127 42.193 36.5773 43.0379 37.7447 43.9673C37.9392 43.9673 38.0365 43.9673 38.1338 43.9673C38.2311 43.9673 38.4256 43.8828 38.5229 43.7983C38.7175 43.6293 38.6202 43.3758 38.4257 43.2069C37.2583 42.4464 36.0909 41.6015 34.9236 40.7566Z" fill="#110239"/>
<path d="M44.6516 22.6577C44.8462 22.6577 45.0407 22.5732 45.0407 22.4042C45.138 22.2353 45.0407 21.9818 44.7489 21.8973C43.1924 21.3903 41.7332 20.9679 40.3713 20.6299C40.1767 20.5454 39.8849 20.7144 39.7876 20.8834C39.6903 21.0524 39.8849 21.3058 40.0794 21.3903C41.4414 21.7283 42.9006 22.2353 44.457 22.6577C44.5543 22.5732 44.6516 22.6577 44.6516 22.6577Z" fill="#110239"/>
<path d="M28.3083 35.2596C28.1138 35.0905 27.8219 35.0905 27.6274 35.2596C27.4328 35.4287 27.4328 35.6824 27.6274 35.8515C28.6002 36.7815 29.7675 37.7115 30.9349 38.726C31.0322 38.8105 31.1294 38.8105 31.2267 38.8105C31.324 38.8105 31.4213 38.8105 31.5186 38.726C31.7131 38.5569 31.7131 38.3033 31.5186 38.1342C30.4485 37.1196 29.3784 36.1051 28.3083 35.2596Z" fill="#110239"/>
<path d="M49.4184 50.5643C49.2238 50.4798 48.932 50.4798 48.7374 50.6489C48.5428 50.818 48.6401 51.0717 48.8347 51.2408C50.0993 52.0018 51.364 52.7628 52.6286 53.5238C52.7259 53.6084 52.8232 53.6084 52.9205 53.6084C53.115 53.6084 53.2123 53.5238 53.3096 53.4393C53.4069 53.2702 53.4069 53.0165 53.2123 52.8474C51.8504 52.0864 50.5857 51.3253 49.4184 50.5643Z" fill="#110239"/>
<path d="M42.0248 45.8294C41.8302 45.6604 41.5384 45.6604 41.3438 45.8294C41.1493 45.9984 41.2466 46.2519 41.4411 46.4209C42.6085 47.266 43.8731 48.0265 45.1378 48.8715C45.2351 48.9561 45.3323 48.9561 45.4296 48.9561C45.5269 48.9561 45.7215 48.8715 45.8187 48.787C46.0133 48.618 45.916 48.3645 45.7215 48.1955C44.4568 47.435 43.1922 46.5899 42.0248 45.8294Z" fill="#110239"/>
<path d="M31.3239 19.446C32.6858 19.615 34.2423 19.953 35.7988 20.291H35.8961C36.0907 20.291 36.2852 20.2065 36.3825 19.953C36.4798 19.6995 36.2852 19.5305 36.0907 19.446C34.5342 19.1081 32.9777 18.8546 31.5185 18.6011C31.2266 18.6011 31.0321 18.6856 31.0321 18.9391C30.9348 19.1926 31.0321 19.3615 31.3239 19.446Z" fill="#110239"/>
<path d="M118.39 67.7297C118.487 67.8988 118.584 67.9834 118.779 67.9834C118.876 67.9834 118.876 67.9834 118.973 67.8988C119.168 67.8143 119.265 67.5606 119.168 67.3914C118.584 66.2921 117.709 65.1928 116.736 63.9243C116.541 63.7552 116.347 63.6706 116.055 63.8397C115.86 64.0089 115.763 64.178 115.958 64.4317C116.93 65.531 117.806 66.6304 118.39 67.7297Z" fill="#110239"/>
<path d="M19.6505 22.8283C19.6505 22.5747 19.6505 22.2365 19.7478 21.9829C19.8451 21.7292 19.6505 21.5601 19.3587 21.4756C19.0669 21.3911 18.8723 21.5601 18.775 21.8138C18.6777 22.152 18.6777 22.4056 18.6777 22.7438C18.6777 23.6737 18.9696 24.6883 19.456 25.8719C19.5532 26.0409 19.7478 26.1255 19.8451 26.1255C19.9424 26.1255 19.9424 26.1255 20.0396 26.1255C20.2342 26.0409 20.4288 25.7873 20.3315 25.6182C19.9424 24.6037 19.6505 23.6737 19.6505 22.8283Z" fill="#110239"/>
<path d="M26.849 18.2642H26.5571C24.8061 18.2642 23.3469 18.4332 22.1795 18.8559C21.985 18.9404 21.7904 19.194 21.8877 19.3631C21.985 19.5322 22.1795 19.6167 22.2768 19.6167C22.3741 19.6167 22.3741 19.6167 22.4714 19.6167C23.5415 19.2786 24.9034 19.1095 26.5571 19.1095H26.849C27.1408 19.1095 27.3354 18.9404 27.3354 18.6868C27.2381 18.4332 27.0435 18.2642 26.849 18.2642Z" fill="#110239"/>
<path d="M22.5689 29.0869C22.4716 28.9178 22.1797 28.8332 21.8879 29.0023C21.6933 29.0869 21.5961 29.3405 21.7906 29.5941C22.5689 30.6085 23.5417 31.7075 24.6117 32.8065C24.709 32.891 24.8063 32.9756 25.0009 32.9756C25.0981 32.9756 25.1954 32.9756 25.2927 32.891C25.4873 32.722 25.4873 32.4684 25.39 32.2993C24.2226 31.2003 23.3471 30.1013 22.5689 29.0869Z" fill="#110239"/>
<path d="M102.242 73.9014C100.88 73.5635 99.4204 73.2256 97.8639 72.7188C97.6694 72.6343 97.3775 72.8032 97.2803 72.9722C97.183 73.1411 97.3776 73.3945 97.5721 73.479C99.1286 73.9014 100.588 74.3237 101.95 74.6616H102.047C102.242 74.6616 102.436 74.5771 102.533 74.4082C102.631 74.1548 102.436 73.9858 102.242 73.9014Z" fill="#110239"/>
<path d="M60.8973 57.159C59.5354 56.4831 58.2707 55.7226 57.0061 55.0467C56.8115 54.9622 56.5197 54.9622 56.3251 55.1312C56.2278 55.3002 56.2278 55.5537 56.4224 55.7226C57.6871 56.3986 58.9517 57.159 60.3136 57.8349C60.4109 57.8349 60.5082 57.9194 60.5082 57.9194C60.7027 57.9194 60.8 57.8349 60.8973 57.7505C61.0919 57.497 61.0919 57.2435 60.8973 57.159Z" fill="#110239"/>
<path d="M111.191 75.3395C109.829 75.255 108.37 75.086 106.716 74.8325C106.424 74.8325 106.23 74.917 106.132 75.1705C106.132 75.424 106.23 75.593 106.521 75.6776C108.175 75.9311 109.732 76.1001 111.094 76.1846C111.288 76.1846 111.58 76.0156 111.58 75.8466C111.58 75.5085 111.385 75.3395 111.191 75.3395Z" fill="#110239"/>
<path d="M120.627 71.2811C120.627 71.0274 120.433 70.9429 120.141 70.9429C119.849 70.9429 119.654 71.112 119.752 71.3656C119.752 71.4502 119.752 71.5347 119.752 71.6193C119.752 72.2957 119.557 72.8876 119.265 73.3949C118.682 74.325 117.417 74.9169 115.763 75.1706C115.471 75.2551 115.374 75.4242 115.374 75.6779C115.374 75.847 115.569 76.0161 115.86 76.0161H115.958C117.903 75.6779 119.363 74.9169 120.141 73.8177C120.627 73.2258 120.822 72.4648 120.822 71.6193C120.627 71.4502 120.627 71.3656 120.627 71.2811Z" fill="#110239"/>
<path d="M110.705 57.8368C110.51 57.6677 110.218 57.6677 110.024 57.8368C109.829 58.0058 109.829 58.2594 110.024 58.4285C111.094 59.4429 112.164 60.3728 113.137 61.3026C113.234 61.3871 113.331 61.4717 113.526 61.4717C113.623 61.4717 113.721 61.4717 113.818 61.3871C114.012 61.2181 114.012 60.9645 113.818 60.7954C112.845 59.781 111.775 58.8512 110.705 57.8368Z" fill="#110239"/>
<path d="M107.105 55.7236C107.203 55.7236 107.397 55.639 107.397 55.5545C107.592 55.3853 107.592 55.1316 107.397 54.9624C106.327 54.1166 105.16 53.1862 103.993 52.2559C103.798 52.0867 103.506 52.1713 103.312 52.2559C103.117 52.425 103.214 52.6788 103.312 52.8479C104.479 53.7783 105.646 54.6241 106.716 55.4699C106.814 55.6391 106.911 55.7236 107.105 55.7236Z" fill="#110239"/>
<path d="M68.7768 61.2183C67.4149 60.5421 66.1503 59.9504 64.7883 59.1897C64.5938 59.1052 64.3019 59.1052 64.2047 59.3588C64.1074 59.5278 64.1074 59.7814 64.3992 59.8659C65.7611 60.5421 67.0258 61.2183 68.3877 61.8945C68.485 61.8945 68.5823 61.979 68.5823 61.979C68.7768 61.979 68.8741 61.8945 68.9714 61.81C69.0687 61.5564 68.9714 61.3028 68.7768 61.2183Z" fill="#110239"/>
<path d="M93.5836 71.4498C92.2217 71.0273 90.7625 70.5202 89.3033 70.0131C89.1087 69.9286 88.8169 70.0131 88.7196 70.2667C88.6223 70.4357 88.7196 70.6892 89.0114 70.7737C90.4706 71.2808 91.9298 71.7879 93.2918 72.2104C93.3891 72.2104 93.3891 72.2104 93.4863 72.2104C93.6809 72.2104 93.8755 72.1259 93.8755 71.9569C93.8755 71.7034 93.7782 71.5344 93.5836 71.4498Z" fill="#110239"/>
<path d="M76.8512 64.938C75.4892 64.3464 74.1273 63.7547 72.7654 63.0786C72.5708 62.994 72.279 63.0786 72.1817 63.2476C72.0844 63.4167 72.1817 63.6702 72.3763 63.7547C73.7382 64.4309 75.1001 65.0226 76.462 65.6142C76.5593 65.6142 76.5593 65.6987 76.6566 65.6987C76.8512 65.6987 76.9484 65.6142 77.0457 65.4452C77.143 65.2761 77.0457 65.0226 76.8512 64.938Z" fill="#110239"/>
<path d="M85.1203 68.405C83.7584 67.8979 82.3965 67.3064 80.9373 66.7148C80.7427 66.6303 80.4509 66.7148 80.3536 66.8838C80.2563 67.0528 80.3536 67.3064 80.5482 67.3909C82.0074 67.9824 83.3693 68.574 84.7312 69.0811C84.8285 69.0811 84.8285 69.0811 84.9258 69.0811C85.1203 69.0811 85.3149 68.9965 85.3149 68.8275C85.4122 68.743 85.3149 68.4895 85.1203 68.405Z" fill="#110239"/>
<path d="M39.3012 76.9458C37.842 77.3684 36.3828 77.7065 35.0208 78.0445C34.8263 78.129 34.6317 78.2981 34.729 78.5516C34.8263 78.7207 34.9236 78.8052 35.1181 78.8052H35.2154C36.5773 78.4671 38.0365 78.129 39.4957 77.7065C39.6903 77.6219 39.8849 77.4529 39.7876 77.1994C39.7876 77.0303 39.4957 76.9458 39.3012 76.9458Z" fill="#110239"/>
<path d="M30.7408 78.8911C29.1844 79.1446 27.7252 79.3136 26.3632 79.4826C26.0714 79.4826 25.9741 79.6516 25.9741 79.9051C25.9741 80.0742 26.1687 80.2432 26.3632 80.2432C26.3632 80.2432 26.3632 80.2432 26.4605 80.2432C27.8224 80.1587 29.2816 79.9897 30.9354 79.6516C31.13 79.6516 31.3245 79.3981 31.3245 79.2291C31.2272 79.0601 30.9354 78.8911 30.7408 78.8911Z" fill="#110239"/>
<path d="M55.839 71.2812C54.4771 71.8728 53.1152 72.3798 51.7532 72.8869C51.5587 72.9714 51.4614 73.2249 51.5587 73.3939C51.656 73.563 51.7532 73.6475 51.9478 73.6475C52.0451 73.6475 52.0451 73.6475 52.1424 73.6475C53.5043 73.1404 54.8662 72.6333 56.2281 72.0418C56.4227 71.9573 56.52 71.7037 56.4227 71.5347C56.3254 71.2812 56.0336 71.1967 55.839 71.2812Z" fill="#110239"/>
<path d="M47.6673 74.3256C46.2081 74.8326 44.8461 75.2551 43.4842 75.6775C43.2897 75.762 43.0951 75.931 43.1924 76.1845C43.2897 76.3535 43.3869 76.438 43.5815 76.438C43.6788 76.438 43.6788 76.438 43.7761 76.438C45.138 76.0155 46.4999 75.5086 47.9591 75.0861C48.1537 75.0016 48.2509 74.7481 48.2509 74.5791C48.1537 74.3256 47.8618 74.2411 47.6673 74.3256Z" fill="#110239"/>
<path d="M95.1402 27.9019H95.2375C96.6967 27.564 98.1559 27.2261 99.5178 26.9727C99.7124 26.8882 99.9069 26.7192 99.8096 26.5503C99.7124 26.3813 99.5178 26.2124 99.3232 26.2124C97.9613 26.4658 96.5021 26.8037 94.9456 27.1416C94.7511 27.2261 94.5565 27.395 94.6538 27.6484C94.7511 27.8174 94.9456 27.9019 95.1402 27.9019Z" fill="#110239"/>
<path d="M63.8159 67.8144C62.454 68.4057 61.1894 68.997 59.8275 69.5884C59.6329 69.6728 59.5356 69.9263 59.6329 70.0952C59.7302 70.2642 59.8275 70.2642 60.022 70.3486C60.1193 70.3486 60.2166 70.3486 60.2166 70.3486C61.5785 69.7573 62.8431 69.166 64.2051 68.5747C64.3996 68.4902 64.4969 68.2368 64.3996 68.0678C64.3023 67.8144 64.0105 67.7299 63.8159 67.8144Z" fill="#110239"/>
<path d="M29.9624 59.4432C29.7679 59.2742 29.476 59.2742 29.3787 59.4432C28.2114 60.3727 27.1413 61.2177 26.0712 62.1473C25.8767 62.3163 25.8767 62.5698 26.0712 62.6543C26.1685 62.7388 26.2658 62.7388 26.3631 62.7388C26.4603 62.7388 26.5576 62.7388 26.6549 62.6543C27.6277 61.8092 28.7951 60.8797 29.8651 60.0347C30.157 59.8657 30.157 59.6122 29.9624 59.4432Z" fill="#110239"/>
<path d="M18.1914 71.0273C17.9969 70.9428 17.705 71.0273 17.6078 71.1964C16.7322 72.5494 16.2458 73.8178 16.0513 74.917C16.0513 75.1707 16.1485 75.3398 16.4404 75.3398C16.6349 75.3398 16.8295 75.1707 16.9268 75.0016C17.1214 73.9869 17.6078 72.8031 18.386 71.5347C18.5806 71.3656 18.4833 71.1119 18.1914 71.0273Z" fill="#110239"/>
<path d="M21.9852 79.4827C20.2341 79.3136 18.9695 78.8908 18.094 78.2143C17.8994 78.0452 17.6076 78.1298 17.5103 78.2143C17.3157 78.3835 17.413 78.6371 17.5103 78.7217C18.4831 79.4827 19.9423 79.9901 21.8879 80.1592C22.0824 80.1592 22.277 79.9901 22.3743 79.8209C22.4716 79.6518 22.277 79.4827 21.9852 79.4827Z" fill="#110239"/>
<path d="M22.958 64.9393C21.888 65.9541 20.9152 66.9689 20.0396 67.9837C19.8451 68.1529 19.9424 68.4066 20.1369 68.4911C20.2342 68.5757 20.3315 68.5757 20.4288 68.5757C20.526 68.5757 20.7206 68.4911 20.8179 68.4066C21.5961 67.4763 22.5689 66.4615 23.639 65.4467C23.8336 65.2776 23.8336 65.0239 23.639 64.9393C23.4444 64.7702 23.1526 64.7702 22.958 64.9393Z" fill="#110239"/>
<path d="M86.5795 55.8079C85.4121 56.5685 84.1475 57.2445 82.8829 58.0051C82.6883 58.0896 82.6883 58.3431 82.7856 58.5121C82.8829 58.5966 82.9801 58.6812 83.1747 58.6812C83.272 58.6812 83.3693 58.6812 83.4665 58.5966C84.7312 57.8361 85.9958 57.16 87.1632 56.3995C87.3577 56.315 87.455 56.0615 87.2605 55.8925C87.0659 55.7234 86.7741 55.7234 86.5795 55.8079Z" fill="#110239"/>
<path d="M108.273 25.2822C106.911 25.1976 105.452 25.2822 103.798 25.4513C103.506 25.4513 103.409 25.705 103.409 25.8741C103.409 26.0433 103.603 26.2124 103.798 26.2124H103.895C105.549 26.0433 107.008 25.9587 108.273 26.0433C108.565 26.0433 108.759 25.8741 108.759 25.705C108.759 25.5359 108.565 25.2822 108.273 25.2822Z" fill="#110239"/>
<path d="M107.008 41.0097C106.035 41.9398 104.965 42.7852 103.895 43.7153C103.7 43.8844 103.7 44.138 103.895 44.2226C103.992 44.3071 104.09 44.3071 104.187 44.3071C104.284 44.3071 104.381 44.3071 104.479 44.2226C105.646 43.2925 106.619 42.3625 107.592 41.4325C107.786 41.2634 107.786 41.0097 107.592 40.9252C107.494 40.8406 107.202 40.8406 107.008 41.0097Z" fill="#110239"/>
<path d="M113.137 34.9217C112.942 34.8372 112.651 34.8372 112.553 35.0062C111.872 36.0202 110.997 37.0342 110.024 38.1326C109.829 38.3016 109.927 38.5551 110.121 38.6396C110.219 38.7241 110.316 38.7241 110.413 38.7241C110.51 38.7241 110.705 38.6396 110.802 38.5551C111.872 37.4567 112.748 36.3582 113.429 35.3442C113.429 35.2597 113.332 35.0062 113.137 34.9217Z" fill="#110239"/>
<path d="M114.888 27.8189C114.402 27.1425 113.721 26.5506 112.748 26.2124C112.553 26.1278 112.261 26.2124 112.164 26.3815C112.067 26.5506 112.164 26.8043 112.359 26.8888C113.137 27.227 113.721 27.6498 114.11 28.2417C114.499 28.749 114.596 29.4255 114.596 30.1865C114.596 30.6093 114.499 31.1166 114.304 31.7085C114.207 31.8776 114.402 32.1313 114.596 32.2158H114.693C114.888 32.2158 115.083 32.1313 115.18 31.9622C115.374 31.3703 115.472 30.7784 115.569 30.271C115.569 29.2564 115.374 28.4954 114.888 27.8189Z" fill="#110239"/>
<path d="M79.1863 60.119C77.9217 60.7956 76.657 61.4721 75.3924 62.1487C75.1978 62.2332 75.1006 62.4869 75.1978 62.6561C75.2951 62.7406 75.3924 62.8252 75.5869 62.8252C75.6842 62.8252 75.7815 62.8252 75.8788 62.7406C77.1434 62.0641 78.4081 61.3876 79.6727 60.711C79.8673 60.6265 79.9646 60.3727 79.77 60.2036C79.6727 60.0345 79.3809 59.9499 79.1863 60.119Z" fill="#110239"/>
<path d="M100.685 46.3368C99.6146 47.1822 98.4472 48.0276 97.2798 48.873C97.0853 49.0421 97.0853 49.2112 97.1826 49.3802C97.2798 49.4648 97.3771 49.5493 97.4744 49.5493C97.5717 49.5493 97.669 49.5493 97.7662 49.4648C98.9336 48.6194 100.101 47.774 101.171 46.9286C101.366 46.7595 101.366 46.5059 101.171 46.4213C101.074 46.2522 100.782 46.2522 100.685 46.3368Z" fill="#110239"/>
<path d="M71.5985 64.0932C70.3339 64.7697 68.972 65.3616 67.7073 65.9534C67.5128 66.038 67.4155 66.2917 67.5128 66.4608C67.6101 66.5453 67.7073 66.6299 67.9019 66.6299C67.9992 66.6299 68.0965 66.6299 68.0965 66.5453C69.3611 65.9534 70.723 65.277 71.9877 64.6006C72.1822 64.516 72.2795 64.2624 72.1822 64.0932C72.0849 64.0932 71.7931 64.0087 71.5985 64.0932Z" fill="#110239"/>
<path d="M93.7781 51.2407C92.6108 52.0016 91.4434 52.7625 90.1788 53.5234C89.9842 53.6079 89.9842 53.8615 90.0815 54.0306C90.1788 54.1152 90.276 54.1997 90.3733 54.1997C90.4706 54.1997 90.5679 54.1997 90.6652 54.1152C91.9298 53.3543 93.0972 52.5934 94.2645 51.7479C94.4591 51.5788 94.4591 51.4097 94.3618 51.2407C94.2645 51.1561 93.9727 51.1561 93.7781 51.2407Z" fill="#110239"/>
</svg>
