<svg width="104" height="94" viewBox="0 0 104 94" fill="none" xmlns="http://www.w3.org/2000/svg">
<path d="M61.3166 39.6562H61.4166C61.7166 39.7431 62.1166 39.7431 62.5166 39.7431C63.2166 39.7431 63.9166 39.4824 64.6166 39.3955C64.8166 39.3955 65.1166 39.3955 65.3166 39.3086C65.7166 39.3086 67.3166 39.4824 67.7166 39.5693C68.5166 39.7431 68.6166 39.7431 69.5166 39.917C69.9166 40.0039 70.4166 40.3515 70.8166 40.4384C71.4166 40.6123 71.5166 41.3076 71.1166 41.3076C70.8166 41.3076 70.8166 41.3076 70.5166 41.1337C70.2166 40.9599 69.2166 40.6123 69.2166 40.6123C69.5166 40.6992 70.3166 40.9599 70.5166 41.1337C70.8166 41.3076 71.1166 41.3945 71.3166 41.7421C71.4166 41.829 71.5166 41.9159 71.5166 42.0029C71.5166 42.1767 71.5166 42.2636 71.4166 42.3505C71.2166 42.5243 71.0166 42.4374 70.8166 42.4374C70.3166 42.3505 69.9166 42.0029 69.5166 41.829C69.1166 41.6552 68.9166 41.3076 68.5166 41.1337C69.1166 41.3945 69.7166 41.9159 70.2166 42.2636C70.4166 42.4374 70.8166 42.6981 71.0166 42.7851C71.3166 42.9589 71.4166 43.3934 71.0166 43.6542C70.6166 43.828 70.0166 43.4804 69.8166 43.3065C69.5166 43.0458 69.0166 42.7851 68.7166 42.5243C68.6166 42.4374 68.4166 42.2636 68.3166 42.1767C68.0166 42.0028 67.8166 41.7421 67.5166 41.5683C67.5166 41.5683 68.8166 42.5243 69.3166 43.0458C69.5166 43.3065 69.9166 43.6542 69.6166 43.9149C69.2166 44.4364 68.6166 44.0018 68.3166 43.7411C67.9166 43.4804 67.5166 43.2196 67.2166 42.9589C66.7166 42.5243 66.0166 42.0898 65.4166 41.7421C65.1166 41.5683 64.7166 41.6552 64.3166 41.5683C64.5166 41.7421 64.8166 41.7421 64.9166 41.9159C65.1166 42.0898 65.3166 42.2636 65.6166 42.4374C65.9166 42.6112 66.2166 42.872 66.3166 43.1327C66.4166 43.3934 66.4166 43.7411 66.0166 43.828C65.4166 43.9149 64.9166 43.5673 64.5166 43.2196C64.0166 42.872 63.5166 42.4374 62.9166 42.4374C62.6166 42.4374 62.4166 42.4374 62.1166 42.4374C61.4166 42.4374 60.8166 42.5243 60.1166 42.4374C59.6166 42.3505 59.2166 42.1767 59.0166 41.7421C58.8166 41.3945 58.6166 41.1337 58.5166 40.7861C58.5166 40.6992 58.1166 39.7431 58.0166 39.7431C58.8166 39.4824 59.5166 38.9609 60.2166 38.7002C60.5166 38.5264 60.7166 38.874 60.9166 39.0479C60.8166 39.3955 61.1166 39.5693 61.3166 39.6562Z" fill="#FCD4CA"/>
<path d="M61.4165 38.6124L58.7165 42.6978C58.7165 42.6978 46.3165 38.0909 43.7165 36.0048C41.1165 33.9187 38.5165 28.6165 37.6165 23.3142C37.1165 20.1851 41.1165 20.0112 41.1165 20.0112C43.4165 23.1404 47.8165 31.5718 48.3165 32.1802C48.8165 32.7018 61.4165 38.6124 61.4165 38.6124Z" fill="#BBEADB"/>
<path d="M25.9163 83.6382C25.9163 83.6382 25.2163 85.4635 25.2163 86.8542C25.2163 88.2449 25.3163 89.7225 25.8163 90.0702C26.8163 90.7656 39.4163 90.8525 40.4163 89.8964C41.4163 88.8534 40.7163 87.2888 38.1163 86.6804C35.2163 86.0719 33.9163 86.7673 32.1163 86.1589C30.3163 85.5504 31.7163 83.3774 31.7163 83.3774L25.9163 83.6382Z" fill="#110239"/>
<path d="M13.6165 89.5485C12.6165 89.2877 11.5165 89.1138 10.5165 89.1138C9.71646 89.1138 8.51646 89.1138 7.91646 88.5923C7.41646 88.0708 7.41646 87.3754 7.81646 86.7669C7.81646 86.68 8.51646 85.7238 8.61646 85.7238L3.61646 83.8984C3.61646 83.8984 -0.283539 87.9838 0.0164609 89.0269C0.116461 89.2877 1.11646 90.07 2.11646 90.9392C3.81646 92.33 6.11646 93.1123 8.41646 93.2862C11.8165 93.46 15.1165 93.3731 15.7165 92.9385C16.8165 91.9823 16.2165 90.2438 13.6165 89.5485Z" fill="#110239"/>
<path d="M16.2164 38.1782C16.2164 38.1782 9.91641 41.4812 10.9164 48.0871C11.9164 54.693 14.0164 63.1243 13.5164 64.8627C13.0164 66.6011 1.81641 84.3328 1.81641 84.3328L8.11641 87.375C8.11641 87.375 21.3164 68.6872 22.0164 66.688C22.7164 64.6889 22.9164 52.7808 22.9164 52.7808C22.9164 52.7808 30.7164 64.1673 31.1164 65.7319C31.5164 67.2965 24.9164 84.3328 24.9164 84.3328L31.6164 85.3758C31.6164 85.3758 40.7164 67.818 40.1164 64.9496C39.8164 63.1243 31.9164 45.3926 31.9164 45.3926L16.2164 38.1782Z" fill="#0186CB"/>
<path opacity="0.65" d="M31.1166 65.4717C31.3166 65.2109 29.3166 57.6487 28.4166 56.5187C27.8166 55.7364 25.5166 52.0857 24.8166 50.9557C23.9166 49.565 25.6166 45.6535 25.9166 44.002C25.7166 43.9151 25.5166 43.8281 25.3166 43.7412C24.6166 46.8704 23.0166 52.7811 23.0166 52.7811C24.3166 54.9541 30.2166 63.3856 31.1166 65.4717Z" fill="#0056A3"/>
<path d="M37.3166 12.5371C37.3166 12.5371 34.9166 17.0566 33.0166 17.9258C33.0166 17.9258 35.2166 21.4023 40.2166 20.1855C40.2166 20.1855 40.0166 18.4472 41.7166 14.5361C41.7166 14.5361 38.4166 13.7539 37.3166 12.5371Z" fill="#FCD4CA"/>
<path d="M40.6166 17.1433H40.7166C40.9166 16.448 41.2166 15.5789 41.7166 14.536C41.7166 14.536 38.4166 13.7538 37.3166 12.5371C37.3166 12.5371 34.9166 17.0563 33.0166 17.9254C33.0166 17.9254 33.9166 19.316 35.9166 20.0112C36.5166 18.36 38.4166 17.1433 40.6166 17.1433Z" fill="#E8A393"/>
<path d="M44.6162 3.92976C44.6162 3.92976 48.0162 5.14668 47.9162 6.53745C47.8162 7.8413 48.0162 7.66745 47.7162 8.53668C47.4162 9.40591 47.2162 10.1013 47.4162 11.1444C47.6162 12.2744 47.5162 12.7959 46.2162 12.5351C46.2162 12.5351 45.8162 12.3613 45.8162 12.7959C45.8162 13.2305 46.0162 15.9251 43.4162 16.0121C40.8162 16.099 36.7162 12.6221 36.9162 11.1444C37.1162 9.66668 37.6162 6.27668 39.4162 4.71206C41.3162 3.14745 43.7162 3.58206 44.6162 3.92976Z" fill="#FCD4CA"/>
<path d="M40.7163 2.88769C40.7163 2.88769 44.5163 9.05934 50.1163 6.27775C50.1163 6.27775 50.1163 3.67001 47.4163 2.10536C44.7163 0.540719 41.1163 1.75766 40.7163 2.88769Z" fill="#110239"/>
<path d="M45.9164 12.537C42.4164 11.6677 41.9164 10.3639 41.9164 7.84308C41.9164 5.32229 42.8164 5.14845 42.8164 5.14845C44.9164 4.53998 45.0164 3.58382 45.0164 3.58382C46.6164 -0.153906 37.0164 -0.588525 36.8164 1.93227C36.6164 4.45306 37.0164 3.58382 34.7164 5.49614C32.4164 7.40846 33.5164 9.23386 34.5164 10.2769C35.5164 11.32 33.6164 11.1462 33.5164 12.8847C33.4164 14.1885 34.3164 14.7101 35.6164 15.0578C35.8164 15.1447 36.6164 13.4062 37.0164 12.7977C37.1164 13.1454 38.6164 15.1447 39.6164 15.8401C41.9164 17.4047 44.7164 17.1439 45.4164 15.8401C46.3164 14.6231 45.9164 12.537 45.9164 12.537Z" fill="#110239"/>
<path d="M101.004 68.471C102.332 54.4533 90.3352 42.1538 74.2083 40.9993C58.0813 39.8447 43.9311 50.2723 42.6028 64.29C41.2745 78.3076 53.2712 90.6071 69.3981 91.7616C85.525 92.9162 99.6753 82.4886 101.004 68.471Z" fill="#FFD066"/>
<path d="M71.8165 87.2017C85.0161 87.2017 95.7165 77.9007 95.7165 66.4275C95.7165 54.9542 85.0161 45.6533 71.8165 45.6533C58.6169 45.6533 47.9165 54.9542 47.9165 66.4275C47.9165 77.9007 58.6169 87.2017 71.8165 87.2017Z" fill="#FEAC1A"/>
<path d="M68.9167 55.7362C73.7167 54.4324 78.7167 54.6932 80.6167 58.7785L72.9167 61.473C72.2167 59.9954 70.2167 60.2561 69.1167 60.6907C68.4167 60.9515 66.1167 61.7338 66.7167 62.9507C68.0167 65.7321 80.9167 57.9093 84.5167 65.7321C86.7167 70.4258 83.2167 73.6419 78.2167 75.728L80.8167 80.5956L76.0167 82.1602L74.0167 77.0318C69.0167 78.2487 63.6167 77.901 61.7167 73.6419L69.4167 70.9474L69.5167 71.1212C70.4167 72.9466 72.9167 72.5119 74.2167 72.0773C75.4167 71.6427 77.6167 70.7735 77.0167 69.4697C75.7167 66.6013 62.6167 74.1634 59.1167 66.6013C57.1167 62.2553 60.2167 59.2131 64.9167 57.2139L62.3167 52.2594L67.0167 50.6079L68.9167 55.7362Z" fill="#FFD066"/>
<path d="M56.1162 42.9588C56.3162 43.0457 56.4162 43.1327 56.6162 43.1327C56.9162 43.2196 57.3162 43.3065 57.6162 43.3935C57.9162 43.3935 58.2162 43.3935 58.6162 43.3935C59.1162 43.3935 59.6162 43.3935 60.0162 43.3065C61.0162 43.1327 61.9162 42.8719 62.9162 42.8719C63.0162 42.8719 63.0162 42.8719 63.1162 42.8719C64.4162 42.8719 65.6162 43.0457 66.7162 43.3935C67.3162 43.5673 68.2162 43.8281 68.1162 44.4366C68.1162 44.6973 67.8162 44.7843 67.5162 44.7843C67.0162 44.7843 66.3162 44.6104 65.8162 44.4366C65.2162 44.2627 64.1162 43.7412 64.1162 43.7412C64.1162 43.7412 65.2162 44.0889 65.6162 44.3496C65.9162 44.5235 66.1162 44.6104 66.3162 44.7843C66.6162 44.9581 67.1162 45.132 67.2162 45.4797C67.3162 45.7405 67.3162 46.0012 66.9162 46.1751C66.4162 46.3489 65.6162 46.0012 65.2162 45.7405C64.8162 45.5666 63.2162 44.6104 62.7162 44.4366C63.2162 44.6104 64.6162 45.4797 64.8162 45.6535C65.1162 45.8274 65.4162 46.0012 65.6162 46.262C65.8162 46.5228 65.7162 46.9574 65.3162 47.0443C64.9162 47.1313 64.5162 47.0443 64.2162 46.9574C63.6162 46.7836 63.0162 46.5228 62.5162 46.1751C62.0162 45.9143 61.5162 45.4797 61.0162 45.3058C61.3162 45.3928 61.9162 45.7405 62.2162 45.9143C62.8162 46.262 63.4162 46.6097 63.5162 46.8705C63.7162 47.1313 63.6162 47.6528 63.0162 47.6528C62.7162 47.6528 62.3162 47.5659 62.1162 47.479C61.8162 47.3051 61.4162 47.2182 61.1162 47.0443C60.5162 46.7836 60.2162 46.3489 59.5162 46.3489C59.0162 46.3489 58.5162 46.4359 58.0162 46.6097C57.7162 46.6966 57.4162 46.8705 57.0162 46.9574C56.8162 46.9574 56.7162 47.0443 56.5162 47.0443C55.4162 47.2182 54.2162 46.8705 53.5162 46.1751C53.3162 46.0012 53.1162 45.7405 52.9162 45.4797C52.7162 45.3058 52.2162 44.9581 52.1162 44.7843C52.1162 44.6104 52.6162 44.2627 52.7162 44.0889C53.0162 43.8281 53.2162 43.5673 53.4162 43.3065C53.7162 42.9588 53.9162 42.698 54.3162 42.4373C54.5162 42.3503 54.4162 42.3503 54.7162 42.4373C54.8162 42.5242 55.0162 42.5242 55.1162 42.6111C55.4162 42.5242 55.7162 42.785 56.1162 42.9588Z" fill="#FCD4CA"/>
<path d="M40.3165 18.9685C40.3165 18.9685 35.7165 21.4892 34.3165 16.9692C34.3165 16.9692 30.4165 17.1431 25.4165 23.1407C20.4165 29.1384 18.1165 32.0938 12.9165 39.4822C13.7165 40.2645 22.4165 48.1745 32.7165 46.0883C32.7165 46.0883 33.7165 44.0891 34.2165 43.2199C36.1165 39.3084 41.3165 28.5299 41.9165 25.3138C42.7165 20.7938 40.3165 18.9685 40.3165 18.9685Z" fill="#BBEADB"/>
<path d="M37.2162 30.79C37.7162 28.7039 36.3162 17.7518 31.9163 20.4463C29.4163 22.0109 28.9163 25.6616 29.7163 29.0516C30.6163 33.3107 31.8163 37.3091 34.2162 42.8721C35.2162 40.8729 36.9162 37.396 38.4162 34.093C37.5162 33.3976 36.9162 32.2677 37.2162 30.79Z" fill="#83CCC3"/>
<path d="M56.8164 42.6111L54.1164 46.957C54.1164 46.957 38.6164 41.568 36.0164 39.482C33.4164 37.3959 27.2164 21.0551 33.3164 19.3167C39.4164 17.5783 40.9164 34.7014 42.3164 35.7444C43.5164 36.7875 56.8164 42.6111 56.8164 42.6111Z" fill="#BBEADB"/>
</svg>
