<svg width="25" height="24" viewBox="0 0 25 24" fill="none" xmlns="http://www.w3.org/2000/svg">
<path d="M4.20801 11.25C3.79379 11.25 3.45801 11.5858 3.45801 12C3.45801 12.4142 3.79379 12.75 4.20801 12.75L4.20801 11.25ZM20.208 12.75C20.6222 12.75 20.958 12.4142 20.958 12C20.958 11.5858 20.6222 11.25 20.208 11.25V12.75ZM16.736 6.46731C16.4418 6.17573 15.9669 6.17784 15.6753 6.47204C15.3837 6.76624 15.3859 7.24111 15.68 7.53269L16.736 6.46731ZM17.971 8.74731L17.443 9.28L17.971 8.74731ZM17.971 15.2527L18.4989 15.7854L17.971 15.2527ZM15.68 16.4673C15.3859 16.7589 15.3837 17.2338 15.6753 17.528C15.9669 17.8222 16.4418 17.8243 16.736 17.5327L15.68 16.4673ZM20.1881 11.6867L20.9321 11.5918V11.5918L20.1881 11.6867ZM20.1881 12.3133L20.9321 12.4082V12.4082L20.1881 12.3133ZM4.20801 12.75L20.208 12.75V11.25L4.20801 11.25L4.20801 12.75ZM15.68 7.53269L17.443 9.28L18.4989 8.21462L16.736 6.46731L15.68 7.53269ZM17.443 14.72L15.68 16.4673L16.736 17.5327L18.4989 15.7854L17.443 14.72ZM17.443 9.28C18.1585 9.98914 18.6493 10.4772 18.9814 10.8907C19.304 11.2924 19.4147 11.5504 19.4441 11.7815L20.9321 11.5918C20.8533 10.9737 20.5584 10.4588 20.151 9.95146C19.753 9.45597 19.1894 8.89892 18.4989 8.21462L17.443 9.28ZM18.4989 15.7854C19.1894 15.1011 19.753 14.544 20.151 14.0485C20.5584 13.5412 20.8533 13.0263 20.9321 12.4082L19.4441 12.2185C19.4147 12.4496 19.304 12.7076 18.9814 13.1093C18.6493 13.5228 18.1585 14.0109 17.443 14.72L18.4989 15.7854ZM19.4441 11.7815C19.4626 11.9266 19.4626 12.0734 19.4441 12.2185L20.9321 12.4082C20.9666 12.1371 20.9666 11.8629 20.9321 11.5918L19.4441 11.7815Z" fill="white"/>
</svg>
