<svg width="80" height="60" viewBox="0 0 80 60" fill="none" xmlns="http://www.w3.org/2000/svg">
<path d="M32.2253 45.8781C29.2958 42.6586 20.7324 38.2683 22.9859 33.2927C24.9389 29.0488 34.1784 29.561 33.0516 24.4391C32.3756 21.4391 31.5493 18.8049 33.5774 15.3659C35.7558 11.6342 42.2911 13.683 44.6197 10.1708C46.5728 7.17076 44.0188 2.561 48.0751 0.512224C51.5305 -1.31704 55.8873 2.19515 56.5634 5.26832C57.3897 9.14637 53.4835 10.9025 52.9577 14.2683C52.6573 16.3903 54.6103 17.122 55.8122 18.6586C56.9389 20.122 57.9155 22.1708 57.9906 23.9269C58.2159 29.2683 52.2066 29.9269 49.3521 33.2927C46.723 36.4391 51.6056 38.4147 50.8544 41.8537C50.1033 45.5122 44.6948 47.561 40.9389 47.4878C38.2347 47.4878 34.0282 47.8537 32.2253 45.8781Z" fill="#FFD722"/>
<path d="M36.0565 47.6342C36.0565 47.6342 35.9814 47.561 36.0565 47.6342C35.8311 47.561 35.8311 47.4147 35.9063 47.3415C35.9814 47.2683 41.3147 39.4391 41.6152 29.561C41.8405 22.9757 44.6199 18.8049 46.9485 15.3659C48.3006 13.3171 49.5776 11.4879 49.7278 9.65859C49.7278 9.51225 49.8781 9.36591 50.0283 9.36591C50.1786 9.36591 50.3288 9.51225 50.2537 9.65859C50.0283 11.6342 48.8264 13.4635 47.3992 15.5854C45.1457 18.9513 42.3663 23.122 42.141 29.561C41.8405 39.5122 36.357 47.4147 36.357 47.561C36.2818 47.561 36.1316 47.6342 36.0565 47.6342Z" fill="#FFD722"/>
<path d="M42.0657 29.561C41.9154 29.561 41.8403 29.4147 41.8403 29.3415C41.8403 29.1952 41.9906 29.122 42.1408 29.122C44.3943 29.2683 47.399 27.9513 48.3755 25.8293C48.4507 25.5366 48.6009 25.3171 48.676 24.9513C49.2018 23.4878 49.953 21.6586 51.3802 21.0732C52.0563 20.7805 52.8826 20.7805 53.784 21.0732C53.9342 21.1464 54.0093 21.2927 53.9342 21.3659C53.8591 21.5122 53.7089 21.5854 53.5586 21.5122C52.8075 21.2196 52.1314 21.2196 51.5305 21.5122C50.3286 22.0976 49.6525 23.7805 49.1267 25.0976C48.9765 25.3903 48.9014 25.683 48.7511 25.9756C47.8497 28.3903 44.5446 29.7074 42.0657 29.561Z" fill="#FFD722"/>
<path d="M40.4881 29.3415C39.4365 29.122 38.6102 28.683 38.0844 28.0244C37.2581 27.0001 37.1078 25.3903 37.7088 23.4147C37.7839 23.1952 37.859 22.9757 37.9341 22.7562C38.3848 21.3659 39.136 19.244 38.3848 18.0001C38.1595 17.6342 37.7839 17.3415 37.2581 17.1952C37.1078 17.122 37.0327 17.0488 37.0327 16.9025C37.1078 16.7562 37.2581 16.683 37.4083 16.683C38.0844 16.8293 38.6102 17.1952 38.9107 17.7074C39.7369 19.0976 38.9858 21.3659 38.46 22.8293C38.3848 23.0488 38.3097 23.2683 38.2346 23.4879C37.7088 25.3171 37.7839 26.7805 38.5351 27.6586C39.136 28.4635 40.2628 28.9025 41.8402 28.9757C41.9905 28.9757 42.0656 29.122 42.0656 29.1952C42.0656 29.3415 41.9154 29.4147 41.7651 29.4147C41.3144 29.4879 40.8637 29.4147 40.4881 29.3415Z" fill="#FFD722"/>
<path d="M39.1362 44.4878C38.8357 44.4147 38.5353 44.3415 38.2348 44.1952C38.0846 44.122 38.0846 43.9757 38.1597 43.9025C38.2348 43.8293 38.385 43.7561 38.5353 43.8293C39.8874 44.6342 42.6667 43.6098 43.7935 42.8049C44.3193 42.4391 44.6949 41.8537 45.2207 41.2683C46.047 40.1708 46.9484 39.0001 48.3005 39.0001C48.4508 39.0001 48.5259 39.0732 48.5259 39.2196C48.5259 39.3659 48.3757 39.4391 48.2254 39.4391C47.1738 39.4391 46.3475 40.5366 45.5963 41.4879C45.0705 42.1464 44.6198 42.7318 44.094 43.1708C43.1174 43.8293 40.8639 44.7805 39.1362 44.4878Z" fill="#FFD722"/>
<path d="M36.9577 44.0488C36.6573 43.9756 36.3568 43.9025 36.0563 43.7561C34.3286 42.8781 33.3521 40.6098 33.0516 39.2927C32.9014 38.561 33.1268 37.683 33.3521 36.6586C33.7277 35.0488 34.1033 33.4391 33.0516 32.6342C32.9014 32.561 32.9014 32.4147 33.0516 32.2683C33.1268 32.1952 33.3521 32.122 33.4272 32.2683C34.7042 33.2195 34.3286 35.122 33.8779 36.7317C33.6526 37.683 33.4272 38.561 33.5775 39.2195C33.8028 40.3903 34.7793 42.5854 36.3568 43.3903C36.9577 43.683 37.6338 43.7561 38.2347 43.6098C38.385 43.6098 38.5352 43.6098 38.5352 43.7561C38.5352 43.9025 38.4601 43.9756 38.385 44.0488C37.8591 44.0488 37.4084 44.122 36.9577 44.0488Z" fill="#FFD722"/>
<path d="M53.1831 56.6342C48.1503 55.4635 44.1691 54.3659 44.0939 49.1708C44.0188 46.4635 45.2958 44.6342 48.1503 43.1708C50.4789 42 51.6808 41.561 52.2066 39.2196C53.0329 35.4147 51.155 31.683 53.6339 28.0244C56.3381 23.9269 62.5728 25.8293 65.3522 22.0976C67.9062 18.8049 69.3334 14.4879 74.7418 14.4879C79.2489 14.561 81.1268 19.1708 79.1738 22.3903C78.047 24.2196 76.1691 25.4635 75.4179 27.3659C74.6667 29.1952 75.493 30.7318 76.2442 32.4147C77.8216 36.1464 78.2724 39.9513 73.8404 42.4391C71.2113 43.9025 69.1832 45.2196 70.1597 47.9269C71.1362 50.8537 71.5869 52.4635 67.9813 54.6586C65.277 56.2683 62.7982 56.122 59.7184 56.2683C56.7888 56.4147 52.9578 57.1464 50.1785 55.9025L53.1831 56.6342Z" fill="#E5E6ED"/>
<path d="M54.7608 54.0001C54.3101 53.561 54.0848 53.0489 53.9345 52.5367C53.3336 50.3415 55.4369 48.2196 57.3899 46.244C58.3665 45.2196 59.2679 44.3415 59.7186 43.4635C60.9205 41.2684 61.2209 39.2927 60.9956 36.2196C60.6951 32.561 61.6716 31.0976 64.7514 28.683C67.3054 26.6342 69.8594 24.3659 70.6106 22.1708C70.6857 22.0245 70.9111 21.8781 71.1364 21.9513C71.3618 22.0245 71.512 22.1708 71.4369 22.3903C70.6857 24.7318 68.0566 27.0732 65.3524 29.1952C62.4228 31.5367 61.4463 32.8537 61.7467 36.3659C61.9721 39.0001 61.8219 41.2684 60.3946 43.9025C59.9439 44.7806 58.9674 45.7318 57.9909 46.7562C56.1129 48.6586 54.0848 50.7074 54.6106 52.683C54.8359 53.4147 55.3618 54.1464 56.4134 54.8049C56.5636 54.9513 56.6388 55.0976 56.4885 55.1708C56.4134 55.244 56.1881 55.244 56.0378 55.1708C55.512 54.6586 55.1364 54.3659 54.7608 54.0001Z" fill="white"/>
<path d="M61.1454 39.6586C61.0703 39.5854 61.0703 39.5123 61.0703 39.4391C61.0703 39.2927 61.2205 39.1464 61.4459 39.2196C63.2487 39.4391 64.6008 38.0488 66.0281 36.5854C67.305 35.2684 68.6572 33.8781 70.46 33.5123C70.6853 33.4391 70.9107 33.5854 70.9858 33.7318C71.0609 33.8781 70.9858 34.0976 70.7604 34.0976C69.183 34.3903 67.906 35.7074 66.629 36.9513C65.1266 38.4879 63.6243 40.0245 61.4459 39.8049C61.2957 39.8049 61.2205 39.7318 61.1454 39.6586Z" fill="white"/>
<path d="M59.7185 44.1952L59.6434 44.122C59.4931 43.683 59.418 43.3171 59.3429 42.9513C59.1927 42.3659 59.1176 41.8537 58.5917 41.1952C58.2913 40.8293 57.9908 40.5366 57.6903 40.2439C57.0894 39.6586 56.4133 39 56.1129 38.0488C55.6622 36.6586 55.7373 34.9025 56.188 32.7805C56.2631 32.4878 56.4133 32.0488 56.5636 31.683C56.7889 31.0244 57.2396 29.9269 57.0894 29.6342C57.0143 29.4878 57.0894 29.2683 57.2396 29.2683C57.3899 29.1952 57.6152 29.2683 57.7654 29.4147C58.0659 29.8537 57.7654 30.6586 57.3147 31.9756C57.1645 32.4147 57.0143 32.7805 56.9392 33.0732C56.6387 34.4635 56.3382 36.4391 56.864 38.122C57.0894 38.9269 57.6152 39.4391 58.2913 40.0244C58.5917 40.3171 58.9673 40.6098 59.2678 41.0488C59.8687 41.8537 60.019 42.4391 60.1692 43.0244C60.2443 43.3903 60.3194 43.683 60.4697 44.122C60.5448 44.2683 60.3946 44.4147 60.2443 44.4147C59.9438 44.3415 59.7936 44.2683 59.7185 44.1952Z" fill="white"/>
<path d="M23.061 55.9756C17.5023 55.0244 12.3192 55.3903 10.0657 49.4634C8.26283 44.7805 12.3943 40.3903 8.26283 37.1707C5.78396 35.2683 1.80274 34.0976 0.901331 30.7317C-7.81491e-05 27.2927 4.50696 25.1708 3.75579 21.8049C3.07973 19.0976 -0.826369 18.8781 0.225274 15.3659C1.12668 12.2195 3.98114 11.4147 6.23466 12.0732C9.23936 12.9512 9.53983 15.5854 11.4929 17.4878C12.845 18.7317 14.7229 17.4878 16.676 17.2683C18.629 17.0488 21.183 17.1951 22.8356 18.0732C28.2441 20.7805 23.8873 26.6342 24.8638 31.3171C25.8403 35.8537 32.3755 33.1464 35.8309 36.5854C39.8121 40.6098 36.8074 47.4878 32.9013 50.7805C30.2722 52.8293 26.8168 56.6342 23.061 55.9756Z" fill="#D0D1DE"/>
<path d="M28.3943 54.8049H28.3191C28.1689 54.8781 27.9436 54.7317 27.8684 54.5854C27.8684 54.439 24.1877 42.7317 15.399 34.9756C10.4412 30.5854 9.23933 26.122 8.33793 22.6098C7.8121 20.561 7.3614 18.8049 6.30976 17.8537C6.23464 17.7805 6.23464 17.6342 6.30976 17.4878C6.38487 17.3415 6.53511 17.3415 6.61023 17.4146C7.73699 18.439 8.18769 20.1951 8.78863 22.3171C9.69004 25.7561 10.8919 30.2195 15.7745 34.4634C24.7886 42.3659 28.4694 54.2927 28.5445 54.439C28.6196 54.5854 28.5445 54.7317 28.3943 54.8049Z" fill="white"/>
<path d="M15.8496 34.6098C15.6994 34.6829 15.5492 34.6829 15.4741 34.6098C15.3989 34.5366 15.3989 34.3171 15.4741 34.2439C17.2769 32.561 18.4036 29.2683 17.2769 27.1463C17.1266 26.9268 16.9764 26.6341 16.8262 26.3415C16.075 25.0244 15.0985 23.4878 15.5492 21.9512C15.7745 21.2195 16.3755 20.561 17.2769 19.9024C17.4271 19.8293 17.5773 19.8293 17.6525 19.9756C17.7276 20.1219 17.6525 20.2683 17.5022 20.3415C16.7511 20.8537 16.3004 21.3658 16.075 22.0244C15.6243 23.3415 16.5257 24.8049 17.2769 25.9756C17.4271 26.2683 17.5773 26.4878 17.7276 26.7805C19.0797 29.1951 17.8027 32.7073 15.8496 34.6098Z" fill="white"/>
<path d="M14.4224 35.7073C13.521 36.3658 12.5445 36.6585 11.7182 36.5854C10.3661 36.5122 9.08907 35.561 8.11254 33.878C8.03742 33.7317 7.88719 33.5122 7.81207 33.2927C7.13602 32.1219 6.15949 30.3659 4.95761 30.1463C4.58203 30.0732 4.20644 30.2195 3.83085 30.5122C3.75573 30.5854 3.6055 30.5854 3.53038 30.439C3.45526 30.3658 3.53038 30.1463 3.6055 30.0732C4.13132 29.7073 4.58203 29.561 5.10785 29.561C6.45996 29.7073 7.5116 31.6098 8.18766 32.8537C8.33789 33.0732 8.41301 33.2195 8.48813 33.439C9.38954 34.9756 10.5163 35.8537 11.7182 35.9268C12.7698 36 13.8966 35.4146 15.0985 34.3171C15.2487 34.1707 15.3989 34.1707 15.474 34.3171C15.5492 34.3902 15.5492 34.6098 15.474 34.6829C15.1736 35.1219 14.798 35.4878 14.4224 35.7073Z" fill="white"/>
<path d="M27.7934 49.0976C27.4178 49.3171 27.0422 49.4635 26.6666 49.5367C26.5164 49.5367 26.291 49.4635 26.291 49.3171C26.291 49.1708 26.3661 49.0245 26.5915 48.9513C28.6948 48.5854 30.122 45.2928 30.2722 43.5367C30.3473 42.8049 30.122 41.9269 29.8215 40.9757C29.3708 39.2928 28.845 37.6098 30.0469 36.3659C30.1971 36.2196 30.4225 36.2196 30.4976 36.2928C30.6478 36.3659 30.6478 36.5854 30.4976 36.7318C29.5211 37.683 29.9718 39.2928 30.4225 40.8293C30.7229 41.8537 30.9483 42.8049 30.8732 43.6098C30.7981 45.0732 29.7464 48.0001 27.7934 49.0976Z" fill="white"/>
<path d="M25.2393 50.4147C24.8637 50.6342 24.4881 50.7805 24.0374 50.8537C21.7088 51.3659 18.7041 50.0488 17.2769 49.0976C16.5257 48.5854 15.8497 47.6342 15.1736 46.6098C14.122 45.0732 13.0703 43.4634 11.7182 43.6098C11.568 43.6098 11.4177 43.5366 11.4177 43.3903C11.4177 43.2439 11.4928 43.0976 11.6431 43.0976C13.2957 42.8781 14.5727 44.6342 15.6243 46.2439C16.3004 47.1952 16.9013 48.1464 17.5773 48.5854C18.8543 49.4634 21.7088 50.7073 23.8872 50.2683C24.7135 50.0488 25.3896 49.6098 25.7651 48.9512C25.8403 48.8049 26.0656 48.7317 26.2158 48.8049C26.3661 48.8781 26.4412 49.0976 26.3661 49.2439C26.1407 49.7561 25.7651 50.122 25.2393 50.4147Z" fill="white"/>
<path d="M64.9765 60.0001H15.5493C14.8732 60.0001 14.3474 59.4879 14.3474 58.8293V27.3659C14.3474 26.7074 14.8732 26.1952 15.5493 26.1952H64.9765C65.6526 26.1952 66.1784 26.7074 66.1784 27.3659V58.8293C66.1784 59.4879 65.6526 60.0001 64.9765 60.0001Z" fill="#110239"/>
<path d="M61.4461 28.3903H16.7512V57.3659H61.4461V28.3903Z" fill="white"/>
<path d="M64.6012 43.0977C64.6012 43.6098 64.1505 43.9757 63.6998 43.9757C63.249 43.9757 62.7983 43.5367 62.7983 43.0977C62.7983 42.5855 63.249 42.2196 63.6998 42.2196C64.1505 42.2196 64.6012 42.5855 64.6012 43.0977Z" fill="white"/>
<path d="M51.3802 52.0244H26.8169C26.1408 52.0244 25.615 51.5122 25.615 50.8537V35.3415C25.615 34.683 26.1408 34.1708 26.8169 34.1708H51.3802C52.0563 34.1708 52.5821 34.683 52.5821 35.3415V50.7805C52.6572 51.4391 52.0563 52.0244 51.3802 52.0244Z" fill="#E5E6ED"/>
<path d="M51.3803 35.561H26.8169V50.561H51.3803V35.561Z" fill="#FFD722"/>
<path d="M34.5542 38.3415V48.2195L44.3946 43.3171L34.5542 38.3415Z" fill="#01DB5E"/>
<path d="M39.5118 25.9757C39.5118 25.9757 33.277 25.9757 31.0986 24.5123C28.9202 23.122 28.5446 17.4147 31.6996 15.0732C34.8545 12.7318 35.5305 12.0732 35.6808 10.5366C35.831 9.00006 35.7559 5.56104 39.8873 5.56104C43.9437 5.56104 43.5681 8.78055 43.8686 10.8293C44.0939 12.2927 46.1221 14.3415 47.8498 15.6586C50.1784 17.3415 52.7324 27.3659 39.5118 25.9757Z" fill="#110239"/>
<path d="M38.7607 9.51227L40.1129 9.58544L41.465 9.65861C41.465 9.65861 41.7654 13.244 42.4415 13.7562C42.4415 13.7562 43.1927 18.0732 39.8124 17.9269C35.756 17.7806 37.4837 13.6098 37.4837 13.6098C38.2349 13.0976 38.7607 9.51227 38.7607 9.51227Z" fill="#E45940"/>
<path d="M34.2536 26.122H45.2207L46.1222 22.683C46.2724 19.1708 46.3475 15.5854 46.3475 15.5854C44.77 14.3415 42.2912 13.4634 42.2912 13.4634C40.9391 14.4147 38.986 14.561 37.709 13.4634C37.709 13.4634 35.2301 14.4878 33.5776 15.5854C33.5776 15.5854 33.2771 17.0488 33.4273 19.3903C33.5024 21.6586 33.8029 23.9269 34.2536 26.122Z" fill="#01DB5E"/>
<path d="M50.1786 26.122C49.3523 22.0244 48.526 19.3903 47.85 17.8537C46.9486 15.8049 46.2725 15.5854 46.2725 15.5854C45.4462 15.5122 44.8453 22.0244 43.4932 26.122H50.1786Z" fill="#01DB5E"/>
<path d="M45.1455 20.1952C44.9201 20.7805 44.5445 21.2196 44.1689 21.7317C43.7934 22.1708 42.892 24.8049 39.2863 24.5854C37.784 24.5122 36.3567 23.0488 35.7558 21.5854C35.5305 21 35.3802 20.4147 35.23 19.7561C35.1549 19.3171 35.0798 18.7317 34.8544 18.2927C34.4037 18.4391 34.3286 19.0976 34.1783 19.4635C34.1032 19.683 33.4272 20.561 33.3521 19.9025C33.5023 22.0244 33.8028 24.0732 34.1783 26.122H45.9718C45.8215 23.7074 45.1455 20.9269 45.1455 20.1952Z" fill="#00BA4B"/>
<path d="M43.1926 10.1708C42.817 9.73174 42.3663 10.3903 42.3663 10.3903C42.3663 10.3903 42.5166 9.65857 42.5917 8.85369C41.6903 8.3415 40.7889 7.8293 39.9626 7.53662C39.1363 7.75613 38.2349 8.3415 37.3335 8.85369C37.4086 9.65857 37.5588 10.3903 37.5588 10.3903C37.5588 10.3903 37.1081 9.73174 36.7325 10.1708C36.3569 10.6098 37.3335 11.7074 37.5588 11.7805C37.5588 11.7805 38.3851 13.683 39.3616 14.2683C39.587 14.4147 40.4133 14.4878 40.7889 14.2683C41.7654 13.6098 42.5166 11.7805 42.5166 11.7805C42.5917 11.7074 43.5682 10.6098 43.1926 10.1708Z" fill="#F88667"/>
<path d="M42.5162 8.19517C42.5162 8.19517 41.1641 10.5366 37.7838 10.3171C37.7838 10.3171 37.934 10.6098 37.7838 11.122C37.7838 11.122 37.5585 10.1708 37.0326 10.4635C36.7322 10.6098 36.7322 10.9757 37.0326 11.4147C37.1829 11.6342 36.2064 11.2683 36.2064 11.2683C36.2064 11.2683 35.8308 7.68297 38.2345 6.87809C40.6383 6.00004 42.5162 8.19517 42.5162 8.19517Z" fill="#110239"/>
<path d="M41.3895 6.95129C41.3895 7.09763 41.3144 7.31714 41.3144 7.46348C41.3144 7.82933 40.7886 8.12202 40.7886 8.48787C40.8637 8.56104 40.9388 8.63421 41.0139 8.70738C41.4646 9.29275 41.69 9.58543 41.8402 10.244C41.9153 10.4635 41.7651 10.6098 42.0656 11.122C42.0656 11.122 42.2909 10.1708 42.8919 10.3171C43.0421 10.3171 43.2674 10.5367 43.0421 10.9757C42.967 11.122 43.643 10.3171 43.643 10.3171C43.643 10.3171 43.643 6.87811 41.3895 6.95129Z" fill="#110239"/>
<path d="M36.657 41.9269C36.8073 42.2195 37.4833 42.6586 37.258 43.0244C37.1077 43.2439 36.5068 42.8049 36.3566 42.6586C36.1312 42.4391 34.8542 40.4634 34.6288 39.8781C34.4786 39.4391 34.3284 39 34.103 38.561C34.5537 38.2683 35.0044 37.9025 35.38 37.5366C36.0561 37.8293 36.7321 38.2683 37.4082 38.561C37.7838 38.7074 38.1594 38.8537 38.535 38.9269C38.7603 39 39.211 39.1464 39.2861 39.4391C39.2861 39.7317 38.8354 39.6586 38.6101 39.6586C38.3096 39.5854 37.8589 39.3659 37.6335 39.6586C37.3331 40.0976 38.2345 40.6098 38.535 40.9025C38.8354 41.1952 39.812 42.0732 39.0608 42.1464C38.9105 42.1464 37.8589 41.2683 37.7087 41.1952C37.7087 41.2683 38.3847 41.8537 38.4598 41.9269C38.6101 42.1464 39.1359 42.5854 38.9857 42.8781C38.6852 43.3903 37.5584 42.0732 37.4082 41.9269L37.7838 42.4391C38.1594 42.8049 38.3847 43.1708 38.0843 43.2439C37.7838 43.3171 36.9575 42.2927 36.657 41.9269Z" fill="#F88667"/>
<path d="M36.507 37.9757L34.2535 39.4391C34.2535 39.4391 27.1925 30.5123 27.9436 27.1464C28.8451 23.1952 31.2488 18.7318 32.5258 16.683C33.0516 15.8781 33.5023 15.5854 33.5023 15.5854C34.8544 16.8294 35.6056 18.5855 35.4554 20.1952C35.3803 20.9269 35.0047 21.3659 34.6291 22.0976C33.4272 24.2928 32 28.0976 32 28.5367C32.0751 29.122 36.507 37.9757 36.507 37.9757Z" fill="#01DB5E"/>
</svg>
