<svg width="28" height="26" viewBox="0 0 28 26" fill="none" xmlns="http://www.w3.org/2000/svg">
<path d="M7.40029 21.6211L7.85802 21.8178C9.76552 22.801 11.9017 23.2598 14.038 23.2598C20.752 23.2598 26.2453 18.5403 26.2453 12.7721C26.2453 10.0191 24.9482 7.33156 22.6594 5.36507C20.3705 3.39858 17.3186 2.2843 14.038 2.2843C7.32405 2.2843 1.83069 7.00379 1.90704 12.8377C1.90704 14.8041 2.59369 16.705 3.73808 18.3437L4.04324 18.737L2.82261 22.6044L7.40029 21.6211Z" fill="#00E676"/>
<path d="M23.9567 4.31623C21.3627 2.02207 17.7768 0.776611 14.1146 0.776611C6.33259 0.776611 0.0763437 6.21713 0.152578 12.8375C0.152578 14.9351 0.839234 16.9672 1.98373 18.8025L0 25.0296L7.40064 23.3909C9.46061 24.3742 11.7494 24.833 14.0384 24.833C21.7442 24.833 28.0004 19.3924 28.0004 12.7721C28.0004 9.56016 26.5508 6.54489 23.9568 4.31623H23.9567ZM14.1146 22.801C12.0547 22.801 9.99469 22.3423 8.23987 21.4246L7.78214 21.2279L3.35705 22.2111L4.50144 18.4749L4.19628 18.0815C0.839234 13.4276 2.44147 7.26591 7.93472 4.38173C13.428 1.49763 20.5235 2.87418 23.8805 7.59368C27.2374 12.3132 25.6352 18.4092 20.1421 21.2934C18.3871 22.2766 16.2509 22.8009 14.1146 22.8009V22.801ZM20.8286 15.5252L19.9894 15.1974C19.9894 15.1974 18.7687 14.7386 18.0057 14.4108C17.9294 14.4108 17.8532 14.3452 17.7768 14.3452C17.5479 14.3452 17.3953 14.4108 17.2427 14.4764C17.2427 14.4764 17.1665 14.5419 16.0984 15.5907C16.022 15.7218 15.8694 15.7874 15.7169 15.7874H15.6405C15.5643 15.7874 15.4117 15.7218 15.3354 15.6563L14.9539 15.5252C14.1146 15.1974 13.3517 14.8041 12.7413 14.2797C12.5887 14.1487 12.3598 14.0176 12.2072 13.8865C11.6732 13.4276 11.1391 12.9032 10.7577 12.3133L10.6813 12.1822C10.6051 12.1166 10.6051 12.0511 10.5288 11.92C10.5288 11.7889 10.5288 11.6578 10.6051 11.5922C10.6051 11.5922 10.9103 11.2645 11.1391 11.0679C11.2918 10.9367 11.368 10.7401 11.5206 10.609C11.6732 10.4124 11.7495 10.1502 11.6732 9.95352C11.5969 9.62575 10.6813 7.85594 10.4525 7.46268C10.2998 7.26601 10.1474 7.20051 9.91845 7.13492H9.07922C8.92653 7.13492 8.77406 7.20051 8.62137 7.20051L8.54503 7.26601C8.39245 7.3316 8.23987 7.46268 8.0873 7.52818C7.93472 7.65936 7.85837 7.79035 7.7058 7.92153C7.17172 8.51147 6.86656 9.23249 6.86656 9.95352C6.86656 10.4779 7.01914 11.0023 7.24806 11.4612L7.32441 11.6578C8.01106 12.9032 8.92653 14.0176 10.1474 15.0008L10.4525 15.2629C10.6813 15.4596 10.9103 15.5907 11.0628 15.7873C12.6651 16.9673 14.4961 17.8194 16.5561 18.2782C16.785 18.3437 17.0902 18.3437 17.3191 18.4093H18.082C18.4635 18.4093 18.9212 18.2782 19.2265 18.1471C19.4553 18.016 19.6079 18.016 19.7605 17.885L19.9131 17.7538C20.0657 17.6227 20.2183 17.5572 20.3709 17.4261C20.5235 17.295 20.676 17.1639 20.7524 17.0328C20.905 16.7706 20.9812 16.4428 21.0575 16.1151V15.6563C21.0575 15.6563 20.9812 15.5907 20.8286 15.5252Z" fill="white"/>
</svg>
