<svg width="73" height="60" viewBox="0 0 73 60" fill="none" xmlns="http://www.w3.org/2000/svg">
<path d="M26.479 32.2509L26.2596 57.5646C26.2596 58.893 25.8939 59.631 23.9921 59.8524C21.6514 60.1476 20.9931 59.7786 20.6273 59.1144C19.969 57.9336 13.6784 33.7269 12.6544 32.1033C11.6303 30.4797 26.479 32.2509 26.479 32.2509Z" fill="#FFD722"/>
<path d="M26.4789 37.7122L26.552 32.2509C26.552 32.2509 11.7033 30.4797 12.7274 32.1033C12.9468 32.4723 13.9709 35.572 14.7023 38.0074L26.4789 37.7122Z" fill="#DDB922"/>
<path d="M3.07214 23.5424C1.75551 23.5424 0.58517 24.4281 0.292585 25.7565C0.146293 26.4945 0 27.4539 0 28.7085C0 30.1845 0.0731463 31.0701 0.438878 31.8819C0.877756 32.8413 1.82866 33.4317 2.85271 33.4317C7.97295 33.6531 26.2595 34.3173 30.0631 35.2768C34.525 36.31 49.3737 43.0258 49.3737 43.0258L46.521 9.2251C46.521 9.2251 32.8427 20.4428 24.1383 22.1402C17.482 23.4686 7.31463 23.6162 3.07214 23.5424Z" fill="#D0D1DE"/>
<path d="M12.435 33.8745C14.3368 33.9483 16.3117 34.0959 18.2135 34.1697C16.97 30.1845 17.482 25.6827 18.0672 22.952C16.1654 23.0996 14.1173 23.2472 12.2155 23.321C11.3378 27.2325 11.5572 30.8487 12.435 33.8745Z" fill="#110239"/>
<path d="M64.0031 24.9447C64.0763 37.1956 58.2977 47.0849 51.1294 47.1587C43.8879 47.2325 37.9631 37.417 37.8899 25.1661C37.7436 12.989 43.5222 3.02587 50.7637 2.95207C57.932 2.87827 63.8569 12.7676 64.0031 24.9447Z" fill="#E5E6ED"/>
<path d="M62.9791 24.9447C63.0523 35.3506 58.1515 43.8376 52.0072 43.8376C45.8629 43.9114 40.8158 35.4982 40.7427 25.0923C40.7427 14.7602 45.6435 6.27306 51.7146 6.27306C57.8589 6.19926 62.906 14.6125 62.9791 24.9447Z" fill="#110239"/>
<path d="M49.5198 26.8635C49.8124 23.1735 47.3986 20 44.1802 19.7048C43.083 19.631 42.0589 19.9262 41.108 20.4428C40.8886 21.9188 40.8154 23.4687 40.8154 25.0923C40.8154 27.8229 41.1812 30.4059 41.8395 32.7676C42.2784 32.9152 42.7172 33.0628 43.2293 33.0628C46.4477 33.4318 49.3004 30.6273 49.5198 26.8635Z" fill="#01DB5E"/>
<path d="M30.1362 13.3579C30.063 12.9889 30.063 12.6199 30.2824 12.2509C30.063 12.2509 29.8436 12.3247 29.8436 12.1771C29.8436 12.0295 29.9167 11.8081 29.7704 11.8081C29.6973 11.8081 29.551 11.8819 29.4778 11.9557C29.2584 12.1033 29.039 12.1033 28.8195 12.1033C28.7464 12.3985 28.5269 12.7675 28.6732 13.0627C28.7464 13.2103 29.1121 13.1365 29.3315 13.2103C29.6241 13.3579 29.9167 13.3579 30.1362 13.3579Z" fill="#F88667"/>
<path d="M24.7965 1.40215C24.7965 1.40215 23.1873 1.32835 20.9929 2.36156L22.017 6.86341C22.017 6.86341 23.041 6.1992 24.5039 6.3468L24.7965 1.40215Z" fill="#01DB5E"/>
<path d="M23.7724 3.76384C23.7724 3.02584 23.8456 2.28783 23.8456 1.54982C24.4308 1.47602 24.8696 1.40222 24.8696 1.40222L24.577 6.27307C24.1382 5.60886 23.9919 5.75646 23.8456 5.68266C23.8456 5.09226 23.6993 4.42805 23.7724 3.76384Z" fill="#E42244"/>
<path d="M33.6473 1.69741C33.6473 1.69741 27.8688 -0.590415 24.0651 0.221394L23.8457 5.75645C23.8457 5.75645 27.2104 5.01844 31.8187 7.08486L33.6473 1.69741Z" fill="#01DB5E"/>
<path d="M33.3939 1.58765L28.8594 14.7646L29.3431 14.9341L33.8776 1.7571L33.3939 1.58765Z" fill="#110239"/>
<path d="M29.1855 13.4318V11.8082C29.1855 11.8082 24.5041 11.8082 22.5292 11.2916C20.5542 10.7012 17.9209 8.41334 16.8969 8.78235C15.8728 9.15135 15.2145 10.2584 16.458 11.2916C17.7746 12.3248 20.8468 13.2104 22.1634 13.4318C23.1143 13.5056 28.454 13.4318 29.1855 13.4318Z" fill="#FFD722"/>
<path d="M21.3586 12.3985C19.6763 11.7343 18.1402 10.1844 16.8236 8.78223C15.7995 9.15123 15.2144 10.2582 16.531 11.2176C17.8476 12.2509 20.9198 13.1365 22.2364 13.3579C22.6753 13.4317 24.2113 13.4317 25.6743 13.4317C24.2113 13.2841 22.7484 12.9889 21.3586 12.3985Z" fill="#DDB922"/>
<path d="M21.2855 31.6605C21.2855 31.6605 20.4077 33.1365 20.4809 33.5055C20.6272 33.8745 23.7725 35.7196 24.2114 35.572C24.6502 35.4244 24.7234 34.9078 24.1382 34.3912C23.6262 33.9483 23.1142 33.8007 22.8216 33.3579C22.529 32.9889 22.8216 31.9557 22.8216 31.9557L21.2855 31.6605Z" fill="#110239"/>
<path d="M16.019 19.1144C16.019 19.1144 16.6774 19.631 17.3357 19.5572C17.994 19.4834 24.504 20.1476 25.2355 20.738C25.8938 21.3284 23.1874 32.3985 23.1874 32.3985L20.9199 32.0295C20.9199 32.0295 21.7245 23.9114 21.5782 23.8376C21.4319 23.7638 17.994 23.7638 12.1423 23.7638C10.7525 23.7638 9.1433 20.738 10.8988 18.5978L16.019 19.1144Z" fill="#01DB5E"/>
<path d="M16.9701 6.64208C16.7506 6.56827 16.5312 6.42067 16.3849 6.27307C16.3117 6.93728 16.0192 8.19189 15.3608 8.8561C15.3608 8.8561 16.7506 9.4465 17.921 9.1513C17.921 9.1513 17.7747 7.52768 17.9941 6.78968C17.7015 6.86348 17.3358 6.78968 16.9701 6.64208Z" fill="#F88667"/>
<path d="M16.3116 8.63469C16.531 7.89669 17.2625 7.52768 17.9208 7.45388C17.9208 7.23248 17.994 7.01108 18.0671 6.78968C17.7014 6.78968 17.3356 6.78968 17.0431 6.64207C16.8236 6.56827 16.6042 6.42067 16.4579 6.27307C16.3847 6.93728 16.0922 8.19189 15.4338 8.8561C15.4338 8.8561 15.7996 9.0037 16.2384 9.1513C16.2384 8.9299 16.2384 8.7823 16.3116 8.63469Z" fill="#E45940"/>
<path d="M16.6043 2.80446C16.6043 2.80446 18.2866 2.28785 18.7987 2.58306C19.3107 2.95206 19.7496 3.98527 19.6764 4.57568C19.6033 5.16608 20.2616 5.90409 20.3347 6.12549C20.3347 6.27309 19.8227 6.42069 19.8227 6.4945C19.8227 6.5683 19.7496 7.67531 19.0181 7.89671C17.9941 8.19191 16.6043 7.3063 16.1654 6.7159C15.5802 6.05169 14.9951 3.17346 16.6043 2.80446Z" fill="#F88667"/>
<path d="M19.7496 2.87823C19.6764 2.80443 19.457 2.65683 19.3838 2.50923C19.3107 2.43543 19.3107 2.28783 19.2375 2.21402C19.0181 1.91882 19.0181 1.77122 18.2135 1.47602C17.5552 1.25462 16.6774 1.47602 16.1654 1.91882C15.946 2.06642 15.7997 2.28783 15.6534 2.50923C15.6534 2.58303 15.5071 2.73063 15.5071 2.80443C15.5071 2.87823 15.7997 2.95203 15.8728 3.02583C16.0191 3.09963 16.0923 3.24723 16.2385 3.32104C16.97 3.91144 18.2135 4.64945 19.0181 3.76384C19.1644 3.61624 19.2375 3.54244 19.3107 3.39484C19.457 3.76384 19.6033 4.13284 19.5301 4.50185C19.5301 4.50185 19.8227 4.28044 19.8959 3.98524C20.1153 3.46864 19.8959 3.09963 19.7496 2.87823Z" fill="#110239"/>
<path d="M16.1654 2.80437C15.9459 2.73057 15.5802 2.73057 15.3608 2.80437C14.9219 2.87817 14.7024 3.24718 14.6293 3.68998C14.5562 3.98519 14.5562 4.20659 14.5562 4.50179C14.5562 4.94459 14.5562 5.2398 14.7756 5.6826C14.9219 6.12541 15.1413 6.49441 15.5071 6.78961C15.7996 7.08482 16.3848 7.38002 16.6774 7.23242C16.8237 7.15862 16.97 6.34681 16.8968 6.12541C16.8968 5.904 16.7505 5.904 16.6043 5.8302C16.3117 5.6826 16.0191 5.3874 16.2385 5.0184C16.5311 4.57559 17.0431 4.79699 17.1894 5.3874C17.1894 5.3874 17.4089 5.7564 17.482 5.6826C17.5552 5.6088 18.1403 3.91138 16.1654 2.80437Z" fill="#110239"/>
<path d="M16.3848 5.16605C16.3848 5.16605 16.6774 5.01845 16.8968 5.31365C17.1162 5.53505 16.9699 5.90406 16.8236 5.75646C16.6042 5.60886 16.6774 5.46125 16.6774 5.38745C16.6042 5.23985 16.4579 5.16605 16.3848 5.16605Z" fill="#E45940"/>
<path d="M10.0942 18.4502C10.0942 18.4502 12.4349 20.2952 17.3357 19.4834C17.3357 19.4834 17.3357 18.0812 17.7015 16.6789C18.1403 15.2767 18.7255 12.6199 18.7255 11.1439C18.7255 9.52027 17.8477 8.78226 17.8477 8.78226C17.8477 8.78226 16.8968 9.66787 15.5802 8.48706C15.5802 8.48706 12.9469 9.07747 11.7766 12.1033C10.6063 15.1291 10.0942 18.4502 10.0942 18.4502Z" fill="#FFD722"/>
<path d="M15.9458 10.8487C14.7023 12.2509 15.8727 15.6458 17.4819 17.4908C17.555 17.1956 17.6282 16.9004 17.7013 16.6052C17.9208 15.8672 18.2134 14.7602 18.4328 13.7269C17.9939 13.4317 17.6282 13.0627 17.4088 12.4723C16.8967 11.3653 16.6041 10.5535 15.9458 10.8487Z" fill="#DDB922"/>
<path d="M26.1863 20.369C26.4057 20.5166 26.552 20.6642 26.7715 20.6642C26.8446 20.6642 26.9909 20.6642 27.0641 20.738C27.1372 20.8118 27.2835 20.8118 27.4298 20.8856C27.5029 20.8856 27.6492 20.9594 27.7224 21.0332C27.7955 21.1808 27.6492 21.1808 27.5029 21.1808C27.3566 21.1808 26.9909 20.9594 26.9178 21.0332C26.8446 21.107 27.2835 21.4022 27.3566 21.476C27.5761 21.6236 27.7224 21.476 27.9418 21.476C28.0881 21.476 28.1612 21.5498 28.015 21.6236C27.9418 21.6974 27.7955 21.6974 27.7224 21.6974C27.5029 21.6974 27.2835 21.6974 27.0641 21.6236C27.2103 21.6974 27.5029 21.7712 27.6492 21.7712C27.7955 21.7712 28.3075 21.6974 28.3075 21.9188C28.3075 22.2878 27.2103 22.0664 26.9909 21.9188C27.1372 22.0664 27.3566 22.0664 27.5761 22.1402C27.7224 22.1402 28.015 22.214 27.7955 22.3616C27.5761 22.583 26.9909 22.214 26.6983 22.0664C26.8446 22.214 26.9909 22.2878 27.2103 22.3616C27.4298 22.5092 27.2835 22.583 26.9909 22.5092C26.9178 22.5092 26.6983 22.3616 26.6252 22.3616C26.1863 22.0664 25.9669 21.845 25.7474 21.4022C25.6743 21.2546 25.3085 21.0332 25.3817 20.8856C25.6011 20.6642 26.04 20.5166 26.1863 20.369Z" fill="#F88667"/>
<path d="M26.5521 20.1476L25.6012 21.4022C25.6012 21.4022 19.5301 18.7454 19.0181 18.0812C18.506 17.3432 16.6774 14.8339 16.3848 14.0959C15.7265 12.5461 14.9219 10.6273 16.3848 10.2583C17.1894 10.1107 17.7014 10.2583 18.2135 11.4391C18.8718 13.0627 20.3347 15.5719 20.8467 16.31C21.0662 16.7528 26.5521 20.1476 26.5521 20.1476Z" fill="#FFD722"/>
<path d="M30.8677 12.2509C30.9408 12.3985 30.7214 12.9889 30.5019 13.2103C30.3556 13.4317 30.1362 13.3579 29.9168 13.2841C29.6973 13.1365 29.4779 13.1365 29.4779 12.9889C29.4047 12.5461 29.8436 12.9151 29.9899 12.9151C29.9899 12.9151 29.4779 12.6937 29.4779 12.4723C29.4779 12.1033 30.0631 12.5461 30.2825 12.6199C30.1362 12.5461 29.8436 12.3985 29.8436 12.3247C29.6973 12.2509 29.7705 12.1033 29.8436 12.1033C29.9899 11.9557 30.5019 12.3247 30.5019 12.3247C30.4288 12.2509 30.0631 12.1033 30.2094 11.9557C30.2825 11.8081 30.4288 11.9557 30.5751 11.9557C30.6482 12.0295 30.7945 12.1771 30.8677 12.2509Z" fill="#F88667"/>
<path d="M29.6974 12.2509C29.7706 12.2509 29.8437 12.2509 29.8437 12.1771C29.8437 12.0295 30.4289 11.9557 30.5752 11.9557C30.9409 11.7343 30.7946 11.5129 30.6483 11.5867C30.502 11.6605 30.2826 11.7343 30.1363 11.7343C30.0631 11.8081 29.8437 11.7343 29.7706 11.8081C29.6974 11.8081 29.4048 12.1033 29.2585 12.1771C29.0391 12.2509 29.478 12.3247 29.6974 12.2509Z" fill="#F88667"/>
<path d="M72.1222 16.7528C72.2685 17.1218 71.0982 17.8598 69.5621 18.3764C68.0261 18.9668 66.7094 19.1144 66.5631 18.7454C66.4168 18.3764 67.5872 17.6384 69.1233 17.1218C70.6593 16.6052 72.0491 16.3838 72.1222 16.7528Z" fill="#D0D1DE"/>
<path d="M69.3425 9.81555C69.4888 10.1846 68.3916 10.9226 66.9287 11.5868C65.4658 12.251 64.1491 12.4724 64.0028 12.1772C63.8565 11.8082 64.9537 11.0702 66.4167 10.406C67.8796 9.74175 69.1962 9.52034 69.3425 9.81555Z" fill="#D0D1DE"/>
<path d="M71.3909 35.2029C71.3177 35.5719 69.9279 35.4243 68.3919 34.9815C66.8558 34.4649 65.6855 33.8007 65.7586 33.4317C65.8318 33.0627 67.2215 33.2103 68.7576 33.6531C70.3668 34.1697 71.5372 34.9077 71.3909 35.2029Z" fill="#D0D1DE"/>
<path d="M68.6114 42.7306C68.4651 43.0996 67.1484 42.8782 65.6124 42.214C64.0763 41.6236 62.9791 40.8118 63.1254 40.5166C63.2717 40.1476 64.5883 40.369 66.1244 41.0332C67.6605 41.6236 68.7577 42.3616 68.6114 42.7306Z" fill="#D0D1DE"/>
<path d="M73.0001 26.0517C73.0001 26.4207 71.6834 26.6421 70.0011 26.5683C68.3918 26.4945 67.0752 26.1255 67.0752 25.7565C67.0752 25.3874 68.3918 25.166 70.0742 25.2398C71.6834 25.3874 73.0001 25.6826 73.0001 26.0517Z" fill="#D0D1DE"/>
</svg>
