<svg width="22" height="22" viewBox="0 0 22 22" fill="none" xmlns="http://www.w3.org/2000/svg">
<path d="M11.708 7C11.708 6.72386 11.4841 6.5 11.208 6.5C10.9319 6.5 10.708 6.72386 10.708 7H11.708ZM15.5631 12.152C15.7575 11.9558 15.7561 11.6393 15.56 11.4449C15.3638 11.2505 15.0473 11.2519 14.8529 11.448L15.5631 12.152ZM13.8102 13.2104L14.1653 13.5623L13.8102 13.2104ZM8.60585 13.2104L8.25073 13.5623L8.60585 13.2104ZM7.56314 11.448C7.36875 11.2519 7.05217 11.2505 6.85604 11.4449C6.6599 11.6393 6.65849 11.9558 6.85288 12.152L7.56314 11.448ZM11.4587 14.9841L11.5219 15.4801H11.5219L11.4587 14.9841ZM10.9573 14.9841L10.8941 15.4801L10.9573 14.9841ZM20.708 11C20.708 16.2467 16.4547 20.5 11.208 20.5V21.5C17.007 21.5 21.708 16.799 21.708 11H20.708ZM11.208 20.5C5.9613 20.5 1.70801 16.2467 1.70801 11H0.708008C0.708008 16.799 5.40902 21.5 11.208 21.5V20.5ZM1.70801 11C1.70801 5.75329 5.9613 1.5 11.208 1.5V0.5C5.40902 0.5 0.708008 5.20101 0.708008 11H1.70801ZM11.208 1.5C16.4547 1.5 20.708 5.75329 20.708 11H21.708C21.708 5.20101 17.007 0.5 11.208 0.5V1.5ZM10.708 7V14.2H11.708V7H10.708ZM14.8529 11.448L13.455 12.8584L14.1653 13.5623L15.5631 12.152L14.8529 11.448ZM8.96098 12.8584L7.56314 11.448L6.85288 12.152L8.25073 13.5623L8.96098 12.8584ZM13.455 12.8584C12.8894 13.4291 12.4943 13.8266 12.1581 14.0967C11.8297 14.3604 11.6061 14.4613 11.3955 14.4881L11.5219 15.4801C11.9906 15.4203 12.3854 15.1967 12.7842 14.8764C13.1752 14.5624 13.6162 14.1164 14.1653 13.5623L13.455 12.8584ZM8.25073 13.5623C8.79983 14.1164 9.24086 14.5624 9.63179 14.8764C10.0306 15.1967 10.4254 15.4203 10.8941 15.4801L11.0206 14.4881C10.8099 14.4613 10.5864 14.3604 10.258 14.0967C9.92167 13.8266 9.52664 13.4291 8.96098 12.8584L8.25073 13.5623ZM11.3955 14.4881C11.3332 14.496 11.2706 14.5 11.208 14.5V15.5C11.3128 15.5 11.4177 15.4934 11.5219 15.4801L11.3955 14.4881ZM11.208 14.5C11.1454 14.5 11.0828 14.496 11.0206 14.4881L10.8941 15.4801C10.9983 15.4934 11.1032 15.5 11.208 15.5V14.5ZM10.708 14.2V15H11.708V14.2H10.708Z" fill="#AFAFAF"/>
</svg>
