<svg width="106" height="73" viewBox="0 0 106 73" fill="none" xmlns="http://www.w3.org/2000/svg">
<path d="M0 54.2267C0.00131923 53.5461 0.269306 52.8938 0.745285 52.4126C1.22126 51.9313 1.86645 51.6604 2.53959 51.6591C3.04187 51.6591 3.53287 51.8096 3.95051 52.0918C4.36814 52.3739 4.69364 52.7749 4.88586 53.2441C5.07807 53.7133 5.12837 54.2295 5.03038 54.7276C4.93239 55.2257 4.69051 55.6832 4.33535 56.0423C3.98018 56.4014 3.52767 56.6459 3.03504 56.745C2.5424 56.844 2.03178 56.7932 1.56773 56.5989C1.10368 56.4045 0.707051 56.0754 0.427998 55.6532C0.148944 55.2309 0 54.7345 0 54.2267H0ZM0.308245 58.4535H4.74223V72.6618H0.308245V58.4535Z" fill="url(#paint0_linear_2_1865)"/>
<path d="M22.8763 61.0678C22.8763 65.9684 20.0297 68.1209 14.8756 68.1209H12.2849V72.6631H7.79224V54.2267H15.1003C20.1582 54.2267 22.8763 56.6126 22.8763 61.0678ZM18.2089 61.2242C18.2089 59.2055 17.2854 58.1645 14.8756 58.1645H12.2849V64.2575H14.7471C17.2343 64.2612 18.2089 63.0424 18.2089 61.228V61.2242Z" fill="url(#paint1_linear_2_1865)"/>
<path d="M24.7756 58.4535H29.0062V60.1126C30.0582 58.8686 31.4946 58.0939 33.2642 58.0939C33.4703 58.0964 33.6758 58.1137 33.8795 58.1456V62.9402C33.3902 62.8333 32.8922 62.7725 32.3919 62.7585C30.5449 62.7585 29.1859 63.7174 29.1859 66.1298V72.6631H24.7756V58.4535Z" fill="url(#paint2_linear_2_1865)"/>
<path d="M34.9827 65.5583C34.9827 60.9946 38.0601 58.0901 42.7786 58.0901C47.4722 58.0901 50.5497 60.9921 50.5497 65.5583C50.5497 70.1472 47.4722 73.0025 42.7786 73.0025C38.0626 73 34.9827 70.1523 34.9827 65.5583ZM45.9846 65.5583C45.9846 63.484 44.703 62.1087 42.7786 62.1087C40.8306 62.1087 39.5477 63.484 39.5477 65.5583C39.5477 67.6578 40.8306 68.9801 42.7786 68.9801C44.703 68.9801 45.9846 67.6578 45.9846 65.5583Z" fill="url(#paint3_linear_2_1865)"/>
<path d="M72.2728 54.2002V72.6619H67.8888V63.8209L63.3749 69.6022H61.81L57.2961 63.8726V72.6619H52.9133V54.2002H55.247L62.6099 63.6909L69.9442 54.2002H72.2728Z" fill="#1A1A1A"/>
<path d="M74.6089 65.5583C74.6089 60.9946 77.2296 58.0636 81.0982 58.0636C82.4573 58.0636 83.996 58.4535 85.0218 59.4641V58.4547H89.3822V72.6618H85.1229V71.4695C84.1245 72.6883 82.5022 73 81.2767 73C77.1984 73 74.6089 70.069 74.6089 65.5583ZM85.1229 67.5026V63.5092C84.61 62.5503 83.4818 62.0052 82.3025 62.0052C80.4818 62.0052 79.1727 63.2241 79.1727 65.5318C79.1727 67.736 80.3782 69.0836 82.4049 69.0836C83.533 69.0836 84.5588 68.6167 85.1229 67.5026Z" fill="#1A1A1A"/>
<path d="M92.3311 58.4535H96.5616V59.5676C97.7718 58.6154 99.26 58.0958 100.793 58.0901C104.512 58.0901 106 59.8275 106 64.0543V72.6618H101.563V65.3501C101.563 62.9124 100.896 62.0317 99.2035 62.0317C98.734 62.0333 98.2704 62.1385 97.8451 62.3398C97.4199 62.5412 97.0432 62.8339 96.7413 63.1976V72.6606H92.3311V58.4535Z" fill="#1A1A1A"/>
<path d="M52.7785 35.8331C50.033 38.0058 48.8125 40.9659 48.8125 40.9659C48.8125 40.9659 54.0801 42.4913 58.5091 40.5672C60.718 39.6082 62.3004 37.973 63.3325 36.5738C59.6997 36.8905 56.0756 36.5145 52.7785 35.8331Z" fill="url(#paint4_linear_2_1865)"/>
<path d="M39.8573 32.4378C39.7416 32.3898 39.6189 32.3612 39.4941 32.3532C39.3362 32.3161 39.1745 32.2975 39.0124 32.2977H16.6852C16.3965 32.2804 16.1074 32.3229 15.8355 32.4226C15.5637 32.5224 15.3148 32.6773 15.1043 32.8778C14.8939 33.0783 14.7261 33.3203 14.6115 33.5887C14.4969 33.8572 14.4377 34.1465 14.4377 34.4389C14.4377 34.7313 14.4969 35.0206 14.6115 35.2891C14.7261 35.5575 14.8939 35.7994 15.1043 36C15.3148 36.2005 15.5637 36.3554 15.8355 36.4552C16.1074 36.5549 16.3965 36.5974 16.6852 36.5801H33.2431C31.3075 38.7326 30.4726 40.7097 30.4726 40.7097C30.4726 40.7097 37.6134 42.7726 43.6174 40.1697C46.3903 38.966 48.4345 36.975 49.8334 35.1808C45.7114 34.1664 42.03 33.3525 39.8573 32.4378Z" fill="url(#paint5_linear_2_1865)"/>
<path d="M90.2819 18.4289C85.3025 12.9707 76.804 18.8327 76.457 19.0762L76.3959 19.1002C75.8693 19.3285 73.1899 27.7821 61.4878 32.1149C59.6034 32.8126 57.5942 32.9464 55.6649 32.9981C57.0124 32.9209 58.3496 32.7138 59.6583 32.3799C59.9931 32.3325 60.3198 32.2386 60.6292 32.101C70.4818 28.9846 75.4462 18.463 75.4462 18.463C75.4462 18.463 69.778 15.484 62.8868 14.8204V13.4703C62.8871 12.9625 62.7865 12.4599 62.591 11.9921C62.3955 11.5244 62.109 11.1012 61.7487 10.7475C62.7016 9.94661 63.3865 8.86747 63.7094 7.65784C64.0323 6.44822 63.9774 5.16725 63.5524 3.99035C63.1273 2.81345 62.3529 1.79816 61.335 1.0835C60.3172 0.368848 59.1057 -0.0102274 57.8665 -0.00181612C56.6273 0.0065952 55.421 0.402082 54.4127 1.13049C53.4044 1.8589 52.6435 2.88461 52.2341 4.06717C51.8247 5.24974 51.7869 6.53133 52.1258 7.73647C52.4648 8.9416 53.1639 10.0113 54.1274 10.7992C53.4292 11.5089 53.0375 12.4693 53.0379 13.4703V15.8777L52.9269 15.9168H30.9404C30.3984 15.9466 29.8884 16.1852 29.5151 16.5836C29.1419 16.982 28.9339 17.5099 28.9339 18.0586C28.9339 18.6073 29.1419 19.1352 29.5151 19.5336C29.8884 19.932 30.3984 20.1706 30.9404 20.2004H45.5564C44.1582 21.3698 42.8702 22.6678 41.709 24.0777H23.7846C23.4968 24.0619 23.2087 24.1056 22.9381 24.2061C22.6675 24.3066 22.42 24.4618 22.2107 24.6622C22.0014 24.8626 21.8347 25.1041 21.7208 25.3718C21.6069 25.6396 21.5481 25.928 21.5481 26.2195C21.5481 26.5109 21.6069 26.7994 21.7208 27.0671C21.8347 27.3348 22.0014 27.5763 22.2107 27.7767C22.42 27.9772 22.6675 28.1324 22.9381 28.2329C23.2087 28.3334 23.4968 28.3771 23.7846 28.3613H39.2243C39.8233 28.9606 41.4906 30.4633 43.8031 31.2279C49.2941 33.4448 58.7049 36.2483 67.4531 34.0353C65.2379 39.2399 67.0949 44.9177 67.0949 44.9177C67.0949 44.9177 74.4978 42.697 77.7137 37.1959C79.7604 33.6883 79.6194 29.7063 79.245 27.2711C81.5157 26.4637 83.7125 25.4576 85.8105 24.2644C93.0873 20.1751 91.7383 20.0263 90.2819 18.4289ZM57.905 2.77588C58.5504 2.77563 59.1815 2.96892 59.7183 3.33132C60.2552 3.69371 60.6736 4.20893 60.9208 4.81179C61.168 5.41466 61.2328 6.07811 61.1071 6.71822C60.9813 7.35833 60.6706 7.94635 60.2142 8.40791C59.7579 8.86946 59.1764 9.18383 58.5433 9.31124C57.9102 9.43865 57.254 9.37339 56.6576 9.1237C56.0613 8.87401 55.5515 8.45111 55.1929 7.9085C54.8342 7.36588 54.6428 6.72792 54.6428 6.0753C54.6438 5.20077 54.9878 4.36232 55.5993 3.74381C56.2108 3.1253 57.04 2.77721 57.905 2.77588ZM55.2181 14.592C55.2181 13.8474 55.5107 13.1334 56.0314 12.6069C56.5521 12.0804 57.2584 11.7846 57.9948 11.7846C58.36 11.7841 58.7216 11.8565 59.0591 11.9975C59.3966 12.1385 59.7033 12.3454 59.9615 12.6064C60.2198 12.8674 60.4246 13.1774 60.5642 13.5185C60.7039 13.8597 60.7756 14.2253 60.7752 14.5945V27.2535C60.7752 27.998 60.4827 28.7121 59.962 29.2386C59.4412 29.765 58.735 30.0608 57.9986 30.0608C57.4328 30.0604 56.8808 29.8842 56.4174 29.5561C56.2065 29.4695 56.0306 29.3134 55.9182 29.1133C55.4666 28.6013 55.217 27.9394 55.2169 27.2535L55.2181 14.592ZM84.8932 19.1166C84.8413 19.4938 84.6489 19.8368 84.3554 20.0755C84.0221 20.3404 83.6777 20.377 83.2721 20.377C82.4635 20.377 81.9655 19.4433 82.0242 18.7368C82.0755 18.3593 82.268 18.0161 82.562 17.7779C82.894 17.5116 83.2397 17.475 83.6453 17.475C84.4527 17.4801 84.9506 18.4138 84.892 19.1191L84.8932 19.1166Z" fill="url(#paint6_linear_2_1865)"/>
<defs>
<linearGradient id="paint0_linear_2_1865" x1="-4.86577" y1="59.3708" x2="33.3035" y2="75.3064" gradientUnits="userSpaceOnUse">
<stop stop-color="#00DA5D"/>
<stop offset="1" stop-color="#008049"/>
</linearGradient>
<linearGradient id="paint1_linear_2_1865" x1="-434.321" y1="8306.93" x2="4406.05" y2="9978.57" gradientUnits="userSpaceOnUse">
<stop stop-color="#00DA5D"/>
<stop offset="1" stop-color="#008049"/>
</linearGradient>
<linearGradient id="paint2_linear_2_1865" x1="-108.869" y1="6074.59" x2="2948.24" y2="6880.95" gradientUnits="userSpaceOnUse">
<stop stop-color="#00DA5D"/>
<stop offset="1" stop-color="#008049"/>
</linearGradient>
<linearGradient id="paint3_linear_2_1865" x1="53.6629" y1="5655.62" x2="4735.73" y2="7718.71" gradientUnits="userSpaceOnUse">
<stop stop-color="#00DA5D"/>
<stop offset="1" stop-color="#008049"/>
</linearGradient>
<linearGradient id="paint4_linear_2_1865" x1="3631.76" y1="461.415" x2="4410.63" y2="2737.66" gradientUnits="userSpaceOnUse">
<stop stop-color="#00DA5D"/>
<stop offset="1" stop-color="#008049"/>
</linearGradient>
<linearGradient id="paint5_linear_2_1865" x1="5391.04" y1="1476.9" x2="6272" y2="5373.38" gradientUnits="userSpaceOnUse">
<stop stop-color="#00DA5D"/>
<stop offset="1" stop-color="#008049"/>
</linearGradient>
<linearGradient id="paint6_linear_2_1865" x1="21646.7" y1="898.391" x2="30176.8" y2="16141.1" gradientUnits="userSpaceOnUse">
<stop stop-color="#00DA5D"/>
<stop offset="1" stop-color="#008049"/>
</linearGradient>
</defs>
</svg>
