<svg width="83" height="60" viewBox="0 0 83 60" fill="none" xmlns="http://www.w3.org/2000/svg">
<path d="M69.987 39.7551H12.2651V48.0815H69.987V39.7551Z" fill="#110239"/>
<path d="M71.8889 45.4693H10.3631C8.37835 45.4693 6.80713 43.9183 6.80713 41.9591V3.5102C6.80713 1.55102 8.37835 0 10.3631 0H71.9716C73.9563 0 75.5276 1.55102 75.5276 3.5102V41.9591C75.4449 43.8367 73.8736 45.4693 71.8889 45.4693Z" fill="#110239"/>
<path d="M72.3025 3.01953H9.94971V41.9584H72.3025V3.01953Z" fill="#FEFEFE"/>
<path d="M0.108887 57.5508V58.7744C0.108887 59.427 0.853151 59.9981 1.76281 59.9981H80.4068C81.3164 59.9981 82.0607 59.427 82.0607 58.7744V57.5508H0.108887Z" fill="#110239"/>
<path d="M41.1267 47.9999H7.46939C7.38669 48.0815 2.09414 52.8161 0.44022 56.2447C-0.221349 57.714 0.192132 58.5303 1.51527 58.5303H41.2094H80.9035C82.2266 58.5303 82.6401 57.714 81.9785 56.2447C80.3246 52.7345 75.0321 48.0815 74.9494 47.9999H41.1267Z" fill="#110239"/>
<path d="M77.9257 56.7342H6.14551L11.1073 49.4689H72.9639L77.9257 56.7342Z" fill="#9C9EB9"/>
<path d="M77.0162 55.5096L76.8508 55.2647H72.0544L71.2275 53.4687H75.6931L75.5277 53.2238H71.0621L70.1524 51.4279H74.2872L74.1218 51.183H70.0697L69.1601 49.3871H68.7466L69.6563 51.183H64.5291L63.7848 49.4687H63.3714L64.1156 51.2646H58.9885L58.4923 49.4687H57.9961L58.4923 51.2646H53.3651L53.0344 49.4687H52.6209L52.9517 51.2646H47.8245L47.6591 49.4687H47.2456L47.411 51.2646H42.532V49.4687H42.0358V51.2646H36.9913L37.1567 49.4687H36.7432L36.5778 51.2646H31.5334L31.8642 49.4687H31.4507L31.1199 51.2646H25.9927L26.4889 49.4687H26.0754L25.5793 51.2646H20.4521L21.1964 49.4687H20.7829L19.9559 51.2646H14.8288L15.7384 49.4687H15.325L14.4153 51.2646H9.86702L9.70163 51.5095H14.2499L13.3403 53.3055H8.46119L8.37849 53.4687H13.2576L12.3479 55.2647H7.13805L6.97266 55.5096H12.2652L11.6036 56.8157H12.0998L12.7614 55.5096H18.302L17.8058 56.8157H18.302L18.7982 55.5096H24.3388L23.9253 56.8157H24.4215L24.835 55.5096H30.3756L30.1275 56.8157H30.6237L30.7064 55.5096H36.2471L36.1644 56.8157H36.6605L36.7432 55.5096H42.1185V56.8157H42.6147V55.5096H47.8245L47.9072 56.8157H48.4034L48.238 55.5096H53.7786L54.0267 56.8157H54.5229L54.2748 55.5096H59.8154L60.2289 56.8157H60.7251L60.2289 55.5096H65.7695L66.2657 56.8157H66.7619L66.183 55.5096H71.7237L72.3852 56.8157H72.8814L72.2198 55.5096H77.0162ZM20.2867 51.5095H25.4139L24.9177 53.2238H19.6252L20.2867 51.5095ZM14.7461 51.5095H19.8732L19.129 53.2238H13.8364L14.7461 51.5095ZM18.3847 55.2647H12.8441L13.7537 53.4687H19.129L18.3847 55.2647ZM24.3388 55.2647H18.7982L19.4598 53.4687H24.835L24.3388 55.2647ZM30.2929 55.2647H24.7523L25.2485 53.4687H30.6237L30.2929 55.2647ZM30.7064 53.2238H25.4139L25.9101 51.4279H31.0372L30.7064 53.2238ZM36.2471 55.2647H30.7064L31.0372 53.4687H36.4125L36.2471 55.2647ZM36.4125 53.2238H31.1199L31.4507 51.4279H36.5778L36.4125 53.2238ZM42.1185 55.2647H36.7432L36.9086 53.4687H42.1185V55.2647ZM42.1185 53.2238H36.9086L37.074 51.4279H42.1185V53.2238ZM42.532 51.5095H47.411L47.5764 53.3055H42.532V51.5095ZM42.532 55.2647V53.4687H47.5764L47.7418 55.2647H42.532ZM69.7389 51.5095L70.6486 53.3055H65.3561L64.6118 51.5095H69.7389ZM64.1983 51.5095L64.8599 53.3055H59.5673L59.0712 51.5095H64.1983ZM47.9072 51.5095H53.0344L53.3651 53.3055H48.0726L47.9072 51.5095ZM48.238 55.2647L48.0726 53.4687H53.4478L53.7786 55.2647H48.238ZM53.4478 51.5095H58.575L59.0712 53.3055H53.7786L53.4478 51.5095ZM54.1921 55.2647L53.8613 53.4687H59.2366L59.7327 55.2647H54.1921ZM60.1462 55.2647L59.65 53.4687H65.0253L65.6868 55.2647H60.1462ZM66.1003 55.2647L65.4388 53.4687H70.814L71.7237 55.2647H66.1003Z" fill="#D0D1DE"/>
<path d="M41.1261 58.5304H37.6528C37.6528 58.5304 37.6528 58.8561 37.8182 59.0189C37.9009 59.1004 37.9836 59.1004 38.0663 59.1004H41.1261H44.1858C44.2685 59.1004 44.3512 59.1004 44.4339 59.0189C44.5993 58.8561 44.5993 58.5304 44.5993 58.5304H41.1261Z" fill="#110239"/>
<path d="M65.6869 38.4487H16.5654V8.81616H65.7696V38.4487H65.6869ZM17.4751 37.4691H64.7772V9.71412H17.4751V37.4691Z" fill="#D0D1DE"/>
<path d="M58.5751 16.2448H54.0269V35.5916H58.5751V16.2448Z" fill="#01DB5E"/>
<path d="M50.0571 26.6936H45.5088V35.5914H50.0571V26.6936Z" fill="#D0D1DE"/>
<path d="M41.6225 24.5713H37.0742V35.5916H41.6225V24.5713Z" fill="#FFD722"/>
<path d="M33.1044 18.2856H28.5562V35.5919H33.1044V18.2856Z" fill="#D0D1DE"/>
<path d="M24.6694 22.0406H20.1211V35.51H24.6694V22.0406Z" fill="#D0D1DE"/>
<path d="M47.9073 23.2634L39.2242 21.5491L30.8719 13.6307L22.5196 20.8961L22.2715 20.5695L30.8719 12.9777L39.4723 21.141L47.7419 22.692L56.0942 11.1001L56.5077 11.345L47.9073 23.2634Z" fill="#110239"/>
<path d="M23.4295 20.7339C23.4295 21.3049 22.9334 21.7128 22.4372 21.7128C21.8583 21.7128 21.4448 21.2234 21.4448 20.7339C21.4448 20.2444 21.941 19.7549 22.4372 19.7549C22.9334 19.6733 23.4295 20.1628 23.4295 20.7339Z" fill="#01DB5E"/>
<path d="M30.7892 14.2831C31.3373 14.2831 31.7816 13.8448 31.7816 13.3042C31.7816 12.7636 31.3373 12.3253 30.7892 12.3253C30.2412 12.3253 29.7969 12.7636 29.7969 13.3042C29.7969 13.8448 30.2412 14.2831 30.7892 14.2831Z" fill="#01DB5E"/>
<path d="M40.3822 21.3052C40.3822 21.8762 39.886 22.284 39.3898 22.284C38.8109 22.284 38.3975 21.7946 38.3975 21.3052C38.3975 20.7342 38.8936 20.3263 39.3898 20.3263C39.886 20.3263 40.3822 20.7342 40.3822 21.3052Z" fill="#01DB5E"/>
<path d="M48.8167 22.7746C48.8167 23.3456 48.3206 23.7535 47.8244 23.7535C47.2455 23.7535 46.832 23.264 46.832 22.7746C46.832 22.2852 47.3282 21.7958 47.8244 21.7958C48.4033 21.7142 48.8167 22.2036 48.8167 22.7746Z" fill="#01DB5E"/>
<path d="M57.3348 11.4265C57.3348 11.9975 56.8386 12.4053 56.3425 12.4053C55.7636 12.4053 55.3501 11.9159 55.3501 11.4265C55.3501 10.9371 55.8463 10.4476 56.3425 10.4476C56.8386 10.3661 57.3348 10.8555 57.3348 11.4265Z" fill="#01DB5E"/>
<path d="M30.624 18.9387C30.9548 18.8571 31.2855 18.6939 31.5336 18.4491C31.6163 18.3675 31.7817 18.2042 31.8644 18.1226C32.0298 18.041 32.1952 17.9594 32.2779 17.7962C32.4433 17.7146 32.526 17.5514 32.7741 17.5514C33.0222 17.5514 32.8568 17.7962 32.7741 17.9594C32.6914 18.1226 32.0298 18.3675 32.1125 18.6123C32.1125 18.8571 32.8568 18.5307 33.0222 18.4491C33.3529 18.2858 33.3529 18.041 33.601 17.7146C33.6837 17.5514 33.8491 17.5514 33.8491 17.7146C33.9318 17.8778 33.7664 18.041 33.6837 18.2042C33.5183 18.4491 33.2703 18.7755 33.0222 18.8571C33.2703 18.7755 33.601 18.4491 33.7664 18.2858C33.8491 18.1226 34.2626 17.4698 34.5107 17.633C35.0069 17.9594 33.6837 19.1019 33.4356 19.1835C33.7664 19.1019 33.9318 18.8571 34.1799 18.6123C34.3453 18.5307 34.5934 18.2042 34.6761 18.5307C34.7588 19.0203 33.8491 19.3467 33.4356 19.5915C33.7664 19.5099 33.9318 19.3467 34.2626 19.2651C34.5934 19.1019 34.5934 19.4283 34.2626 19.6731C34.0972 19.7548 33.8491 19.918 33.7664 19.9996C33.0222 20.326 32.6087 20.326 31.8644 20.2444C31.6163 20.2444 31.0375 20.4076 30.8721 20.2444C30.4586 19.9996 30.624 19.3467 30.624 18.9387Z" fill="#F88667"/>
<path d="M30.8722 18.8573L31.4511 20.6533C31.4511 20.6533 25.0008 22.2859 23.3469 22.5308C21.7756 22.8574 18.3024 18.939 18.3024 18.939C18.3024 18.939 17.1447 16.0818 17.9716 16.1635C18.6332 16.1635 23.595 19.9186 23.9257 20.0818C24.1738 20.1635 30.8722 18.8573 30.8722 18.8573Z" fill="#01DB5E"/>
<path d="M13.8366 51.1837C13.8366 51.1837 13.7539 52.4082 14.002 52.9796C14.2501 53.5511 15.7386 54.449 15.7386 54.449C15.7386 54.449 14.4154 54.6939 13.8366 54.2857C13.3404 53.8776 12.1 51.8368 12.1827 51.5103C12.2653 51.2654 12.5961 50.3674 12.5961 50.3674L13.8366 51.1837Z" fill="#F88667"/>
<path d="M21.9406 50.4492C21.9406 50.4492 21.8579 51.6737 22.106 52.2451C22.3541 52.8166 23.8426 53.7145 23.8426 53.7145C23.8426 53.7145 22.5195 53.9594 21.9406 53.5512C21.4444 53.1431 20.204 51.1023 20.2867 50.7758C20.3694 50.5309 20.7001 49.6329 20.7001 49.6329L21.9406 50.4492Z" fill="#F88667"/>
<path d="M12.5134 51.184C12.5134 51.184 11.3556 51.592 11.6864 52.5714C11.9345 53.5507 11.9345 54.7749 11.9345 54.7749H12.2653C12.2653 54.7749 12.348 53.3875 12.5134 53.3875C12.7614 53.4691 13.1749 54.7749 13.6711 54.7749C14.1673 54.7749 16.3174 54.7749 16.3174 54.7749C16.3174 54.7749 16.5655 54.5301 16.3174 54.3668C16.0693 54.2036 14.25 54.2852 14.0019 53.8772C13.8365 53.4691 12.5134 51.184 12.5134 51.184Z" fill="#110239"/>
<path d="M20.6178 50.4491C20.6178 50.4491 19.4601 50.8571 19.7909 51.8364C20.039 52.8158 20.039 54.0399 20.039 54.0399H20.3698C20.3698 54.0399 20.4525 52.6525 20.6178 52.6525C20.8659 52.7341 21.2794 54.0399 21.7756 54.0399C22.2718 54.0399 24.4219 54.0399 24.4219 54.0399C24.4219 54.0399 24.67 53.7951 24.4219 53.6318C24.1738 53.4686 22.3545 53.5502 22.1064 53.1422C21.941 52.6525 20.6178 50.4491 20.6178 50.4491Z" fill="#110239"/>
<path d="M19.8731 26.041C19.8731 26.041 16.6479 27.1839 14.4151 26.041C14.4151 26.041 13.0093 27.1839 12.7612 29.5512C12.6785 30.2859 12.7612 31.1839 12.8439 32.2451C13.0093 33.5512 13.4228 36.9798 13.1747 39.1022C12.8439 42.2042 11.8516 51.2654 11.8516 51.2654L14.0844 51.592C14.0844 51.592 16.0691 40.6532 16.3171 39.3471C16.5652 38.041 17.3095 32.49 17.3095 32.49C17.3095 32.49 18.7153 36.7349 19.0461 38.7757C19.1288 39.1022 20.0385 50.694 20.0385 50.694H22.1886C22.1886 50.694 22.1059 37.7961 22.1059 38.5308C22.0232 38.7757 21.4443 29.7961 19.8731 26.041Z" fill="#FFD722"/>
<path d="M18.7981 34.2043C18.302 32.7349 18.0539 32.0819 17.0615 30.7758C17.1442 31.3472 17.2269 31.9186 17.3096 32.5717C17.3096 32.5717 18.4674 36.1635 18.9635 38.3675C18.8808 35.9186 19.1289 35.2655 18.7981 34.2043Z" fill="#DDB922"/>
<path d="M17.64 13.142C17.3919 13.0604 16.3995 10.9379 15.9033 10.4481C15.6553 11.9175 14.7456 15.5094 14.7456 15.5094C15.8207 16.6522 18.0534 15.9992 18.0534 15.9992C17.7227 15.2645 17.5573 13.6318 17.64 13.142Z" fill="#E45940"/>
<path d="M17.1441 7.91817C17.1441 7.91817 19.2942 8.40797 19.7076 9.06103C20.1211 9.71409 20.1211 11.3467 20.3692 11.7549C20.5346 11.9998 20.6173 12.2447 20.7 12.408C20.7827 12.5712 20.6173 12.6529 20.4519 12.6529C20.3692 12.6529 20.2865 12.7345 20.2865 12.8978C20.1211 13.3059 19.7903 14.2855 19.4596 14.4488C19.0461 14.6121 16.8133 14.5304 16.1517 12.6529C15.4075 10.6937 15.8209 7.51001 17.1441 7.91817Z" fill="#F88667"/>
<path d="M15.0768 14.7756C15.0768 14.7756 16.648 15.4287 18.0538 15.9185C18.0538 15.9185 19.7904 19.3471 19.9558 20.245C20.0385 21.2246 20.9482 27.6736 20.9482 27.6736C20.9482 27.6736 17.4749 29.8777 12.5132 28.1634C12.5132 28.1634 13.7536 23.0206 13.4228 21.0614C13.0921 19.0205 13.3401 16.3267 15.0768 14.7756Z" fill="#01DB5E"/>
<path d="M14.4979 28.6533C14.4152 26.4492 14.9114 24.49 14.9941 22.3675C14.9941 20.6532 14.3325 19.592 13.4228 18.5308C13.3401 19.4287 13.3401 20.2451 13.4228 21.0614C13.6709 23.1022 12.5132 28.1635 12.5132 28.1635C13.1748 28.4084 13.8363 28.5716 14.4979 28.6533Z" fill="#00BA4B"/>
<path d="M12.5134 20.8163C13.7538 19.8367 13.2576 18.7755 14.4981 17.8776C14.5808 17.7959 14.6634 17.7143 14.7461 17.6327C14.8288 17.1429 13.5057 17.3878 13.9192 16.8163C14.4154 16.0816 16.4828 14.9388 16.4001 14.2041C16.4001 13.7143 16.3174 14.0408 16.4828 13.551C16.5655 12.9796 16.8135 12.898 16.4001 12.4898C16.0693 12.2449 15.8212 11.9184 16.0693 11.4286C16.2347 11.1021 16.5655 10.9388 16.8962 11.2653C16.9789 11.347 17.3097 12.0817 17.3924 11.6735C17.3924 11.5919 17.227 11.347 17.227 11.1837C17.227 11.0205 17.227 10.8572 17.3924 10.6939C17.6405 10.449 17.9713 10.3674 18.1367 10.1225C18.3848 9.79597 18.4675 9.46944 18.8809 9.30617C19.0463 9.22454 19.2944 9.22454 19.5425 9.30617C19.6252 9.30617 20.0387 9.6327 20.1214 9.55107C20.783 9.30617 20.5349 8.24496 20.0387 7.91843C19.2117 7.347 18.1367 6.93884 17.0616 6.93884C15.8212 6.93884 14.6634 7.91843 13.9192 8.89801C13.423 9.55107 13.423 10.2858 13.0095 11.0205C12.6787 11.6735 11.9345 12 11.4383 12.6531C11.0248 13.2245 11.0248 13.9592 11.1902 14.6123C11.3556 15.1021 11.4383 15.5919 11.3556 16.1633C11.2729 16.8163 10.694 17.3061 10.5286 17.9592C10.3633 18.5306 10.2806 18.9388 10.5286 19.7551C10.7767 20.9796 11.4383 21.3061 12.5134 20.8163Z" fill="#110239"/>
<path d="M10.6109 31.592C10.6109 31.9185 10.6936 32.2451 10.859 32.49C10.9417 32.6532 11.0244 32.7349 11.0244 32.8981C11.0244 33.0614 11.1071 33.2247 11.1898 33.388C11.2725 33.5512 11.3552 33.7145 11.3552 33.8778C11.3552 34.1227 11.1071 33.9594 11.0244 33.7961C10.859 33.6329 10.7763 33.0614 10.6109 33.0614C10.3628 33.0614 10.5282 33.7961 10.6109 33.8778C10.6936 34.2043 10.9417 34.2859 11.1898 34.5308C11.2725 34.6941 11.3552 34.7757 11.1071 34.7757C10.9417 34.7757 10.7763 34.6125 10.6936 34.5308C10.4455 34.2859 10.2801 34.041 10.1974 33.7145C10.1974 33.9594 10.4455 34.2859 10.6109 34.4492C10.6936 34.6125 11.2725 35.1023 11.0244 35.2655C10.6109 35.5921 9.78393 34.2043 9.78393 33.9594C9.86663 34.2859 9.94932 34.5308 10.1147 34.7757C10.1974 34.939 10.4455 35.2655 10.1147 35.2655C9.61854 35.2655 9.53584 34.2859 9.37045 33.8778C9.37045 34.2043 9.45314 34.3676 9.53584 34.6941C9.61854 35.0206 9.28775 35.0206 9.20505 34.6125C9.12236 34.4492 9.03966 34.1227 9.03966 34.041C8.87427 33.3063 8.95696 32.8981 9.20505 32.2451C9.28775 32.0002 9.20505 31.4287 9.37045 31.3471C9.70123 31.1838 10.1974 31.5104 10.6109 31.592Z" fill="#F88667"/>
<path d="M10.8592 31.5921L8.87451 31.6737C8.87451 31.6737 8.87451 25.8778 9.37069 23.8369C9.86686 21.8778 13.6709 16.49 14.5805 16.1635C15.6556 15.6737 18.7154 16.9798 16.3999 18.6941C14.1671 20.4084 12.017 24.5716 11.9343 24.7349C11.8516 24.8982 10.8592 31.5921 10.8592 31.5921Z" fill="#01DB5E"/>
</svg>
