<svg width="72" height="61" viewBox="0 0 72 61" fill="none" xmlns="http://www.w3.org/2000/svg">
<path d="M44.1661 59.4863H33.0479L33.968 46.2419H43.2459L44.1661 59.4863Z" fill="#110239"/>
<path d="M45.6234 57.3672C45.47 57.1401 45.24 57.0645 45.0099 57.0645H38.7991H38.339H32.1281C31.8981 57.0645 31.6681 57.2158 31.5147 57.3672L29.9045 59.8647C29.5978 60.3188 29.9045 60.9999 30.5179 60.9999H38.339H38.8758H46.6968C47.3103 60.9999 47.617 60.3945 47.3103 59.8647L45.6234 57.3672Z" fill="#110239"/>
<path d="M65.866 49.7233H11.2717C9.50812 49.7233 8.12793 48.361 8.12793 46.6203V12.5632C8.12793 10.8225 9.50812 9.46027 11.2717 9.46027H65.866C67.6295 9.46027 69.0097 10.8225 69.0097 12.5632V46.6203C69.0097 48.361 67.6295 49.7233 65.866 49.7233Z" fill="#110239"/>
<path d="M66.2492 12.1848H10.9648V46.696H66.2492V12.1848Z" fill="#FEFEFE"/>
<path d="M64.8692 15.8932H12.3452V46.6203H64.8692V15.8932Z" fill="#E5E6ED"/>
<path d="M64.8692 15.8932H12.3452V18.4665H64.8692V15.8932Z" fill="#FFEC9C"/>
<path d="M62.3386 26.7915H46.0063V28.9106H62.3386V26.7915Z" fill="#FEFEFE"/>
<path d="M62.3386 30.4999H46.0063V32.6191H62.3386V30.4999Z" fill="#FEFEFE"/>
<path d="M62.3386 34.2841H46.0063V36.4032H62.3386V34.2841Z" fill="#FEFEFE"/>
<path d="M33.508 21.0397H17.1758V23.1588H33.508V21.0397Z" fill="#FEFEFE"/>
<path d="M33.508 24.7481H17.1758V26.8672H33.508V24.7481Z" fill="#FEFEFE"/>
<path d="M32.7412 25.4293H1.91693C0.84345 25.4293 0 26.2618 0 27.3213V37.0843C0 38.1439 0.84345 38.9764 1.91693 38.9764H21.1629L28.524 45.1067L25.0735 38.9764H32.7412C33.8147 38.9764 34.6581 38.1439 34.6581 37.0843V27.3213C34.6581 26.2618 33.8147 25.4293 32.7412 25.4293Z" fill="#01DB5E"/>
<path d="M32.3577 28.0781H11.5781V29.289H32.3577V28.0781Z" fill="white"/>
<path d="M32.3577 30.5H11.5781V31.7109H32.3577V30.5Z" fill="white"/>
<path d="M32.3577 32.8461H11.5781V34.057H32.3577V32.8461Z" fill="white"/>
<path d="M25.38 35.2679H11.5781V36.4789H25.38V35.2679Z" fill="white"/>
<path d="M9.96809 32.0136C9.96809 34.2084 8.20452 35.9491 5.98087 35.9491C3.75723 35.9491 1.99365 34.2084 1.99365 32.0136C1.99365 29.8188 3.75723 28.0781 5.98087 28.0781C8.20452 28.0781 9.96809 29.8188 9.96809 32.0136Z" fill="#110239"/>
<path d="M5.98073 32.0136C6.61594 32.0136 7.13088 31.5054 7.13088 30.8784C7.13088 30.2514 6.61594 29.7432 5.98073 29.7432C5.34551 29.7432 4.83057 30.2514 4.83057 30.8784C4.83057 31.5054 5.34551 32.0136 5.98073 32.0136Z" fill="white"/>
<path d="M5.98093 32.165C4.83077 32.165 3.91064 33.0732 3.91064 34.1327V35.4193C4.52406 35.7977 5.21416 35.9491 5.90425 35.9491C6.67103 35.9491 7.36112 35.722 7.89786 35.4193V34.1327C7.97454 33.0732 7.05441 32.165 5.98093 32.165Z" fill="white"/>
<path d="M70.083 0H39.2587C38.1852 0 37.3418 0.832506 37.3418 1.89206V11.6551C37.3418 12.7146 38.1852 13.5471 39.2587 13.5471H48.1533L45.7763 19.6774L51.9872 13.5471H70.0063C71.0798 13.5471 71.9233 12.7146 71.9233 11.6551V1.89206C71.9999 0.832506 71.1565 0 70.083 0Z" fill="#D0D1DE"/>
<path d="M69.6995 2.64886H48.9199V3.85978H69.6995V2.64886Z" fill="white"/>
<path d="M69.6995 5.07074H48.9199V6.28166H69.6995V5.07074Z" fill="white"/>
<path d="M69.6995 7.41687H48.9199V8.62779H69.6995V7.41687Z" fill="white"/>
<path d="M62.7218 9.83868H48.9199V11.0496H62.7218V9.83868Z" fill="white"/>
<path d="M47.3099 6.58435C47.3099 8.77914 45.5463 10.5198 43.3227 10.5198C41.099 10.5198 39.3354 8.77914 39.3354 6.58435C39.3354 4.38956 41.099 2.64886 43.3227 2.64886C45.4696 2.64886 47.3099 4.46524 47.3099 6.58435Z" fill="#110239"/>
<path d="M44.396 5.44914C44.396 6.0546 43.8593 6.58438 43.2458 6.58438C42.7091 6.58438 42.1724 6.0546 42.1724 5.44914C42.1724 4.84368 42.7091 4.3139 43.3225 4.3139C43.9359 4.3139 44.396 4.768 44.396 5.44914Z" fill="white"/>
<path d="M43.3227 6.73572C42.1726 6.73572 41.2524 7.64391 41.2524 8.70346V9.99006C41.8659 10.3685 42.556 10.5198 43.2461 10.5198C44.0128 10.5198 44.7029 10.2928 45.2397 9.99006V8.70346C45.3163 7.64391 44.3962 6.73572 43.3227 6.73572Z" fill="white"/>
<path d="M61.4186 44.804H49.227C48.2301 44.804 47.4634 44.0472 47.4634 43.0633V41.6253C47.4634 40.6415 48.2301 39.8846 49.227 39.8846H61.4186C62.4155 39.8846 63.1822 40.6415 63.1822 41.6253V43.0633C63.2589 43.9715 62.4155 44.804 61.4186 44.804Z" fill="#01DB5E"/>
<path d="M53.751 41.701C53.751 41.9281 53.5976 42.1551 53.2909 42.2308C53.5976 42.3065 53.8276 42.5336 53.8276 42.8363C53.8276 43.2147 53.4442 43.5174 52.9075 43.5174H51.6807V41.0956H52.8308C53.3676 41.0956 53.751 41.3226 53.751 41.701ZM53.1375 41.8524C53.1375 41.701 53.0609 41.6254 52.8308 41.6254H52.3708V42.0795H52.8308C52.9842 42.0795 53.1375 42.0038 53.1375 41.8524ZM53.2142 42.7606C53.2142 42.6092 53.0609 42.5336 52.8308 42.5336H52.3708V43.0633H52.8308C53.0609 42.9876 53.2142 42.912 53.2142 42.7606Z" fill="white"/>
<path d="M55.2845 42.9876C55.5912 42.9876 55.7445 42.7606 55.7445 42.4579V41.0199H56.3579V42.4579C56.3579 43.0633 55.8979 43.5174 55.2078 43.5174C54.5177 43.5174 54.0576 43.139 54.0576 42.4579V41.0199H54.671V42.4579C54.7477 42.8363 54.9777 42.9876 55.2845 42.9876Z" fill="white"/>
<path d="M58.1214 42.7606V43.5174H57.508V42.7606L56.5879 41.0956H57.2013L57.8147 42.1551L58.3515 41.0956H58.9649L58.1214 42.7606Z" fill="white"/>
<path d="M40.4858 24.1427C39.6423 24.2941 38.7989 24.2941 38.0321 24.2184C37.7254 24.2184 37.4187 24.1427 37.1886 24.067C37.2653 25.0509 37.2653 27.4727 36.4985 28.4566C36.4985 28.4566 36.7286 29.5918 38.8755 29.6675C41.0225 29.6675 41.2525 28.0782 41.2525 28.0782C41.2525 28.0782 40.4858 25.6563 40.4858 24.1427Z" fill="#F88667"/>
<path d="M36.4219 28.4566V28.5323C36.4219 28.5323 36.4219 28.608 36.4986 28.6836C36.4986 28.7593 36.5752 28.7593 36.5752 28.835C36.6519 28.9107 36.8053 29.0621 36.9586 29.1377C37.0353 29.2134 37.112 29.2134 37.2653 29.2891C37.2653 29.2891 37.2653 29.2891 37.342 29.2891C37.4187 29.3648 37.572 29.3648 37.7254 29.4405C37.8021 28.9107 38.0321 28.3809 38.3388 27.9268C38.9522 27.17 39.7957 26.7159 40.7158 26.5645C40.5625 25.8077 40.3324 24.8238 40.3324 24.067C39.489 24.2184 38.6455 24.2184 37.8787 24.1427C37.572 24.1427 37.2653 24.067 37.0353 23.9913C37.1886 25.0509 37.1886 27.4727 36.4219 28.4566Z" fill="#E45940"/>
<path d="M37.495 18.4666C37.495 18.4666 41.0221 17.407 41.5589 18.3152C42.0956 19.1477 42.0189 20.51 42.249 21.1155C42.479 21.7209 43.3225 22.3264 43.4758 22.5534C43.5525 22.7805 42.8624 23.2346 42.7857 23.4616C42.709 23.613 42.3257 25.5807 41.7122 26.0348C41.0988 26.4889 37.8017 25.3537 37.0349 23.7643C36.1915 22.175 36.5749 18.9207 37.495 18.4666Z" fill="#F88667"/>
<path d="M39.1056 19.072C39.1056 19.072 39.1823 19.9045 38.7222 20.8884C38.4922 21.2668 39.5656 22.402 39.2589 22.9318C39.0289 23.2345 38.7989 23.1588 38.4922 22.5534C38.4155 22.3263 38.1854 22.175 37.9554 22.0993C37.112 21.7209 36.8819 23.0075 37.6487 23.3859C38.1854 23.6886 37.8787 24.9752 37.8787 24.9752C37.2653 25.4293 35.4251 24.8995 35.5784 23.5373C35.7318 22.6291 35.8084 22.3263 35.4251 22.0993C34.8883 21.7209 34.1215 20.6613 35.0417 19.7531C36.3452 18.4665 35.1183 18.0881 36.6519 17.7097C38.1854 17.2556 39.4123 18.1638 39.1056 19.072Z" fill="#110239"/>
<path d="M36.4985 18.3152C36.5752 18.0125 37.1886 17.5584 37.4187 17.407C37.8787 17.1043 38.4155 16.8772 38.9522 16.7259C39.489 16.5745 40.1024 16.5745 40.6391 16.6502C41.0992 16.7259 41.4826 16.9529 42.0193 17.0286C42.4794 17.1043 42.9394 17.0286 43.2461 16.8015C43.3228 17.1043 43.3228 17.7097 43.3228 17.8611C43.2461 18.3152 42.9394 18.6936 42.7094 19.072C42.0193 20.1316 40.0257 20.737 38.7222 20.1316C38.0321 19.8288 37.4953 19.6018 37.112 19.072C36.8819 18.7693 36.7286 18.6179 36.4985 18.3152Z" fill="#110239"/>
<path d="M55.2077 20.5856L58.5815 28.0025C58.5815 28.0025 57.5847 29.1377 57.278 28.835C56.9712 28.608 51.8339 22.5534 51.3738 22.2506C50.8371 21.9479 55.2077 20.5856 55.2077 20.5856Z" fill="#110239"/>
<path d="M46.7729 21.4938C46.7729 21.4938 46.7729 23.6129 48.0765 24.1427C48.0765 24.1427 54.8241 21.3424 56.2043 21.1154C57.5844 20.8127 62.4918 20.8127 62.4918 20.8127L57.5078 12.0335C57.5078 12.0335 55.1308 16.8015 52.9071 18.3151C50.8368 19.7531 46.7729 21.4938 46.7729 21.4938Z" fill="#01DB5E"/>
<path d="M51.1439 22.8561C51.6806 22.629 52.2173 22.402 52.7541 22.2506C51.9106 21.3424 51.5272 20.0558 51.2972 19.2233C50.7605 19.5261 50.2237 19.8288 49.7637 20.0558C50.0704 21.1911 50.5304 22.1749 51.1439 22.8561Z" fill="#110239"/>
<path d="M64.4087 14.2283C65.7889 17.5583 65.3289 20.9641 63.2586 21.7966C61.265 22.6291 58.4279 20.5856 57.0477 17.1799C55.6675 13.8499 56.1276 10.4442 58.1979 9.6117C60.2682 8.7792 63.0286 10.8226 64.4087 14.2283Z" fill="#FFD722"/>
<path d="M64.1789 14.304C65.4057 17.1799 64.9457 20.0559 63.2588 20.737C61.5719 21.4181 59.1949 19.6775 57.968 16.8015C56.7412 13.9256 57.2013 11.0497 58.8882 10.3685C60.5751 9.76306 62.9521 11.5038 64.1789 14.304Z" fill="#110239"/>
<path d="M54.7478 25.8834C54.5944 25.8077 54.5944 25.2023 54.6711 25.0509C54.7478 24.8239 54.9011 24.5211 54.7478 24.2941C54.4411 23.9157 54.0577 24.9752 53.981 25.1266C53.9043 25.4293 53.8276 25.6564 53.9043 25.8834C53.981 26.0348 54.2877 26.6402 54.5177 26.8673C54.5177 26.943 54.4411 27.0943 54.4411 27.2457C54.7478 27.3971 54.9778 27.4728 55.2845 27.6241C55.5912 27.7755 55.5912 28.0782 55.8979 28.2296L56.2046 27.5484C55.9746 27.3214 54.9778 26.0348 54.7478 25.8834Z" fill="#F88667"/>
<path d="M56.8945 23.4616C56.5878 23.1588 56.1278 23.2345 55.821 23.5373C55.591 23.6886 54.8242 24.2941 55.0543 24.7482C55.2076 25.1266 56.2044 24.2941 56.2044 24.2941C55.821 24.5968 55.2076 24.8239 55.361 25.1266C55.5143 25.4293 56.3578 24.9752 56.5878 24.8239C56.4345 24.8995 55.4377 25.4293 55.821 25.732C56.0511 25.9591 56.7412 25.505 56.9712 25.3536C56.6645 25.4293 56.3578 25.6564 56.3578 26.0348C56.5111 26.2618 56.8945 26.1105 57.1246 26.0348C57.5079 25.8834 57.8147 25.8077 57.8147 25.4293C57.8147 25.3536 57.8147 25.278 57.8147 25.2023C57.8147 24.8995 57.6613 24.5211 57.5079 24.2941C57.3546 23.9914 57.1246 23.6886 56.8945 23.4616Z" fill="#F88667"/>
<path d="M21.2396 25.9591C21.0862 25.7321 20.9329 25.4293 20.8562 25.1266C20.7795 24.8996 20.7028 24.5968 20.6262 24.3698C20.5495 24.1427 20.4728 23.9157 20.4728 23.613C20.4728 23.4616 20.5495 23.3102 20.5495 23.1589C20.6262 22.9318 20.7028 22.7805 20.7028 22.6291C20.7028 22.4777 20.7028 22.3264 20.7795 22.0993C20.8562 21.7966 20.9329 21.4182 21.0862 21.1911C21.2396 20.9641 21.3163 20.8127 21.5463 20.5857C21.623 20.51 21.6996 20.4343 21.7763 20.2829C21.853 20.2073 22.0064 20.1316 22.0064 19.9802C22.083 19.8289 22.0064 19.6775 21.7763 19.6018C21.4696 19.5261 21.0095 19.6775 20.7795 19.9045C20.5495 20.2829 20.3961 20.6614 20.0894 21.0398C19.246 22.0993 18.4025 20.8884 17.4057 20.4343C17.099 20.2829 16.7156 19.9802 16.4089 19.8289C16.2556 19.6775 15.4121 18.9963 15.1054 19.1477C14.7987 19.2991 15.3354 19.9045 15.6421 20.0559C15.7188 20.1316 16.6389 20.8127 16.7156 20.8127C16.4856 20.737 15.7955 20.3586 15.2587 19.9045C14.8754 19.6018 14.492 19.2991 14.2619 19.4504C13.6485 19.9802 16.1789 21.1911 16.3322 21.2668C16.1022 21.2668 14.1086 19.9045 13.9552 20.4343C13.8786 20.737 14.2619 20.9641 14.5687 21.1911C15.0287 21.4182 15.7188 21.5695 15.8722 21.7209C15.5655 21.7966 14.2619 20.9641 14.2619 21.4939C14.2619 21.8723 15.1054 22.0993 15.4121 22.175C15.7188 22.2507 16.6389 22.8561 16.9456 23.0075C17.9425 23.4616 18.3258 23.3859 18.7092 23.9914C18.9393 24.3698 19.3993 26.3375 19.7827 27.0187L21.2396 25.9591Z" fill="#F88667"/>
<path d="M54.211 26.9429C53.3675 29.4405 51.4506 33.9057 50.8372 33.603C49.687 32.9975 47.1567 31.0298 45.3164 29.7432C43.8595 28.7593 43.1694 28.5323 43.1694 28.5323L44.4729 34.5869C44.4729 34.5869 50.6071 39.2035 51.9107 38.5223C52.9075 37.9926 55.4378 30.9541 56.2813 28.0782C56.2813 28.0025 54.211 26.9429 54.211 26.9429Z" fill="#FFD722"/>
<path d="M48.0766 35.5708C47.3865 34.6626 44.7795 32.1651 44.0127 31.5596L44.2427 34.4356C44.2427 34.4356 50.4536 39.0522 51.8338 38.4467C50.6836 37.6899 48.92 36.6303 48.0766 35.5708Z" fill="#DDB922"/>
<path d="M32.741 28.835C32.741 28.835 25.2266 31.8623 24.3831 31.6352C23.5397 31.4082 20.856 23.7643 20.856 23.7643L18.5557 24.6725C18.5557 24.6725 21.0093 35.7221 22.5429 36.2519C24.1531 36.7816 33.5078 34.1328 33.5078 34.1328C33.5078 34.1328 33.6611 31.4082 32.741 28.835Z" fill="#FFD722"/>
<path d="M26.3002 35.5707C25.6102 35.7978 24.9201 36.0248 24.3066 36.2519C27.5271 35.7978 33.5079 34.1328 33.5079 34.1328C33.5079 34.1328 33.5846 32.9219 33.3546 31.3325C31.4376 33.2246 28.8306 34.6625 26.3002 35.5707Z" fill="#DDB922"/>
<path d="M60.5749 16.3474C60.1915 15.2879 59.1947 14.6824 58.2746 14.9852C57.9679 15.0608 57.6612 15.2879 57.5078 15.5149C57.5845 15.969 57.7378 16.4231 57.9679 16.8015C58.2746 17.5584 58.658 18.2395 59.118 18.845C59.2714 18.845 59.4247 18.845 59.5781 18.7693C60.4216 18.5422 60.9583 17.407 60.5749 16.3474Z" fill="#D0D1DE"/>
<path d="M32.7413 37.9169C32.5113 40.4901 32.2813 45.9392 32.1279 46.6961H44.5497C44.7797 42.6092 44.703 36.7817 44.473 34.5869C44.0896 30.8027 43.1695 28.5323 43.1695 28.5323C43.1695 28.5323 42.2493 28.2295 41.1759 27.8511C41.1759 27.8511 38.8755 29.2134 36.8052 27.8511C36.8052 27.8511 32.9714 28.7593 32.5113 28.9864C32.0513 29.1377 33.0481 35.1166 32.7413 37.9169Z" fill="#FFD722"/>
<path d="M36.0385 41.3983C36.0385 40.1874 35.8084 38.9765 35.3484 37.8412C35.2717 37.6142 35.195 37.3114 35.1183 37.0844C35.0417 36.2519 34.8116 35.7221 34.5816 35.268C34.2749 34.8896 34.0449 34.4355 33.7382 34.0571C33.5848 33.83 33.4314 33.603 33.2781 33.376C33.0481 33.0732 32.6647 32.4678 32.5113 32.0894C32.6647 33.9814 32.8947 36.5546 32.7413 37.9169C32.5113 40.4901 32.2813 45.9392 32.1279 46.6961H37.8787C37.112 45.7879 36.7286 44.577 36.2685 43.2147C36.1151 42.6092 36.0385 42.0038 36.0385 41.3983Z" fill="#DDB922"/>
</svg>
