<svg width="134" height="138" viewBox="0 0 134 138" fill="none" xmlns="http://www.w3.org/2000/svg">
<g clip-path="url(#clip0_201_846)">
<path d="M119.169 52.5465C124.02 68.5252 118.037 115.476 85.3375 112.808C75.954 112.041 65.5792 100.476 57.7445 103.135C49.9098 105.793 46.1019 115.768 31.4711 112.812C16.8403 109.856 13.6519 93.1821 16.956 80.6672C20.26 68.1523 11.7934 64.3658 12.5988 53.7339C13.3298 44.008 24.3364 41.6423 29.499 33.9297C34.6616 26.2172 36.898 11.2794 48.3094 10.9179C61.0217 10.5061 60.2721 30.3903 77.352 27.1369C96.2305 23.5403 113.05 32.3945 119.169 52.5465Z" fill="#ECF5EE"/>
<path d="M71.4329 15.4594C71.4872 15.1491 71.508 14.8326 71.4948 14.5168C71.4939 14.4912 71.4864 14.4664 71.4733 14.4454C71.4601 14.4243 71.4418 14.4078 71.4205 14.3979L70.8175 14.1004V14.0592C70.7726 13.8224 70.7034 13.5921 70.611 13.3729L70.5945 13.334L70.9166 12.6934C70.9292 12.6719 70.9358 12.6469 70.9358 12.6213C70.9358 12.5957 70.9292 12.5707 70.9166 12.5492C70.8385 12.4177 70.7522 12.2924 70.6585 12.174C70.5667 12.0543 70.468 11.9412 70.3632 11.8354C70.3466 11.8182 70.3259 11.8066 70.3036 11.8022C70.2812 11.7977 70.2582 11.8005 70.2372 11.8102L69.6177 12.0779L69.5847 12.0527C69.4042 11.9221 69.2109 11.8146 69.0085 11.7324L68.9734 11.7164L68.7958 11.0095C68.79 10.9848 68.778 10.9625 68.7612 10.9451C68.7444 10.9276 68.7235 10.9159 68.7009 10.9111C68.4235 10.8509 68.1405 10.8286 67.8583 10.8447C67.8355 10.8459 67.8135 10.8543 67.7948 10.8689C67.7761 10.8835 67.7616 10.9037 67.753 10.9271L67.4907 11.5997H67.4515C67.2377 11.6491 67.0298 11.7259 66.832 11.8285L66.7969 11.8468L66.2269 11.4831C66.2078 11.4696 66.1856 11.4625 66.1629 11.4625C66.1403 11.4625 66.1181 11.4696 66.0989 11.4831C65.9818 11.5711 65.8694 11.6666 65.7623 11.769C65.6562 11.8821 65.5556 12.0012 65.4608 12.126C65.4457 12.1451 65.4357 12.1684 65.4317 12.1934C65.4277 12.2184 65.4299 12.2441 65.4381 12.2678L65.6776 12.9542L65.657 12.9908C65.5386 13.1937 65.4416 13.4109 65.3679 13.6383L65.3555 13.6772L64.7215 13.8785C64.6999 13.8858 64.6804 13.8994 64.6651 13.9179C64.6499 13.9365 64.6394 13.9592 64.6348 13.9837C64.5825 14.2952 64.5624 14.6122 64.5749 14.9287C64.5758 14.9543 64.5833 14.979 64.5965 15.0001C64.6096 15.0212 64.6279 15.0377 64.6493 15.0476L65.2543 15.3405V15.3817C65.3017 15.6177 65.3709 15.8477 65.4608 16.068L65.4773 16.1069L65.1552 16.7475C65.1436 16.7698 65.1375 16.7951 65.1375 16.8208C65.1375 16.8465 65.1436 16.8717 65.1552 16.894C65.2481 17.0404 65.3286 17.1617 65.4113 17.2692C65.5051 17.3869 65.6043 17.4992 65.7086 17.6055C65.7252 17.6227 65.7459 17.6343 65.7682 17.6387C65.7906 17.6432 65.8136 17.6404 65.8346 17.6307L66.4541 17.363L66.4871 17.3859C66.6671 17.5167 66.8596 17.6249 67.0612 17.7085L67.0984 17.7222L67.276 18.4337C67.2818 18.4584 67.2938 18.4807 67.3106 18.4981C67.3274 18.5156 67.3484 18.5273 67.371 18.5321C67.6479 18.5897 67.93 18.6112 68.2114 18.5962C68.2339 18.5947 68.2556 18.5864 68.2741 18.5723C68.2927 18.5582 68.3074 18.5388 68.3168 18.5161L68.5831 17.8297H68.6203C68.8346 17.7822 69.0427 17.7054 69.2398 17.6009L69.2749 17.5826L69.849 17.9441C69.8682 17.9575 69.8904 17.9647 69.913 17.9647C69.9357 17.9647 69.9579 17.9575 69.977 17.9441C70.0937 17.8554 70.2061 17.76 70.3136 17.6581C70.4191 17.5531 70.519 17.4416 70.6131 17.3241C70.6289 17.305 70.6396 17.2814 70.6439 17.2559C70.6483 17.2305 70.6462 17.2042 70.6379 17.18L70.3962 16.4936L70.4169 16.457C70.5346 16.2541 70.631 16.0368 70.7039 15.8095L70.7184 15.7683L71.3462 15.5578C71.3671 15.5513 71.3862 15.5388 71.4014 15.5215C71.4167 15.5043 71.4275 15.4829 71.4329 15.4594ZM71.214 15.2696V15.3222L70.5945 15.5189C70.575 15.5249 70.5573 15.5362 70.5429 15.5518C70.5284 15.5674 70.5178 15.5868 70.5119 15.6082C70.4318 15.8877 70.3142 16.1523 70.1629 16.3929C70.151 16.4112 70.1435 16.4326 70.1409 16.4549C70.1384 16.4773 70.141 16.5 70.1484 16.521L70.388 17.1937L70.3529 17.2326C70.2847 17.3104 70.2207 17.379 70.1588 17.4408C70.0968 17.5026 70.0204 17.5689 69.9523 17.6284L69.913 17.6604L69.3513 17.3058C69.3336 17.2952 69.3137 17.2896 69.2935 17.2896C69.2733 17.2896 69.2535 17.2952 69.2357 17.3058C69.0032 17.4387 68.754 17.532 68.4964 17.5826C68.4764 17.5863 68.4575 17.5957 68.4416 17.6097C68.4257 17.6237 68.4133 17.6419 68.4056 17.6627L68.1433 18.3262H68.0628C67.8948 18.3261 67.7271 18.3123 67.561 18.285H67.5114L67.3193 17.5758C67.3133 17.5543 67.3029 17.5347 67.2889 17.5185C67.275 17.5022 67.2578 17.4897 67.2388 17.482C66.9903 17.3924 66.7556 17.2612 66.5429 17.093C66.5264 17.0799 66.5071 17.0715 66.4869 17.0687C66.4667 17.0659 66.4462 17.0688 66.4272 17.077L65.8263 17.3424L65.7933 17.3035C65.7272 17.2326 65.6652 17.1617 65.6074 17.0862C65.5496 17.0107 65.498 16.9374 65.4402 16.8574L65.4113 16.8139L65.7272 16.1847C65.7368 16.1646 65.7418 16.1422 65.7418 16.1195C65.7418 16.0968 65.7368 16.0744 65.7272 16.0543C65.6107 15.7924 65.5279 15.5136 65.4815 15.2261C65.4773 15.2042 65.4686 15.1838 65.456 15.1663C65.4435 15.1489 65.4274 15.1348 65.4092 15.1254L64.8165 14.8371V14.7822C64.8152 14.5809 64.8276 14.3798 64.8537 14.1805V14.1256L65.4732 13.9288C65.4928 13.9226 65.5107 13.9113 65.5254 13.8958C65.5402 13.8802 65.5513 13.861 65.5579 13.8396C65.6417 13.555 65.7635 13.2858 65.9192 13.0411C65.9306 13.0226 65.9379 13.0013 65.9404 12.979C65.9429 12.9567 65.9406 12.9341 65.9337 12.913L65.6983 12.2404L65.7334 12.2015C65.7953 12.1282 65.8594 12.0596 65.9275 11.9933C65.9957 11.9269 66.07 11.8606 66.134 11.8034L66.1732 11.7713L66.7391 12.126C66.7568 12.1366 66.7767 12.1421 66.7969 12.1421C66.8171 12.1421 66.8369 12.1366 66.8547 12.126C67.0872 11.9931 67.3364 11.8998 67.594 11.8491C67.6143 11.8454 67.6334 11.8361 67.6496 11.8221C67.6658 11.8081 67.6786 11.7899 67.6869 11.769L67.945 11.1056H67.9925C68.1723 11.102 68.3519 11.1158 68.5294 11.1467H68.579L68.7525 11.8331C68.7576 11.8551 68.7676 11.8752 68.7817 11.8916C68.7958 11.9081 68.8135 11.9202 68.833 11.9269C69.0832 12.0296 69.3179 12.1739 69.5289 12.3548C69.5453 12.3675 69.5642 12.3755 69.5841 12.3779C69.604 12.3803 69.6241 12.3771 69.6425 12.3685L70.2434 12.1054L70.2785 12.1443C70.3487 12.2198 70.4086 12.2907 70.4644 12.3731C70.5201 12.4554 70.5759 12.5241 70.6317 12.6018L70.6606 12.6476L70.3426 13.2699C70.333 13.29 70.328 13.3124 70.328 13.3351C70.328 13.3579 70.333 13.3802 70.3426 13.4003C70.4613 13.6615 70.5448 13.9405 70.5904 14.2286C70.5938 14.251 70.6021 14.2722 70.6148 14.2901C70.6274 14.3081 70.6438 14.3223 70.6626 14.3315L71.2429 14.6152V14.6701C71.2469 14.8705 71.2372 15.0708 71.214 15.2696Z" fill="#4D5A8F"/>
<path d="M68.043 18.6396C67.8171 18.6385 67.5918 18.6147 67.3698 18.5687C67.3409 18.5619 67.3141 18.5467 67.2923 18.5245C67.2705 18.5024 67.2545 18.4742 67.2459 18.4429L67.0745 17.7565H67.0539C66.85 17.6727 66.6554 17.5637 66.4736 17.4316L66.455 17.4179L65.8623 17.6787C65.8347 17.6909 65.8045 17.6942 65.7752 17.6881C65.746 17.682 65.7189 17.6669 65.6971 17.6444C65.5923 17.5386 65.4931 17.4263 65.3998 17.308C65.3151 17.1959 65.2325 17.0793 65.1396 16.9283C65.1239 16.9001 65.1155 16.8676 65.1155 16.8344C65.1155 16.8013 65.1239 16.7688 65.1396 16.7406L65.4514 16.116V16.0955C65.3607 15.8755 65.2915 15.6454 65.2449 15.4091V15.3862L64.6357 15.0819C64.6085 15.0681 64.5853 15.0463 64.5685 15.0189C64.5518 14.9914 64.5422 14.9594 64.5407 14.9263C64.5282 14.6076 64.5483 14.2883 64.6006 13.9746C64.6063 13.9423 64.6199 13.9124 64.64 13.8882C64.66 13.864 64.6857 13.8464 64.7142 13.8373L65.3337 13.6428V13.6222C65.4089 13.393 65.5066 13.1736 65.6249 12.9679L65.6373 12.9473L65.4039 12.2815C65.3934 12.2508 65.3907 12.2175 65.3961 12.1852C65.4016 12.1529 65.415 12.1229 65.4349 12.0985C65.5308 11.98 65.6321 11.867 65.7384 11.7599C65.848 11.6571 65.9624 11.5609 66.0812 11.4716C66.106 11.4543 66.1346 11.4451 66.1638 11.4451C66.1931 11.4451 66.2217 11.4543 66.2464 11.4716L66.8019 11.8239H66.8205C67.0188 11.7226 67.2265 11.6459 67.44 11.5951H67.4607L67.7147 10.9408C67.726 10.9107 67.7449 10.8848 67.769 10.8662C67.7931 10.8476 67.8216 10.8369 67.851 10.8355C68.1366 10.8182 68.4231 10.8405 68.7038 10.9019C68.7324 10.9085 68.7587 10.9237 68.7798 10.946C68.801 10.9682 68.8162 10.9965 68.8236 11.0277L68.9971 11.7141H69.0156C69.2205 11.7969 69.416 11.9059 69.598 12.039L69.6166 12.0527L70.2113 11.7759C70.2389 11.7637 70.2691 11.7604 70.2984 11.7665C70.3276 11.7725 70.3547 11.7877 70.3765 11.8102C70.4819 11.916 70.5813 12.0291 70.6739 12.1488C70.7671 12.2697 70.854 12.3965 70.9341 12.5286C70.9498 12.5563 70.9582 12.5885 70.9582 12.6213C70.9582 12.654 70.9498 12.6862 70.9341 12.7139L70.6243 13.3362V13.3591C70.7158 13.5787 70.7851 13.8089 70.8308 14.0455V14.0684L71.4173 14.3566C71.4444 14.3698 71.4677 14.3912 71.4845 14.4183C71.5013 14.4454 71.5109 14.4771 71.5123 14.5099C71.5254 14.8288 71.5047 15.1482 71.4503 15.4617C71.4447 15.4937 71.4311 15.5234 71.411 15.5473C71.3909 15.5711 71.3652 15.5883 71.3367 15.5967L70.7172 15.7912V15.814C70.6488 16.0446 70.5566 16.2657 70.4426 16.473L70.4323 16.4935L70.6677 17.157C70.6777 17.1882 70.6802 17.2218 70.6747 17.2543C70.6693 17.2869 70.6562 17.3172 70.6367 17.3424C70.5407 17.4601 70.4394 17.5724 70.3331 17.6787C70.2242 17.7813 70.1104 17.8775 69.9924 17.967C69.9677 17.9842 69.939 17.9934 69.9098 17.9934C69.8806 17.9934 69.8519 17.9842 69.8272 17.967L69.2717 17.6169H69.2511C69.0534 17.7198 68.8454 17.7966 68.6316 17.8457H68.6109L68.3528 18.5321C68.3409 18.5616 68.3219 18.5868 68.2978 18.605C68.2737 18.6232 68.2456 18.6336 68.2165 18.635C68.1607 18.6373 68.1029 18.6396 68.043 18.6396ZM66.4633 17.3149L66.5108 17.3515C66.6895 17.4792 66.8799 17.5857 67.0786 17.6695L67.1323 17.6901L67.3141 18.42C67.3187 18.4374 67.3275 18.4532 67.3395 18.4656C67.3515 18.4781 67.3662 18.4868 67.3822 18.4909C67.6543 18.5478 67.9316 18.5693 68.2082 18.555C68.2243 18.5536 68.2399 18.5476 68.2533 18.5376C68.2667 18.5276 68.2775 18.5138 68.2846 18.4978L68.5572 17.8114H68.613C68.8212 17.7608 69.0235 17.684 69.216 17.5826L69.2676 17.5551L69.8561 17.9258C69.8697 17.9353 69.8855 17.9404 69.9015 17.9404C69.9176 17.9404 69.9334 17.9353 69.947 17.9258C70.0667 17.8343 70.1783 17.7382 70.2815 17.6421C70.3862 17.5378 70.4855 17.4271 70.5789 17.3103C70.5901 17.2971 70.5977 17.2806 70.6006 17.2627C70.6035 17.2448 70.6017 17.2264 70.5954 17.2097L70.3455 16.5073L70.3786 16.4547C70.4941 16.2534 70.589 16.0386 70.6615 15.814L70.6821 15.7546L71.3305 15.5486C71.3464 15.544 71.3606 15.5344 71.3716 15.521C71.3826 15.5076 71.3898 15.491 71.3925 15.4731C71.4468 15.1666 71.4676 14.854 71.4544 14.542C71.4532 14.5235 71.4476 14.5058 71.4381 14.4905C71.4287 14.4752 71.4158 14.463 71.4008 14.455L70.7812 14.153L70.7709 14.089C70.7237 13.8566 70.6545 13.6303 70.5644 13.414L70.5396 13.3568L70.8721 12.6979C70.8807 12.6824 70.8852 12.6646 70.8852 12.6464C70.8852 12.6283 70.8807 12.6104 70.8721 12.5949C70.7968 12.4583 70.7141 12.3269 70.6243 12.2014C70.532 12.0844 70.4341 11.9729 70.3311 11.8674C70.319 11.8552 70.3041 11.847 70.288 11.8437C70.2719 11.8405 70.2554 11.8423 70.2402 11.8491L69.6207 12.1236L69.5732 12.0893C69.3949 11.9594 69.2036 11.8527 69.0033 11.7713L68.9496 11.7484L68.7658 11.0209C68.761 11.0037 68.7521 10.9883 68.7401 10.9763C68.7282 10.9642 68.7135 10.9559 68.6976 10.9522C68.4258 10.8927 68.1484 10.8704 67.8716 10.8859C67.8552 10.8872 67.8394 10.8934 67.826 10.9039C67.8125 10.9144 67.8019 10.9287 67.7952 10.9454L67.5268 11.6317L67.471 11.6455C67.2622 11.6965 67.0593 11.7732 66.8659 11.8743L66.8143 11.9017L66.2299 11.5288C66.2159 11.5193 66.1999 11.5142 66.1835 11.5142C66.1671 11.5142 66.151 11.5193 66.137 11.5288C66.0217 11.6168 65.9108 11.7115 65.8045 11.8125C65.6996 11.9173 65.5997 12.028 65.5051 12.1442C65.4941 12.1576 65.4867 12.1741 65.4837 12.1919C65.4808 12.2097 65.4825 12.2281 65.4886 12.2449L65.7343 12.9496L65.7033 13.0045C65.5871 13.2048 65.4915 13.4189 65.4184 13.6428L65.3998 13.7023L64.7493 13.9059C64.7336 13.9114 64.7195 13.9216 64.7086 13.9353C64.6977 13.949 64.6903 13.9657 64.6873 13.9837C64.6349 14.2913 64.6148 14.6045 64.6275 14.9172C64.6286 14.9353 64.6343 14.9528 64.6437 14.9677C64.6532 14.9826 64.6661 14.9944 64.6811 15.0018L65.3007 15.3038L65.313 15.3679C65.3593 15.5999 65.4285 15.8254 65.5195 16.0405L65.5423 16.1L65.2119 16.7589C65.2033 16.7744 65.1987 16.7923 65.1987 16.8104C65.1987 16.8286 65.2033 16.8464 65.2119 16.8619C65.2891 16.9932 65.3725 17.12 65.4617 17.2417C65.5542 17.3579 65.652 17.4686 65.755 17.5734C65.767 17.5857 65.7819 17.5939 65.798 17.5971C65.8141 17.6003 65.8307 17.5985 65.8458 17.5917L66.4633 17.3149ZM68.0471 18.3651C67.8771 18.3642 67.7073 18.3496 67.5391 18.3216H67.4689L67.2872 17.5986C67.2836 17.5833 67.2766 17.5693 67.2668 17.5577C67.2571 17.5461 67.245 17.5374 67.2315 17.5323C66.9793 17.4408 66.7411 17.3074 66.5252 17.1365C66.5125 17.129 66.4983 17.1252 66.4839 17.1252C66.4695 17.1252 66.4554 17.129 66.4426 17.1365L65.8231 17.411L65.7715 17.3538C65.7054 17.2852 65.6434 17.2097 65.5836 17.125C65.5237 17.0404 65.472 16.9717 65.4142 16.8962L65.3729 16.8299L65.6992 16.1801C65.7063 16.1657 65.7099 16.1496 65.7099 16.1332C65.7099 16.1168 65.7063 16.1007 65.6992 16.0863C65.5831 15.8137 65.5031 15.524 65.4617 15.226C65.4593 15.2104 65.4535 15.1956 65.4449 15.1828C65.4363 15.1701 65.4251 15.1598 65.4122 15.1528L64.7927 14.8531V14.773C64.791 14.5693 64.8042 14.3658 64.8319 14.1645L64.8422 14.0867L65.4865 13.883C65.5002 13.878 65.5126 13.8696 65.523 13.8585C65.5333 13.8474 65.5413 13.8339 65.5464 13.819C65.6276 13.5374 65.7459 13.2706 65.8974 13.0274C65.9056 13.0137 65.9109 12.9981 65.9126 12.9818C65.9144 12.9655 65.9128 12.949 65.9078 12.9336L65.6641 12.2472L65.7137 12.19C65.7777 12.1168 65.8438 12.0458 65.9098 11.9795C65.9759 11.9131 66.0565 11.8445 66.1267 11.7896L66.1824 11.7416L66.7627 12.1099C66.7758 12.1172 66.7903 12.1209 66.805 12.1209C66.8197 12.1209 66.8342 12.1172 66.8474 12.1099C67.0822 11.9728 67.3353 11.8778 67.597 11.8285C67.6111 11.8258 67.6245 11.8191 67.6357 11.8091C67.6469 11.7991 67.6556 11.7861 67.661 11.7713L67.9274 11.0849H67.9997C68.1814 11.0807 68.3632 11.0945 68.5428 11.1261H68.613L68.7926 11.8491C68.7963 11.8647 68.8035 11.8791 68.8137 11.8907C68.8238 11.9023 68.8365 11.9108 68.8504 11.9154C69.1022 12.007 69.3402 12.1397 69.5567 12.309C69.5688 12.3173 69.5827 12.3217 69.597 12.3217C69.6112 12.3217 69.6251 12.3173 69.6372 12.309L70.2567 12.0367L70.3084 12.0916C70.3786 12.1694 70.4405 12.2403 70.4963 12.3204C70.552 12.4005 70.6078 12.4714 70.6656 12.5492L70.7069 12.6133L70.3786 13.2653C70.3719 13.2798 70.3684 13.2959 70.3684 13.3122C70.3684 13.3285 70.3719 13.3446 70.3786 13.3591C70.4993 13.6288 70.5822 13.9174 70.6243 14.2148C70.6264 14.2309 70.6323 14.2461 70.6414 14.259C70.6504 14.2718 70.6623 14.2818 70.6759 14.288L71.2954 14.5877V14.6701C71.2961 14.8722 71.283 15.0741 71.2562 15.2741V15.3542L70.6119 15.5555C70.5976 15.56 70.5847 15.5684 70.5742 15.58C70.5637 15.5916 70.5561 15.606 70.552 15.6219C70.471 15.9047 70.352 16.1723 70.1989 16.4158C70.1907 16.429 70.1855 16.4442 70.1837 16.4601C70.1819 16.4761 70.1836 16.4922 70.1886 16.5073L70.4364 17.1937L70.3848 17.2508C70.3166 17.3309 70.2526 17.3996 70.1886 17.4613C70.1246 17.5231 70.0502 17.5895 69.9821 17.6512L69.9263 17.697L69.344 17.3309C69.3312 17.3237 69.317 17.3199 69.3027 17.3199C69.2883 17.3199 69.2742 17.3237 69.2614 17.3309C69.0184 17.4706 68.757 17.5671 68.487 17.6169C68.4728 17.6196 68.4595 17.6263 68.4483 17.6363C68.4371 17.6463 68.4284 17.6593 68.423 17.6741L68.1525 18.3605L68.0471 18.3651ZM67.5268 18.2392H67.5536C67.7183 18.2666 67.8847 18.2804 68.0513 18.2804H68.1091L68.3631 17.6398C68.3729 17.6132 68.3887 17.5897 68.4089 17.5717C68.4291 17.5537 68.4532 17.5417 68.4787 17.5368C68.7326 17.4867 68.9783 17.3949 69.2077 17.2646C69.2304 17.2506 69.256 17.2432 69.282 17.2432C69.3081 17.2432 69.3336 17.2506 69.3564 17.2646L69.8953 17.6169L69.916 17.6009C69.9903 17.5414 70.0592 17.4796 70.1225 17.4156C70.1845 17.3561 70.2464 17.2875 70.3146 17.2097L70.3331 17.1891L70.1039 16.5416C70.0937 16.5145 70.0899 16.4849 70.0928 16.4557C70.0956 16.4265 70.1052 16.3986 70.1204 16.3746C70.2691 16.137 70.3853 15.8764 70.4653 15.6013C70.4726 15.5732 70.4863 15.5477 70.5051 15.5273C70.524 15.5068 70.5472 15.4921 70.5727 15.4846L71.1715 15.297V15.2672C71.1984 15.0711 71.2115 14.873 71.2108 14.6747V14.6426L70.6388 14.3612C70.6148 14.3496 70.5938 14.3317 70.5776 14.3089C70.5613 14.2862 70.5504 14.2593 70.5458 14.2308C70.5013 13.9467 70.4192 13.6715 70.3022 13.414C70.29 13.3882 70.2837 13.3596 70.2837 13.3305C70.2837 13.3014 70.29 13.2728 70.3022 13.247L70.6243 12.6384L70.6078 12.6133C70.552 12.5286 70.4983 12.4531 70.4426 12.3845C70.3847 12.3086 70.3234 12.236 70.2588 12.1671L70.2402 12.1465L69.662 12.4005C69.6379 12.4118 69.6115 12.4161 69.5855 12.4129C69.5595 12.4097 69.5346 12.3991 69.5133 12.3822C69.3031 12.216 69.0712 12.0864 68.8257 11.9978C68.8008 11.9884 68.7785 11.9725 68.7605 11.9514C68.7425 11.9302 68.7294 11.9045 68.7224 11.8765L68.5593 11.2108H68.5345C68.359 11.1803 68.1814 11.1665 68.0038 11.1696H67.9769L67.7271 11.8102C67.7173 11.8372 67.7012 11.861 67.6806 11.879C67.6599 11.8971 67.6354 11.9089 67.6094 11.9131C67.3555 11.9633 67.1098 12.055 66.8804 12.1854C66.8577 12.1994 66.8321 12.2068 66.8061 12.2068C66.78 12.2068 66.7545 12.1994 66.7317 12.1854L66.1907 11.8422L66.17 11.8582C66.0998 11.9154 66.0317 11.9749 65.9635 12.0458C65.8954 12.1168 65.8334 12.1785 65.7715 12.2518L65.7529 12.2724L65.9801 12.9221C65.9894 12.9492 65.9926 12.9783 65.9894 13.0071C65.9861 13.0358 65.9765 13.0632 65.9615 13.0868C65.8139 13.3248 65.6985 13.5853 65.6187 13.8602C65.6103 13.8873 65.5961 13.9118 65.5774 13.9317C65.5588 13.9516 65.5361 13.9663 65.5113 13.9746L64.9104 14.1645V14.1942C64.8842 14.3911 64.8718 14.59 64.8732 14.7891V14.8165L65.4452 15.0979C65.4688 15.1095 65.4896 15.1271 65.5058 15.1494C65.5219 15.1717 65.533 15.198 65.5381 15.226C65.5835 15.5103 65.6649 15.786 65.7797 16.0451C65.7924 16.0703 65.799 16.0987 65.799 16.1275C65.799 16.1563 65.7924 16.1847 65.7797 16.2098L65.4617 16.8024L65.4782 16.8253C65.534 16.9122 65.5877 16.99 65.6434 17.0541C65.6992 17.1181 65.7612 17.1982 65.8252 17.2692L65.8438 17.2897L66.424 17.0335C66.4484 17.0231 66.4748 17.0196 66.5007 17.0232C66.5266 17.0268 66.5514 17.0374 66.5727 17.0541C66.7824 17.2198 67.0136 17.3494 67.2583 17.4385C67.2833 17.4475 67.3059 17.4633 67.3239 17.4845C67.3419 17.5057 67.3549 17.5315 67.3616 17.5597L67.5268 18.2392Z" fill="#4D5A8F"/>
<path d="M68.0369 15.9605C67.815 15.9632 67.5974 15.8928 67.4118 15.7582C67.2261 15.6236 67.0807 15.4309 66.9941 15.2046C66.9075 14.9782 66.8835 14.7285 66.9253 14.487C66.9671 14.2456 67.0727 14.0234 67.2287 13.8486C67.3847 13.6738 67.5841 13.5543 67.8016 13.5053C68.019 13.4564 68.2447 13.4801 68.4499 13.5735C68.6552 13.667 68.8307 13.8259 68.9543 14.0301C69.0778 14.2343 69.1438 14.4746 69.1438 14.7204C69.1446 14.8824 69.1166 15.0429 69.0614 15.1929C69.0062 15.3428 68.9249 15.4793 68.8222 15.5945C68.7194 15.7096 68.5971 15.8012 68.4624 15.864C68.3277 15.9268 68.1831 15.9596 68.0369 15.9605ZM68.0369 13.6726C67.85 13.6708 67.6668 13.7305 67.5106 13.8442C67.3544 13.9578 67.2321 14.1204 67.1594 14.3111C67.0866 14.5019 67.0666 14.7123 67.1019 14.9156C67.1372 15.119 67.2263 15.3061 67.3577 15.4534C67.4891 15.6006 67.6571 15.7013 67.8402 15.7426C68.0234 15.784 68.2135 15.7641 68.3864 15.6856C68.5594 15.6071 68.7074 15.4735 68.8117 15.3016C68.9161 15.1298 68.972 14.9275 68.9724 14.7204C68.9732 14.5837 68.9496 14.448 68.903 14.3214C68.8564 14.1947 68.7876 14.0795 68.7007 13.9823C68.6138 13.8852 68.5104 13.808 68.3965 13.7552C68.2826 13.7025 68.1604 13.6752 68.0369 13.6749V13.6726Z" fill="#4D5A8F"/>
<path d="M68.0368 16.0383C67.801 16.041 67.5699 15.966 67.3726 15.8229C67.1754 15.6797 67.021 15.4749 66.9291 15.2343C66.8372 14.9938 66.8118 14.7284 66.8563 14.4718C66.9008 14.2153 67.0131 13.9792 67.179 13.7935C67.3448 13.6078 67.5567 13.481 67.7878 13.429C68.0188 13.377 68.2586 13.4023 68.4767 13.5016C68.6948 13.601 68.8813 13.7699 69.0125 13.9869C69.1438 14.2039 69.2139 14.4592 69.2139 14.7204C69.2147 14.8926 69.1849 15.0632 69.1262 15.2226C69.0675 15.382 68.981 15.5271 68.8717 15.6494C68.7624 15.7718 68.6324 15.8691 68.4892 15.9358C68.3459 16.0026 68.1922 16.0374 68.0368 16.0383ZM68.0368 13.5604C67.8292 13.5573 67.6253 13.6226 67.4513 13.7481C67.2772 13.8736 67.1408 14.0536 67.0593 14.2653C66.9778 14.477 66.955 14.7107 66.9938 14.9367C67.0325 15.1628 67.1311 15.371 67.2769 15.5348C67.4227 15.6986 67.6093 15.8107 67.8127 15.8568C68.0162 15.9029 68.2275 15.8808 68.4196 15.7935C68.6118 15.7062 68.7761 15.5576 68.8918 15.3665C69.0075 15.1754 69.0693 14.9505 69.0693 14.7204C69.0712 14.5688 69.046 14.4184 68.9949 14.2777C68.9439 14.1371 68.8681 14.0091 68.7721 13.9011C68.676 13.7932 68.5615 13.7075 68.4353 13.649C68.3091 13.5905 68.1736 13.5604 68.0368 13.5604ZM68.0368 15.8484C67.8354 15.8511 67.6377 15.7874 67.469 15.6654C67.3003 15.5433 67.1682 15.3685 67.0894 15.1631C67.0106 14.9576 66.9887 14.7309 67.0265 14.5116C67.0643 14.2924 67.16 14.0905 67.3016 13.9317C67.4432 13.7729 67.6242 13.6643 67.8216 13.6198C68.019 13.5752 68.2239 13.5967 68.4103 13.6815C68.5967 13.7663 68.7561 13.9105 68.8683 14.0959C68.9805 14.2813 69.0404 14.4995 69.0404 14.7227C69.041 15.0188 68.9357 15.3032 68.7477 15.5137C68.5597 15.7242 68.3041 15.8437 68.0368 15.8461V15.8484ZM68.0368 13.7572C67.8635 13.7549 67.6936 13.8098 67.5485 13.9149C67.4035 14.0199 67.2899 14.1704 67.2223 14.3472C67.1546 14.5239 67.136 14.719 67.1687 14.9075C67.2014 15.0961 67.2839 15.2696 67.4059 15.406C67.5278 15.5424 67.6837 15.6355 67.8535 15.6735C68.0234 15.7116 68.1996 15.6927 68.3598 15.6195C68.52 15.5462 68.6569 15.4219 68.753 15.2622C68.8492 15.1025 68.9004 14.9147 68.9 14.7227C68.9008 14.5963 68.8791 14.471 68.8362 14.3539C68.7932 14.2368 68.7298 14.1303 68.6496 14.0404C68.5694 13.9505 68.474 13.879 68.3689 13.83C68.2637 13.781 68.1509 13.7555 68.0368 13.7549V13.7572Z" fill="#4D5A8F"/>
<path d="M52.9557 35.33C52.9557 35.195 52.9454 35.0646 52.9392 34.9364C52.9392 34.8838 52.9392 34.8335 52.9392 34.7831C52.9392 34.6848 52.9289 34.5887 52.9247 34.4926C52.9206 34.3965 52.9247 34.3416 52.9103 34.2638C52.8958 34.186 52.9103 34.1288 52.8979 34.0625L52.8793 33.7742C52.8793 33.7353 52.8793 33.6941 52.8793 33.6529L52.8545 33.3097V33.2663C52.743 31.8294 52.6129 30.9189 52.6129 30.9189C52.3114 32.5868 51.9934 34.2592 51.694 35.8859C51.6795 35.9683 51.663 36.0529 51.6465 36.1353C51.5866 36.4533 51.5267 36.7645 51.4689 37.0779C51.0827 39.0981 50.7048 41.02 50.3538 42.7405C50.6078 39.8097 50.5355 36.3893 50.3662 33.3921C50.2939 32.1246 50.2051 30.9326 50.1142 29.887V29.8756L50.0894 29.5919V29.5507C50.0894 29.466 50.075 29.3814 50.0667 29.2967V29.2418C50.0667 29.1617 50.0523 29.0862 50.044 29.013V28.9444L50.0254 28.7453C50.0254 28.711 50.0254 28.6744 50.0151 28.6401C50.0048 28.6058 50.0048 28.5326 50.0006 28.4799L49.9883 28.361L49.9759 28.2237C49.9759 28.1779 49.9655 28.1345 49.9614 28.091L49.949 27.9652L49.9366 27.8325C49.9366 27.8004 49.9366 27.7661 49.9263 27.7341C49.916 27.7021 49.9263 27.6311 49.9098 27.5808C49.8933 27.5305 49.9098 27.5305 49.9098 27.503C49.9098 27.4756 49.9098 27.4069 49.8953 27.3612V27.2811C49.8953 27.233 49.885 27.1873 49.8788 27.1392V27.0797C49.8788 27.0294 49.8788 26.9814 49.8623 26.9356V26.8898C49.8623 26.8372 49.8499 26.7846 49.8458 26.732V26.7183C49.8458 26.6702 49.8458 26.6222 49.8292 26.5764V26.5467C49.8292 26.5009 49.8292 26.4597 49.8148 26.4185V26.4002C49.8148 26.3156 49.7962 26.2401 49.7879 26.1714V26.1417C49.7871 26.1234 49.7871 26.1051 49.7879 26.0868V26.041C49.7776 25.961 49.7694 25.9015 49.7652 25.8626V25.8534V25.8191C49.7157 26.0204 49.6682 26.2286 49.6207 26.4437C49.6207 26.4918 49.598 26.5398 49.5876 26.5878C49.5422 26.7983 49.4988 27.0134 49.4555 27.2353C49.4555 27.2719 49.4431 27.3085 49.4348 27.3474C49.3935 27.5762 49.3543 27.7867 49.3151 28.0109C49.3151 28.0338 49.3151 28.0544 49.3047 28.075C49.2593 28.3289 49.218 28.5875 49.1767 28.8529V28.9055C48.6935 32.0582 48.392 35.8287 48.1442 39.0547C47.82 35.0394 46.8701 30.7747 45.6661 27.0111C45.5773 26.7274 45.4865 26.446 45.3936 26.1692L45.2697 25.8031C45.1912 25.5743 45.1148 25.3455 45.0363 25.1304L44.9186 24.8033C44.805 24.4853 44.6873 24.1695 44.5717 23.8607C44.5537 23.9171 44.5406 23.9753 44.5324 24.0345C44.5324 24.0345 44.5324 24.0528 44.5324 24.0597C44.5324 24.1215 44.5139 24.1901 44.5077 24.2656C44.5077 24.2656 44.5077 24.2931 44.5077 24.3068C44.5077 24.3823 44.4973 24.4624 44.4932 24.5516C44.4942 24.5707 44.4942 24.5897 44.4932 24.6088C44.4932 24.6957 44.4932 24.7873 44.4932 24.8856V24.9703C44.4932 25.0641 44.4932 25.1602 44.4932 25.2631C44.4932 25.3066 44.4932 25.3501 44.4932 25.3936C44.4932 25.4851 44.4932 25.5789 44.4932 25.6795C44.4932 25.7436 44.4932 25.8122 44.4932 25.8786C44.4932 25.9449 44.4932 26.0387 44.5035 26.1211C44.5139 26.2035 44.5035 26.3224 44.52 26.4231C44.52 26.478 44.52 26.5284 44.52 26.5833C44.52 26.6382 44.52 26.6794 44.52 26.7297C44.7266 30.1616 45.377 35.8585 45.7487 40.0545C45.2634 37.0081 44.5491 34.012 43.6135 31.0973V31.1156C43.5867 31.0333 43.5577 30.9509 43.5309 30.8708C43.4586 30.642 43.3843 30.4292 43.3099 30.2073C43.2542 30.0449 43.1984 29.8824 43.1406 29.72C43.0621 29.4912 42.9795 29.2624 42.8969 29.0336L42.7235 28.56C42.6388 28.3312 42.55 28.1024 42.4633 27.8874C42.4013 27.7295 42.3414 27.5716 42.2774 27.4138C42.1893 27.1941 42.0985 26.9745 42.0048 26.7549C41.9388 26.5947 41.8747 26.4368 41.7983 26.2767C41.7061 26.0616 41.6111 25.8466 41.5134 25.6315L41.3069 25.1533C41.2077 24.9383 41.1004 24.7255 41.0074 24.5127C40.9331 24.3548 40.8608 24.197 40.7844 24.0414C40.675 23.8126 40.5614 23.5838 40.4478 23.355L40.2413 22.9363C40.0554 22.5748 39.8655 22.2141 39.6713 21.8542C40.1855 24.6957 41.6806 33.6483 42.6966 38.9883C42.5273 38.4873 42.3518 37.9816 42.1638 37.4669C40.6873 33.447 38.1659 29.1732 35.3492 25.5697L35.3245 25.5377L35.215 25.4004C35.014 25.1457 34.813 24.8963 34.612 24.6523L34.4551 24.4624C34.2279 24.1878 34.0001 23.9194 33.7715 23.657L33.6332 23.5014C33.4198 23.2589 33.2057 23.021 32.991 22.7876L32.896 22.6824C32.6585 22.4284 32.4231 22.179 32.1856 21.9388L32.0349 21.7855C31.7932 21.543 31.5537 21.3028 31.3121 21.074L31.3327 21.1449C31.6218 21.7703 31.9082 22.3888 32.1918 23.0004C32.5965 23.8729 32.9999 24.7369 33.4019 25.5926C35.5743 30.2371 37.6827 34.7305 39.7416 39.796C39.8551 40.0797 39.9646 40.3542 40.0699 40.6265C37.9367 36.2177 35.343 32.0537 32.357 28.647L32.3178 28.6012C32.0314 28.2733 31.7402 27.9537 31.4443 27.6426C31.3389 27.5305 31.2378 27.4138 31.1262 27.3085C30.9652 27.1415 30.802 26.9768 30.6368 26.8121C30.4716 26.6473 30.2734 26.4551 30.0896 26.2813L29.7695 25.9838C29.5327 25.7642 29.2932 25.5499 29.0509 25.3409L28.8155 25.1419C28.578 24.9428 28.3405 24.7484 28.0989 24.5585L27.9647 24.4509C27.6838 24.2221 27.3989 24.0231 27.1139 23.8195L26.926 23.6868C26.6389 23.4854 26.3478 23.2932 26.0566 23.1079L25.8934 23.0073C25.5858 22.8151 25.2739 22.6298 24.9601 22.4559C26.3601 24.6202 26.3787 24.5859 27.8511 26.4208C28.0741 26.7022 28.293 26.9814 28.5098 27.2628L28.7163 27.5373C28.8609 27.7249 29.0013 27.9148 29.1417 28.1024L29.3235 28.4388C29.4453 28.6035 29.563 28.7705 29.6828 28.9352L29.9512 29.3105C31.564 31.5869 32.9889 33.9 34.3787 36.3023C30.6951 32.2663 26.5121 28.8313 21.9554 26.1005C21.7118 25.9541 21.4681 25.8122 21.2244 25.6727L20.8878 25.4828C20.6483 25.347 20.4087 25.2143 20.1692 25.0847L19.8656 24.9222C19.5393 24.7484 19.2131 24.5798 18.8868 24.4166L18.3891 24.2107C18.6645 24.4792 18.9398 24.7514 19.2151 25.0275L19.2957 25.1099C21.3132 27.1507 23.4526 29.4409 25.2967 31.4519C28.291 34.7168 30.4427 37.5996 32.7308 40.6791L33.4329 41.6217C30.5005 38.4186 26.2528 34.7099 22.8826 32.5456C21.1996 31.4657 19.2626 30.1067 17.307 28.7636C17.4495 28.8483 17.5755 28.9215 17.6746 28.9764C15.5621 27.5373 13.4 26.1028 11.496 25.0092L15.6261 29.1L16.6751 30.141L17.5528 31.0287C21.2347 34.7374 23.6735 37.3959 26.61 40.5281C23.5496 38.1853 21.0344 36.6386 15.2317 33.6941L15.0252 33.5843C14.6906 33.415 6.26737 29.3516 5.98447 29.1206C7.63649 30.4933 9.28232 31.8569 10.922 33.2114L11.1285 33.3784C15.6571 37.1122 20.0866 40.6997 24.3116 43.8456C16.0205 39.3109 11.2131 37.0184 4.48732 33.9137C4.30559 33.8314 2.22817 32.8499 2.04438 32.7698C1.83574 32.6759 1.62107 32.5994 1.40216 32.541C1.45226 32.6203 1.50602 32.6966 1.56323 32.7698L1.59008 32.8041C1.6479 32.8758 1.70985 32.9521 1.77593 33.0329L1.81723 33.0764C1.88331 33.1496 1.95352 33.2251 2.02373 33.3052L2.05677 33.3395C2.13318 33.415 2.20959 33.4928 2.29012 33.5683L2.53793 33.7971L2.5751 33.8314L2.80431 34.0396L2.87453 34.1036L2.99636 34.2135L3.30199 34.488L3.50849 34.6848C3.50849 34.6848 3.50849 34.6848 3.52088 34.6985C7.61584 38.5079 15.0355 44.3787 19.6509 47.7396C17.2988 46.8244 14.6555 45.7056 11.845 44.2597C10.9715 43.8021 10.0836 43.3651 9.21211 42.9396C7.82854 42.2532 6.4904 41.6263 5.33398 41.0886L5.2679 41.0589L5.00151 40.9353L4.87554 40.8759L4.66904 40.7866L4.54307 40.7249L4.36135 40.6425L3.72945 40.3519L3.69847 40.3382L3.47545 40.2352H3.45067L3.24417 40.1392H3.22558L2.47391 39.8005L2.44706 39.7868L2.31077 39.7273H2.29219L1.77799 39.4985H1.76147L1.73256 39.4871L1.68094 39.4642C1.86059 39.6221 2.03612 39.7799 2.20959 39.9378L2.3975 40.1048L2.78986 40.4572L4.04333 41.6011L4.09496 41.6469L4.56579 42.0701L4.6835 42.1754L5.20388 42.633L5.28855 42.7085L5.80481 43.1661C5.82082 43.1777 5.836 43.1907 5.85024 43.205L6.45323 43.7174C9.13777 45.9688 12.3923 48.339 18.0835 51.4506C19.5002 52.2146 20.9557 52.8869 22.4428 53.464C19.3659 52.7364 16.1424 51.9013 13.0779 51.0891L12.9374 51.0525C9.5198 50.2014 1.683 47.8906 1.683 47.8906C2.15383 48.1743 2.62466 48.4511 3.09342 48.7257L3.26895 48.8264C3.68195 49.0658 4.09496 49.3022 4.50797 49.5356L4.67523 49.6294C5.08824 49.8597 5.50125 50.0885 5.91425 50.3158L6.13934 50.4393C6.52344 50.6483 6.90754 50.8534 7.29163 51.0548L7.35565 51.0914C12.0406 53.5541 16.9018 55.5821 21.8894 57.1544C14.5812 56.6007 11.7996 55.9189 5.36909 55.4155H5.3505L4.90445 55.3812L4.72686 55.3675L4.35102 55.34L3.7563 55.2989L0 54.9099C0.60712 55.215 1.21768 55.5086 1.83168 55.7908C2.03819 55.88 2.22611 55.9624 2.42228 56.0493C2.83529 56.2346 3.26275 56.4199 3.68402 56.5938C3.91324 56.6876 4.14246 56.7769 4.37168 56.8661C4.77023 57.0239 5.16671 57.1795 5.56733 57.3237C5.79861 57.4106 6.03196 57.4907 6.26325 57.5708C6.66799 57.7141 7.0748 57.8529 7.48368 57.9872C7.58074 58.0192 7.67573 58.0558 7.77072 58.0855L7.72942 58.0649C13.6168 59.9525 19.7066 60.8104 25.9017 60.934C25.4247 60.9683 24.9539 60.998 24.4934 61.0209C17.6292 61.3939 8.3861 61.5746 3.29992 61.7965L3.45067 61.856C3.45067 61.856 6.89514 63.2471 7.18631 63.3386C7.9607 63.588 8.74335 63.7962 9.55078 63.9861L9.39177 63.922C13.6375 64.8944 18.5543 65.0019 26.0215 64.3659C23.5434 64.963 20.9911 65.5098 18.4015 65.9308C17.0117 66.1596 13.592 66.6172 10.6576 66.9832H10.6804L8.09493 67.3081C6.69897 67.4843 5.74286 67.601 5.74286 67.601C5.94936 67.6742 6.14347 67.7405 6.34791 67.8046L6.47594 67.8458C6.66386 67.903 6.85384 67.9602 7.04796 68.0128L7.10165 68.0288C11.9173 69.3375 18.5956 69.1842 25.3152 67.8595C20.8589 69.4793 16.3695 71.0626 11.9937 72.7922C12.2704 72.8609 12.5533 72.9181 12.8383 72.9707L13.0923 73.0142C13.2988 73.0485 13.5218 73.0805 13.7407 73.1057L13.9989 73.1377C14.288 73.1675 14.5812 73.1926 14.8786 73.2086C14.9281 73.2086 14.9818 73.2086 15.0314 73.2086C15.2833 73.2201 15.5352 73.2269 15.7892 73.2269H16.1196C16.3262 73.2269 16.5327 73.2269 16.7392 73.2109C16.8507 73.2109 16.9601 73.2109 17.0696 73.1972C17.3607 73.1812 17.6519 73.1606 17.9472 73.1331C21.0737 72.8426 24.4417 71.916 27.8119 70.5615C25.561 72.0441 23.339 73.5701 21.2389 74.8079C20.9849 74.9566 20.7329 75.103 20.4831 75.2426L20.2187 75.389C20.0122 75.4966 19.8223 75.6041 19.6261 75.707L19.3452 75.8512C19.1387 75.9518 18.9487 76.0479 18.7526 76.1417L18.511 76.2561C18.2384 76.382 17.9699 76.5009 17.7035 76.6085C17.9534 76.6428 18.2053 76.6657 18.4573 76.6794H18.5626C18.8001 76.6908 19.0417 76.6931 19.2812 76.6908H19.4175C19.655 76.6908 19.8945 76.6725 20.1341 76.6519L20.2559 76.6405C20.5037 76.6176 20.7515 76.5879 20.9993 76.5513H21.053C21.3029 76.5124 21.5527 76.4666 21.8047 76.414L21.8646 76.4026C22.1165 76.3499 22.3684 76.2882 22.6204 76.2241L22.7195 76.1967C22.9694 76.1326 23.2172 76.0594 23.465 75.9839L23.5538 75.9541C23.8098 75.8741 24.0638 75.7894 24.3178 75.6979C27.054 74.7209 29.6559 73.1972 31.7953 71.8931C32.1773 71.6643 32.5325 71.4355 32.865 71.2342C32.039 71.9732 31.1386 72.7716 30.0545 73.6868C29.3255 74.3 28.0617 75.4005 26.7504 76.5993L26.6286 76.7114L26.577 76.7595L26.2259 77.1027L26.1103 77.2102L25.8232 77.4802L25.6395 77.6563L25.4329 77.8554L25.1955 78.0842L25.053 78.2237L24.7804 78.4891L24.6854 78.5852C24.5863 78.6813 24.4789 78.7797 24.3942 78.8758L24.3178 78.9536C24.2208 79.052 24.1237 79.1503 24.0329 79.2464L23.6963 79.6011H23.7293H23.7706H23.7954L23.8656 79.5873H23.8945L23.9936 79.5667L24.037 79.5553L24.1568 79.5279L24.2104 79.5164L24.3529 79.4798L24.4211 79.4615L24.5822 79.418L24.6606 79.3974L24.8444 79.3448L24.9353 79.3174L25.1418 79.2556L25.245 79.2213C25.3173 79.1984 25.3896 79.1755 25.4639 79.1481L25.5796 79.1092L25.815 79.0268L25.9451 78.9788L26.1929 78.8849L26.3416 78.8278L26.5956 78.7248L26.767 78.6539L27.0251 78.5463L27.2151 78.4617L27.4794 78.345L27.6859 78.2443L27.8614 78.162C30.2982 76.9997 33.6187 74.9406 37.309 71.3394C36.6605 72.2157 36.0699 72.9959 35.469 73.7738L35.4071 73.8538L35.3307 73.9545C34.5046 75.0298 33.6456 76.1257 32.6007 77.503L32.4912 77.6472L32.4417 77.7135L31.9089 78.4182H31.9213L31.9502 78.4045H31.9646L32.0225 78.3747H32.0349L32.1257 78.3244L32.1526 78.3107L32.2393 78.2626L32.2785 78.2398L32.3859 78.178L32.421 78.1574L32.578 78.0659L32.6193 78.0407L32.7597 77.9561L32.8134 77.9217L32.9703 77.8234L33.0199 77.7936L33.2388 77.6541L33.2718 77.6312L33.4783 77.5008L33.5465 77.4527L33.753 77.3223L33.8149 77.2788L34.0875 77.0912H34.0999L34.3683 76.899L34.4427 76.8464L34.6698 76.6771L34.7483 76.6199C34.9548 76.4689 35.1613 76.3088 35.3678 76.1372L35.4463 76.0731L35.7003 75.8695L35.7891 75.7963L36.0968 75.54L36.1257 75.5149L36.4726 75.2151L36.549 75.1488L36.8257 74.9017L36.9228 74.8125C37.0219 74.724 37.121 74.6325 37.2202 74.5379C37.2411 74.5201 37.261 74.501 37.28 74.4807C37.3998 74.3686 37.5216 74.2519 37.6435 74.1329L37.7116 74.0666C37.8108 73.9705 37.9181 73.8721 38.0049 73.7738L38.1081 73.6685L38.2155 73.561L38.1969 73.577C39.2948 72.4498 40.3029 71.2197 41.2098 69.9003C42.3063 68.2988 43.3203 66.171 44.1752 64.1073V64.1279L44.2867 63.8534C44.3342 63.739 44.3817 63.6246 44.4271 63.5102C44.4725 63.3958 44.518 63.2814 44.5613 63.1693C44.6047 63.0572 44.6667 62.9062 44.7162 62.778L44.8112 62.5287C44.8732 62.3708 44.9331 62.2106 44.9929 62.0551L45.0322 61.9498C45.3233 61.1719 45.5835 60.4398 45.8086 59.7832L46.0936 59.9731C46.3765 60.1584 46.6656 60.346 46.9609 60.5267C47.2562 60.7075 47.5536 60.8859 47.8571 61.0461C48.1607 61.2062 48.4622 61.3664 48.7658 61.5037C48.9186 61.57 49.0652 61.6364 49.2159 61.6936L49.4369 61.7805C49.5092 61.808 49.5835 61.8308 49.6558 61.856C49.8003 61.9086 49.9428 61.9475 50.0812 61.991L50.4942 62.0985C50.6187 62.13 50.7449 62.1521 50.8721 62.1649C50.989 62.1741 51.1063 62.1741 51.2231 62.1649C51.3275 62.154 51.431 62.1349 51.5329 62.1077C51.6223 62.0829 51.71 62.0508 51.7952 62.0116C51.9225 61.9523 52.0425 61.8755 52.1524 61.7828C52.1958 61.7493 52.2366 61.7118 52.2742 61.6707V61.3389C52.2375 61.2979 52.1989 61.2589 52.1586 61.2223C52.059 61.132 51.9534 61.0502 51.8427 60.9775C51.7728 60.9286 51.7004 60.8843 51.6258 60.8448C51.5447 60.7975 51.4605 60.757 51.3739 60.7235C51.1737 60.6407 50.966 60.5824 50.7544 60.5496L50.4013 60.4718C50.2794 60.4375 50.1535 60.4078 50.0254 60.3689C49.7673 60.2934 49.4947 60.2041 49.2139 60.1012C48.933 59.9982 48.6398 59.8724 48.3445 59.7557C48.0492 59.639 47.7477 59.4972 47.4462 59.3576L46.5376 58.9389L46.2092 58.7925C46.8618 58.0512 47.6197 57.1681 48.3982 56.1911L48.4415 56.1339C48.5448 56.0058 48.648 55.8731 48.7492 55.7404L48.8835 55.5711L49.1271 55.2508L49.2717 55.0609C50.4777 53.4594 51.6527 51.6657 52.4766 49.8857C53.2037 48.2636 53.6837 46.5196 53.8974 44.7241C53.8974 44.6944 53.8974 44.6646 53.8974 44.6349C53.9263 44.4061 53.949 44.1773 53.9696 43.9645C53.9696 43.9325 53.9696 43.8982 53.9696 43.8662C53.9924 43.6214 54.0089 43.3834 54.0213 43.1569C54.046 42.6993 54.0584 42.2623 54.0584 41.8871V41.8276C54.0584 41.0452 54.0151 40.5121 54.0006 40.3382V40.3176C54.0012 40.3069 54.0012 40.2962 54.0006 40.2856V40.2673C53.9221 40.4823 53.8437 40.6882 53.7673 40.8919C53.6909 41.0955 53.6434 41.2259 53.5835 41.3861C53.569 41.425 53.5566 41.4639 53.5422 41.5005C53.4802 41.6675 53.4203 41.8345 53.3605 41.9946C53.3006 42.1548 53.2386 42.3287 53.1808 42.4911C52.615 44.0583 52.1834 45.3213 51.7724 46.4812C51.9542 45.8887 52.1173 45.303 52.2495 44.7379C52.9846 41.6263 53.0569 38.1029 52.9516 35.3826C52.9578 35.3597 52.9557 35.3437 52.9557 35.33Z" fill="#D6E9F6"/>
<path d="M55.8076 43.3285C52.5222 51.7549 40.3075 53.4297 37.3091 68.4109C34.3106 83.3922 49.2222 104.381 64.5469 102.501C79.8715 100.62 80.1172 89.8304 90.5353 85.6641C100.953 81.4978 105.802 82.8888 109.947 74.9315C113.781 67.5644 106.453 63.7413 114.967 53.3404C118.521 48.9934 126.384 37.46 119.601 27.5236C111.549 15.7386 101.765 17.2852 97.0567 19.9941C92.3484 22.703 89.35 26.6474 83.3118 22.9684C77.2737 19.2894 68.3672 18.507 62.3827 26.1715C57.0859 32.9712 59.3037 34.3645 55.8076 43.3285Z" fill="#D6E9F6"/>
<path d="M124.148 84.1792V88.0251H124.549V84.1792C124.549 83.9023 124.46 83.6758 124.342 83.6758C124.224 83.6758 124.148 83.9023 124.148 84.1792Z" fill="#52B958"/>
<path d="M122.857 86.0759H126.287V85.6183H122.857C122.609 85.6183 122.409 85.719 122.409 85.8471C122.409 85.9752 122.609 86.0759 122.857 86.0759Z" fill="#52B958"/>
<path d="M55.217 12.1374C55.2274 11.9841 55.2377 11.8331 55.2459 11.6798C55.2459 11.6135 55.2459 11.5517 55.2459 11.4853C55.2459 11.3687 55.2563 11.2566 55.2604 11.1376C55.2645 11.0186 55.2604 10.9454 55.2604 10.8493C55.2604 10.7532 55.2604 10.6937 55.2604 10.6205C55.2604 10.4512 55.2604 10.2842 55.2604 10.1263C55.0023 10.4535 54.7441 10.7898 54.486 11.1307L54.2134 11.5014C54.0462 11.7302 53.881 11.9589 53.7158 12.1877C53.6166 12.325 53.5196 12.4669 53.4225 12.6064C53.2656 12.8352 53.1086 13.064 52.9538 13.2791C52.8588 13.4186 52.7679 13.5582 52.675 13.6978C52.5263 13.9311 52.3714 14.1698 52.2103 14.4139C52.1732 14.4711 52.1339 14.5283 52.0968 14.5878L52.1257 14.5489C49.7943 18.1912 47.8882 22.1859 47.2336 25.8191C47.2336 25.7985 47.2336 25.7756 47.2336 25.7551C47.215 25.858 47.2026 25.9587 47.1861 26.0594C47.1696 26.16 47.1593 26.2195 47.1469 26.2881C47.1076 26.5444 47.0767 26.7983 47.0519 27.0477C47.0311 27.0549 47.013 27.0694 47.0003 27.0889C46.6802 27.6403 46.3808 28.2008 46.0194 28.7202C45.4267 27.5556 44.8279 26.398 44.2104 25.2517C44.5367 24.5882 44.8919 23.9156 45.0034 23.172C45.1046 23.0576 45.2099 22.9432 45.2945 22.8197C45.3297 22.7762 45.3648 22.7281 45.3978 22.6824C45.4763 22.5794 45.5506 22.4742 45.6229 22.3667C45.6601 22.314 45.6952 22.2614 45.7303 22.2065C45.8005 22.099 45.8666 21.9777 45.9368 21.877C45.9657 21.8267 45.9967 21.7787 46.0235 21.7283C46.1123 21.5682 46.199 21.4057 46.2775 21.241L46.2899 21.2136C46.3642 21.061 46.4331 20.9009 46.4964 20.7331C46.5212 20.6759 46.5418 20.6187 46.5645 20.5615C46.61 20.4425 46.6554 20.3327 46.6967 20.2046C46.7194 20.1405 46.7401 20.0742 46.7607 20.0101L46.8062 19.8797L46.7938 19.9049C47.9791 16.1367 47.2625 11.3755 46.2362 7.49752V7.48379C46.0689 6.86148 45.8975 6.26204 45.722 5.69235L45.691 5.58711C45.6105 5.32858 45.532 5.07691 45.4515 4.83439L45.3957 4.66051L45.1603 3.95812C45.0777 4.13886 44.9972 4.32418 44.9208 4.5095L44.8113 4.77261C44.77 4.87786 44.7287 4.9831 44.6895 5.09063C44.6503 5.19817 44.6255 5.27367 44.5945 5.36747C44.5635 5.46128 44.5202 5.57567 44.4851 5.6832C44.4499 5.79074 44.4293 5.86395 44.4025 5.95318C44.3756 6.04241 44.3322 6.18197 44.2992 6.29408C44.2662 6.40618 44.2517 6.46567 44.2269 6.55261C44.1939 6.67387 44.1608 6.79513 44.1299 6.91868L44.0679 7.17035C44.0369 7.29847 44.006 7.42659 43.9771 7.557C43.9585 7.63937 43.942 7.72173 43.9254 7.8041C43.8965 7.9368 43.8697 8.0695 43.8428 8.20448C43.8263 8.28914 43.8119 8.37379 43.7953 8.45844C43.7726 8.58885 43.7478 8.72155 43.7251 8.85425C43.7251 8.88628 43.7148 8.91602 43.7086 8.94805V8.92975C43.4469 10.5655 43.3204 12.2242 43.3307 13.8854C43.3307 13.8854 43.3307 13.9037 43.3307 13.9128C43.3307 14.0913 43.3307 14.272 43.3307 14.4505C43.3307 14.4917 43.3307 14.5351 43.3307 14.5763C43.3307 14.7609 43.3369 14.9462 43.3493 15.1323C43.3493 15.1666 43.3493 15.2009 43.3493 15.2352C43.3493 15.4274 43.3679 15.6196 43.3803 15.8095C43.3803 15.837 43.3803 15.8621 43.3803 15.8896C43.3927 16.0886 43.4071 16.2854 43.4236 16.4821C43.4236 16.5005 43.4236 16.5188 43.4236 16.5371L43.4794 17.1434C43.4794 17.1434 43.4794 17.1662 43.4794 17.1777C43.5 17.3836 43.5228 17.5872 43.5475 17.7908C43.5465 17.7969 43.5465 17.8031 43.5475 17.8091C43.7626 19.6399 44.1873 21.4328 44.8113 23.1446C44.6684 23.8148 44.4263 24.4541 44.0948 25.0367C43.2997 23.5678 42.4696 22.1219 41.5713 20.7148C41.5011 20.5157 41.4309 20.3167 41.3648 20.1108L41.1996 19.6166L41.0117 19.0469C40.8341 18.5024 40.6544 17.9418 40.4665 17.363C39.7597 15.0818 38.9499 12.8414 38.0401 10.6503C37.1242 8.5196 35.9847 6.51604 34.6452 4.6811L34.6638 4.6994L34.5399 4.53238L34.4449 4.40655C34.2838 4.19148 34.1227 3.981 33.9596 3.77737L33.8749 3.67213C33.7152 3.47232 33.5562 3.28013 33.3979 3.09557C33.3838 3.08146 33.3707 3.06616 33.3587 3.04982C33.1955 2.86221 33.0344 2.68146 32.8713 2.50758L32.766 2.39319C32.6111 2.22846 32.4562 2.0683 32.3034 1.9173L32.194 1.80977C32.0391 1.65877 31.8842 1.51234 31.7335 1.37735L31.6612 1.31558C31.5187 1.18974 31.3783 1.07077 31.2379 0.958664C31.2131 0.938073 31.1883 0.915194 31.1635 0.89689C31.0148 0.780207 30.8724 0.668099 30.7299 0.574295L30.6349 0.507945C30.4945 0.411853 30.3561 0.324912 30.2219 0.247123C30.1971 0.231108 30.1723 0.219668 30.1475 0.205941C30.0071 0.125864 29.8687 0.0549386 29.7345 -0.00454712C29.7696 0.16247 29.8068 0.340928 29.844 0.526249L29.8605 0.599462C29.8935 0.751989 29.9286 0.919007 29.9658 1.10051C29.9761 1.1417 29.9844 1.18288 29.9927 1.22635C30.036 1.41853 30.0794 1.61529 30.1269 1.82121C30.1475 1.90586 30.1682 1.99738 30.1888 2.08432C30.2095 2.17126 30.2405 2.29709 30.2673 2.4092L30.3107 2.59681V2.58537C31.2234 6.27806 33.0179 11.6501 37.0282 16.5897C37.0155 16.5787 37.0038 16.5664 36.9931 16.5531C37.0613 16.6377 37.1335 16.7224 37.1996 16.807L37.3772 17.0221C37.53 17.2051 37.687 17.3859 37.848 17.5666L37.9637 17.697C38.1702 17.9258 38.3767 18.1546 38.5832 18.3834L38.6679 18.4726C38.8537 18.6648 39.0416 18.8547 39.2337 19.0446L39.4195 19.2254C39.5847 19.3855 39.7541 19.5457 39.9255 19.7058L40.132 19.898C40.3096 20.0582 40.4913 20.2183 40.6751 20.3785C40.737 20.4334 40.799 20.4883 40.863 20.5409C41.0055 20.6622 41.15 20.7697 41.2966 20.9001C41.9595 21.9388 42.5894 22.9981 43.1965 24.0712C42.5278 23.7531 41.9067 23.3242 41.3545 22.7991C41.2719 22.6687 41.1872 22.5383 41.0963 22.4101C41.0571 22.3506 41.0158 22.2934 40.9724 22.234L40.8712 22.0898L40.8816 22.115C38.1495 18.4337 32.6731 15.7409 29.018 14.2858C28.4314 14.064 27.8344 13.8777 27.2296 13.7275L27.1181 13.6978L26.67 13.5879L26.4924 13.5445L26.2859 13.4964L26.0959 13.453L25.8894 13.4095L25.5487 13.3386L25.3897 13.3065L25.1832 13.2631L25.0324 13.2333L24.8032 13.1898L24.7041 13.1715C24.6029 13.1509 24.4976 13.1349 24.4129 13.1189L24.3159 13.1006L24.128 13.0686L24.0557 13.0549L23.8616 13.0228H23.8409L23.6736 12.9954H23.6385L23.558 12.9839H23.5394H23.5084C23.5642 13.1212 23.6303 13.2608 23.7005 13.398C23.7232 13.4415 23.7459 13.485 23.7707 13.5285C23.8244 13.6314 23.8843 13.7344 23.9462 13.8373L24.0206 13.9586C24.1052 14.0913 24.194 14.224 24.2911 14.359L24.3943 14.4985C24.4625 14.59 24.5327 14.6816 24.6008 14.7731L24.7413 14.947C24.8135 15.0339 24.89 15.1208 24.9664 15.2078C25.0428 15.2947 25.1563 15.4183 25.2555 15.5235L25.4083 15.686C28.479 18.8547 34.1227 21.8336 38.292 22.822H38.3127L38.4737 22.8563C38.608 22.8883 38.7401 22.9158 38.8702 22.9409L39.052 22.9775L39.436 23.0416L39.5785 23.0645C39.7499 23.0874 39.9193 23.1079 40.0845 23.124H40.1175C40.2683 23.1377 40.4169 23.1468 40.5594 23.1514H40.6813C40.799 23.1514 40.9125 23.1514 41.0241 23.1514H41.1376L41.371 23.1331C41.9784 23.6623 42.6481 24.0972 43.3617 24.4258C43.375 24.4338 43.3899 24.4378 43.405 24.4372C44.2042 25.8626 44.9662 27.3108 45.7158 28.7705C45.2264 28.7705 44.737 28.7934 44.2496 28.7591C44.0741 28.647 43.8965 28.5303 43.7127 28.4319L43.5062 28.3107C43.2309 28.1581 42.9473 28.0056 42.6554 27.8531H42.643C39.6065 26.3327 36.3955 25.2827 33.1005 24.7324C30.9818 24.2908 28.415 24.3709 26.2859 24.3549C25.8034 24.3482 25.321 24.3688 24.8404 24.4166C24.6649 24.4326 24.4914 24.4532 24.3179 24.4761L24.161 24.499C24.0123 24.5203 23.8657 24.5432 23.7211 24.5676L23.5374 24.6019C23.3804 24.6317 23.2255 24.6637 23.0748 24.698L22.9715 24.7209C22.7898 24.7644 22.6143 24.8124 22.4408 24.8605L22.3025 24.904C22.1731 24.9421 22.0471 24.9833 21.9246 25.0275L21.7821 25.0778C21.6231 25.135 21.4703 25.1945 21.3298 25.2586C21.5694 25.3936 21.811 25.5354 22.0547 25.6796L22.8993 26.1715L22.9881 26.2241C23.2462 26.3728 23.5084 26.5215 23.7707 26.6656L23.8161 26.6908C24.0887 26.8418 24.3634 26.986 24.6421 27.1232L24.669 27.1392C25.3108 27.4662 25.9743 27.7385 26.6535 27.9537C28.7702 28.6081 30.4986 28.9604 32.5409 29.45C35.7647 30.0441 39.0553 30.0387 42.2775 29.434L42.1929 29.4592C42.356 29.4294 42.5191 29.3906 42.6823 29.3585C42.8454 29.3265 42.9879 29.299 43.1428 29.2647C43.5 29.1869 43.8573 29.1 44.2166 29.0085C44.7494 29.0428 45.2842 29.0085 45.8191 29.0222C46.166 29.6994 46.5102 30.3782 46.8516 31.0584C46.3353 31.1545 45.8191 31.2575 45.3049 31.3353C45.0385 31.3055 44.7638 31.2781 44.4789 31.2529L44.1154 31.2232L43.5909 31.1843L43.1779 31.1614L42.6348 31.1385H42.2218H42.102H42.1268C38.9817 31.0836 35.2998 31.5 31.6736 33.0787L31.7046 33.0626C31.5559 33.1267 31.4093 33.2022 31.2606 33.2709C31.0128 33.3852 30.765 33.4996 30.5172 33.6209C30.3354 33.7124 30.1579 33.82 29.9782 33.9183C29.7572 34.0373 29.5363 34.1471 29.3174 34.2821C29.0634 34.4308 28.8135 34.6001 28.5616 34.7626C28.417 34.8564 28.2725 34.941 28.1279 35.0394C27.7328 35.3109 27.3418 35.5999 26.955 35.9065C27.0376 35.9584 27.1223 36.0087 27.209 36.0575L27.304 36.1056C27.3618 36.133 27.4196 36.1628 27.4795 36.1879L27.5993 36.2383L27.7624 36.3046L27.8966 36.3504L28.0598 36.4007L28.2064 36.4419L28.3716 36.4831L28.5244 36.5174L28.6917 36.5494L28.8548 36.5769L29.0221 36.5998C29.0778 36.5998 29.1357 36.6158 29.1955 36.6204L29.3546 36.6364L29.5445 36.6524H29.6643C29.9348 36.6684 30.2136 36.6707 30.4903 36.6638H30.5894H30.8517H30.955L31.2234 36.6455H31.3205C31.4155 36.6455 31.5084 36.6295 31.6013 36.6181H31.6839L31.9854 36.5815H32.0391L32.3695 36.5357L32.6421 36.4945C34.2527 36.2174 35.8409 35.7989 37.3917 35.243C38.2755 34.9296 39.3101 34.5452 40.3591 34.1197L40.4231 34.0922L41.0571 33.8291L41.0943 33.8131C41.3008 33.7284 41.4949 33.6438 41.6931 33.5546L41.8749 33.4745L42.3333 33.1748L42.5171 33.0901L43.023 32.8476L43.1242 32.7973C43.3307 32.6989 43.5207 32.5982 43.7107 32.4975L43.8139 32.4426L44.2538 32.2024L44.4066 32.1132C44.5346 32.04 44.6565 31.9645 44.7742 31.8844L44.9105 31.7997C45.0633 31.7013 45.2119 31.603 45.3462 31.5046C45.8872 31.4245 46.4221 31.3147 46.959 31.2186C47.2274 31.7494 47.4966 32.2832 47.7664 32.8201C48.0493 33.3761 48.4004 34.0648 48.7989 34.8518H48.7638C48.1764 34.9723 47.6043 35.1713 47.0602 35.4444C46.866 35.4947 46.6616 35.5382 46.453 35.5748L46.3477 35.5954C46.1412 35.6297 45.9347 35.6617 45.7137 35.6892C43.8945 35.918 41.7344 35.9408 39.9626 36.6844C38.4386 37.341 36.1754 38.8007 34.2322 40.2902L34.1991 40.3176L34.0463 40.4366C33.9265 40.5281 33.8088 40.6219 33.6932 40.7134C33.6209 40.7706 33.5486 40.8278 33.4867 40.8873C33.4247 40.9468 33.2926 41.0452 33.1976 41.1161C33.1026 41.187 33.0592 41.2282 32.9911 41.2854C32.8445 41.409 32.6999 41.5302 32.5616 41.6515L32.4232 41.775L32.13 42.0404L31.9751 42.1846C31.8863 42.2669 31.8016 42.347 31.7211 42.4271L31.5931 42.5529C31.4753 42.6719 31.3618 42.7817 31.2585 42.8984C31.3937 42.9594 31.5315 43.0129 31.6715 43.0585C31.7335 43.0791 31.7975 43.0929 31.8615 43.1112C31.9255 43.1295 32.0246 43.1592 32.1072 43.1775C32.1898 43.1958 32.258 43.205 32.3323 43.2187C32.4067 43.2324 32.4831 43.2461 32.5595 43.2553L32.799 43.2782C32.8754 43.2782 32.9518 43.2919 33.0282 43.2942C33.1047 43.2965 33.1914 43.2942 33.274 43.2942C33.3566 43.2942 33.433 43.2942 33.5115 43.2942L33.7613 43.2805L34.0091 43.2599L34.259 43.2324L34.5171 43.1935L34.767 43.1501L34.8868 43.1295H34.8661C37.4557 42.6124 40.3694 40.9559 42.8372 39.1828L42.8578 39.1691C43.0519 39.0295 43.2419 38.89 43.4298 38.7504L43.5785 38.636C43.721 38.5308 43.8614 38.4232 43.9915 38.3157L44.1567 38.1876L44.5573 37.8696L44.6957 37.7574C44.865 37.6202 45.0323 37.4829 45.1934 37.3479C45.3606 37.2084 45.5217 37.0711 45.6786 36.9361L45.8005 36.8286L46.1268 36.5403L46.2713 36.4122L46.5584 36.1468L46.6823 36.0346L47.0498 35.6823H47.0767C47.626 35.4007 48.2054 35.1977 48.801 35.0783C48.8151 35.0756 48.8285 35.0692 48.84 35.0596C48.8515 35.0501 48.8607 35.0377 48.8671 35.0234L50.1474 37.5538C50.1474 37.5538 50.1474 37.5538 50.1371 37.5538C49.7777 38.1944 49.437 38.8831 48.9207 39.3842C48.7886 39.4139 48.6544 39.4505 48.5181 39.4894L48.4024 39.5214C48.2228 39.5763 48.041 39.6358 47.8531 39.7022L47.7251 39.7479C47.5351 39.8166 47.3431 39.8898 47.149 39.9767L47.1118 39.9904C46.9053 40.0728 46.6988 40.1643 46.4923 40.2581L46.3622 40.3199C46.1557 40.4137 45.9492 40.5167 45.7427 40.6219L45.6208 40.686C45.4019 40.7981 45.183 40.9148 44.9621 41.0406C44.737 41.1664 44.5119 41.2968 44.2868 41.4341C44.2476 41.457 44.2083 41.4799 44.1712 41.5051C43.9523 41.6377 43.7334 41.7773 43.5145 41.9192L43.4711 41.9466C41.9274 42.9505 40.4877 44.1389 39.1779 45.4906L39.1986 45.4654C39.1552 45.5112 39.116 45.5569 39.0726 45.6004L38.9033 45.7834L38.6968 46.0122L38.5274 46.2044L38.3354 46.4332L38.1722 46.6323C38.1124 46.7078 38.0504 46.7833 37.9905 46.8611C37.9306 46.9388 37.8893 46.9938 37.8377 47.0601L37.6642 47.2889L37.5238 47.4879C37.4681 47.568 37.4123 47.6458 37.3586 47.7167C37.3049 47.7877 37.2719 47.8517 37.2265 47.9204L37.0757 48.1491C37.0303 48.2246 36.9869 48.3001 36.9436 48.3779L36.8155 48.593C36.7329 48.7394 36.6544 48.8881 36.5801 49.0346C36.7309 48.9957 36.8857 48.9499 37.0447 48.9042L37.1976 48.8607L37.5837 48.7326L37.7551 48.6799L38.2569 48.5175L38.387 48.474C38.5212 48.4283 38.6555 48.3825 38.8 48.3322L39.023 48.2544L39.37 48.1263L39.5951 48.0416C39.7706 47.973 39.9482 47.9043 40.1258 47.8311L40.3323 47.7488L40.7122 47.5886L40.9538 47.4811C41.0798 47.4262 41.2037 47.3713 41.3297 47.3118L41.4866 47.2408H41.4701C43.9894 46.0649 46.5418 44.3947 47.9935 42.1617C48.0576 42.0633 48.1195 41.9649 48.1794 41.8643L48.2723 41.7018C48.3178 41.6194 48.3632 41.5371 48.4066 41.4524L48.4892 41.29C48.5408 41.1825 48.5903 41.0749 48.6378 40.9651C48.6523 40.9285 48.6688 40.8896 48.6853 40.853C48.737 40.7249 48.7865 40.5945 48.8319 40.4618C48.8485 40.4114 48.865 40.3611 48.8794 40.3108C48.9125 40.2101 48.9435 40.1071 48.9703 40.0042C48.9827 39.9538 48.9972 39.9058 49.0095 39.8555C49.0343 39.7502 49.057 39.645 49.0777 39.5397C49.5939 39.0478 49.9429 38.3729 50.294 37.7323C51.2191 39.5626 52.262 41.6423 53.3193 43.7724C52.8442 44.1632 52.3477 44.5208 51.8324 44.8431C51.5495 44.8614 51.2687 44.8866 50.9858 44.914L50.7566 44.9392C50.5026 44.9689 50.2486 45.0033 49.9925 45.0444L49.85 45.0628H49.8603C48.509 45.2765 47.1963 45.7235 45.9698 46.3875C43.7284 47.5917 41.6495 49.1364 39.7933 50.977C39.8098 50.9587 39.8305 50.9381 39.8449 50.9198L39.7004 51.0662L39.5393 51.2264C39.2791 51.4872 39.0168 51.7549 38.7525 52.034C38.8454 52.0706 38.9425 52.1027 39.0375 52.137L39.1036 52.1599C39.2048 52.1919 39.3101 52.2239 39.4092 52.2514H39.4257C39.5248 52.2788 39.6322 52.3017 39.7272 52.3223L39.7954 52.3383C39.9055 52.3597 40.017 52.378 40.1299 52.3932H40.1712C40.2745 52.3932 40.3777 52.4138 40.4913 52.4207H40.5636C40.6833 52.4207 40.8072 52.4207 40.9353 52.4207H40.9931C41.1087 52.4207 41.2285 52.407 41.3483 52.3932H41.4185C41.5548 52.3772 41.6931 52.3543 41.8315 52.3246H41.8563C42.2884 52.2333 42.7126 52.1009 43.1242 51.9288C45.8934 50.7848 49.0736 48.8996 51.0952 46.2822V46.2936L51.1138 46.2685C51.2398 46.1038 51.3616 45.9367 51.4773 45.7651C51.5062 45.724 51.5371 45.6851 51.564 45.6439C51.6941 45.4471 51.818 45.2481 51.9357 45.0444C52.4465 44.7231 52.9402 44.3694 53.4143 43.9851C56.0988 49.3961 58.8701 55.0884 60.0368 57.8751C60.1194 58.0741 60.3817 57.8888 60.3032 57.692C59.4359 55.6329 57.596 51.7435 55.5825 47.6069C56.2021 47.3598 56.8463 47.115 57.3647 46.6391C57.3739 46.6301 57.3816 46.6192 57.3874 46.6071H57.439C57.6455 46.5751 57.852 46.5293 58.0585 46.479L58.1576 46.4561C58.3497 46.4058 58.5335 46.3463 58.7152 46.2822L58.8164 46.2456C59.0002 46.1793 59.1778 46.106 59.3512 46.0168L59.3967 45.9962C59.5619 45.9184 59.7229 45.8361 59.8819 45.7491L59.9563 45.7079C60.0781 45.6393 60.1958 45.5684 60.3135 45.4952L60.2743 45.5135C62.2877 44.2574 63.6259 42.3104 64.7079 41.2602C66.4364 39.5901 67.283 37.6728 67.8241 36.1307C67.9872 35.6732 68.1235 35.2316 68.2371 34.8518C68.1594 34.8448 68.0814 34.8448 68.0037 34.8518H67.9356C67.8654 34.8518 67.7931 34.8724 67.7187 34.8884H67.6692C67.5825 34.9113 67.4895 34.9387 67.3945 34.9731L67.3057 35.0074C67.2314 35.0371 67.155 35.0692 67.0786 35.1058L66.9877 35.1469C66.8865 35.195 66.7812 35.2476 66.68 35.3071L66.5768 35.3666C66.4969 35.4123 66.4164 35.4604 66.3352 35.5107L66.2133 35.5885C66.1039 35.6571 65.9924 35.7326 65.8788 35.8173L65.7838 35.8859C65.6929 35.95 65.6 36.0186 65.505 36.0896L65.3749 36.1879L65.0487 36.4533L64.997 36.4945C64.8669 36.5998 64.7348 36.7096 64.6026 36.8217L64.5138 36.8995C64.3651 37.0276 64.2144 37.158 64.0616 37.2953H64.074C62.3724 38.8499 60.8083 40.5805 59.4029 42.4637L59.3574 42.5232L59.3161 42.5804L59.2872 42.6193L58.9981 43.0242V43.0379L58.9671 43.0791C58.9341 43.1295 58.9011 43.1752 58.868 43.2233C58.8308 43.2759 58.7999 43.3262 58.7648 43.3766L58.6326 43.5733C58.614 43.6031 58.5913 43.6351 58.5706 43.6648L58.5603 43.6809L58.4757 43.8136L58.4054 43.9234L58.3683 43.9829C58.3456 44.0218 58.3208 44.0606 58.296 44.0973V44.1133L58.2237 44.2322C58.2194 44.2402 58.2146 44.2479 58.2093 44.2551L58.137 44.3787L58.0585 44.5137L57.9883 44.6395L57.9739 44.6669C57.9553 44.7013 57.9346 44.7333 57.9181 44.7676L57.9036 44.7951V44.8065L57.8851 44.8385L57.8458 44.914L57.7818 45.0399L57.7715 45.0605L57.7219 45.1566C57.7179 45.1677 57.7131 45.1784 57.7075 45.1886L57.6145 45.3007C57.6112 45.3103 57.6071 45.3195 57.6021 45.3281C57.567 45.4036 57.5319 45.4791 57.503 45.5569C57.4972 45.5667 57.493 45.5775 57.4906 45.589L57.4782 45.6187C57.4782 45.6187 57.4679 45.6416 57.4638 45.6507V45.6668L57.4493 45.7011C57.4407 45.7278 57.4303 45.7538 57.4184 45.7789C57.4158 45.7884 57.4123 45.7976 57.408 45.8063L57.3709 45.907C57.372 45.913 57.372 45.9193 57.3709 45.9253C57.3605 45.9527 57.3523 45.9802 57.342 46.0054C57.3429 46.016 57.3429 46.0267 57.342 46.0374C57.3338 46.059 57.3269 46.0812 57.3213 46.1038C57.3213 46.1152 57.3213 46.1243 57.3213 46.1335C57.3213 46.1426 57.3048 46.1838 57.2986 46.2113C57.2995 46.2166 57.2995 46.222 57.2986 46.2273C57.2986 46.257 57.2862 46.2868 57.2779 46.3165V46.3394L57.2655 46.4035C57.2655 46.4035 57.2655 46.4218 57.2655 46.4309C57.2655 46.4401 57.2655 46.463 57.2655 46.479C56.7555 46.9366 56.1277 47.1653 55.5247 47.4124C54.7937 45.9139 54.042 44.3855 53.3069 42.9053C53.7916 42.4621 54.2535 41.9893 54.6904 41.489C54.8846 41.4021 55.0745 41.3129 55.2604 41.2213L55.4463 41.1298C55.7044 41.0017 55.9563 40.8667 56.2041 40.7294L56.3342 40.6562C56.5593 40.5281 56.7823 40.3954 56.9992 40.2604L57.121 40.1849C57.3585 40.0362 57.5939 39.8806 57.8252 39.7273L57.978 39.6221C58.1969 39.4688 58.4158 39.3109 58.6326 39.1508C59.4297 38.5582 60.2103 37.913 61.0322 37.2061C61.6042 36.7119 62.042 36.3229 62.4281 35.9157L62.3641 35.9203L62.4405 35.8379L62.5211 35.7509C62.6016 35.6617 62.6821 35.5679 62.7606 35.4741L62.8267 35.3917C62.9072 35.2934 62.9857 35.1927 63.0642 35.0875L63.124 35.0028C63.2046 34.8907 63.2872 34.774 63.3677 34.6505L63.4152 34.5795C63.504 34.4423 63.5928 34.3004 63.6878 34.1448C64.4645 32.9154 64.9986 31.5184 65.2552 30.0449C64.4096 30.3861 63.5823 30.7803 62.7771 31.2255C62.6801 31.2781 62.5809 31.3399 62.4777 31.4039L62.3889 31.4634C62.3104 31.5137 62.2299 31.5686 62.1493 31.6281L62.0585 31.6899C61.9532 31.7677 61.852 31.8501 61.7322 31.937C61.6145 32.0285 61.4947 32.1246 61.375 32.2253L61.3048 32.2848L61.0095 32.5364L60.931 32.6074C60.8195 32.7034 60.708 32.8041 60.5985 32.9048L60.5737 32.9277C60.454 33.0352 60.3383 33.145 60.2206 33.2548L60.1174 33.3532L59.8985 33.566L59.8221 33.6392C59.3141 34.138 58.8474 34.623 58.4901 35.012C57.7462 35.7717 57.0756 36.6152 56.4891 37.5287L56.4726 37.5561C56.2702 37.8718 56.0795 38.1899 55.9006 38.5102L55.8902 38.5262C55.5185 39.1897 55.184 39.8646 54.8577 40.5556L54.5067 41.306C54.0769 41.7989 53.6233 42.2656 53.1479 42.7039C52.3549 41.1024 51.5867 39.5763 50.8887 38.1944C51.3905 37.7643 51.8201 37.2518 52.2826 36.7691C53.0549 36.57 54.7999 35.7509 56.6935 34.3507L56.7823 34.2867L57.0756 34.0579L57.2552 33.9183L57.4617 33.7444L57.6868 33.5614C59.0323 32.4595 60.2284 31.1497 61.2387 29.672C61.4927 29.2899 61.7322 28.8941 61.9532 28.4845C61.98 28.4388 62.0007 28.3884 62.0275 28.3427C62.1081 28.1848 62.1907 28.0292 62.2671 27.8668C62.3435 27.7044 62.4075 27.5579 62.4736 27.4092C62.4983 27.3497 62.5252 27.2948 62.55 27.2353C62.9187 26.3579 63.1859 25.4324 63.345 24.4807C63.0063 24.6637 62.6759 24.8582 62.3497 25.0595C62.2671 25.1099 62.1865 25.1579 62.106 25.2105C61.7942 25.4073 61.4865 25.6086 61.1891 25.8214C61.1292 25.8626 61.0693 25.9083 61.0095 25.9518C60.7534 26.1379 60.5035 26.327 60.2598 26.5192L60.0533 26.6885C59.778 26.9127 59.5109 27.1415 59.2521 27.3749L59.0456 27.5671C58.8246 27.7707 58.6078 27.9766 58.3992 28.1848L58.2485 28.3335L58.2237 28.3564H58.234C57.4483 29.1485 56.725 30.0134 56.072 30.9418C54.6512 33.0009 53.5072 34.6482 52.8113 35.68L52.7431 35.7807L52.611 35.9775L52.5139 36.1216C52.4878 36.1643 52.4609 36.2055 52.4334 36.2451L52.3466 36.3755L52.2826 36.4762C52.262 36.506 52.2413 36.5403 52.2248 36.5677C51.7519 37.0528 51.3224 37.579 50.8123 38.016C49.8831 36.1857 49.0859 34.6253 48.5408 33.582C48.9744 33.0283 49.4639 32.525 49.8583 31.9347C49.8583 31.9347 49.8583 31.9347 49.8583 31.9187C49.9904 31.8478 50.1247 31.77 50.2589 31.6899L50.3869 31.5732C50.5604 31.468 50.7338 31.3582 50.9114 31.2392L50.9465 31.214C51.12 31.0973 51.2935 30.9738 51.469 30.8457L51.6136 30.7404C51.798 30.6031 51.9818 30.4613 52.1649 30.3149L52.1794 30.3011C52.3632 30.1547 52.5469 30.0014 52.7307 29.8436L52.8588 29.7315C53.2387 29.402 53.6187 29.0451 53.9925 28.679L54.0978 28.5761C56.6089 26.0594 58.8618 22.7556 59.5453 19.6395C59.5453 19.6189 59.5453 19.5983 59.5557 19.58C59.599 19.3809 59.6341 19.1819 59.6631 18.9851C59.6734 18.9142 59.6816 18.8456 59.692 18.7746C59.7188 18.5458 59.7395 18.3399 59.7498 18.1249C59.6754 18.1455 59.6023 18.1715 59.5309 18.2027C59.5088 18.2106 59.4874 18.2205 59.4669 18.2324L59.2955 18.3148L59.2108 18.3628L59.0415 18.4658L58.9506 18.5253L58.7689 18.6534L58.678 18.722C58.6099 18.7723 58.5417 18.8273 58.4715 18.8822L58.3931 18.9462C58.296 19.0263 58.1866 19.111 58.0978 19.2002C58.0028 19.2848 57.9098 19.3718 57.8128 19.4633C56.6295 20.5844 55.2377 22.2866 53.9161 24.1741C53.9 24.1995 53.8828 24.2239 53.8644 24.2473C53.788 24.3571 53.7116 24.4761 53.6373 24.5791L53.5175 24.753L53.2945 25.0847C53.2552 25.1419 53.2181 25.1991 53.1809 25.2586C53.1045 25.3707 53.0302 25.4874 52.9558 25.5995L52.8546 25.7573L52.6234 26.1211L52.5593 26.2218C52.2744 26.6794 51.9997 27.137 51.7333 27.5945C51.7333 27.6083 51.7147 27.6243 51.7044 27.6403L51.4979 28.0132C51.4711 28.0636 51.4422 28.1139 51.4132 28.1619L51.2274 28.5028L51.1324 28.6813C51.0746 28.7888 51.0168 28.8964 50.961 29.0039L50.8619 29.1961C50.8082 29.299 50.7566 29.3997 50.707 29.5027C50.6719 29.569 50.6389 29.6376 50.6058 29.704C50.5728 29.7703 50.5108 29.8985 50.4654 29.9968L50.3663 30.205L50.2403 30.4819C50.2052 30.5574 50.1742 30.6306 50.1412 30.7107L50.0317 30.9646C49.9946 31.0493 49.9615 31.1339 49.9264 31.2186C49.8913 31.3032 49.8686 31.3604 49.8418 31.4291C49.7984 31.5366 49.7612 31.6396 49.722 31.7448C49.7096 31.7448 49.6972 31.7448 49.6869 31.7654C49.3028 32.3374 48.832 32.8293 48.4066 33.3669C47.6301 31.9004 46.8826 30.4201 46.135 28.9467C46.5191 28.3999 46.8392 27.8027 47.1675 27.2239L47.5413 27.1621C47.7356 27.1207 47.9273 27.0656 48.1154 26.9974C48.1753 26.9768 48.2331 26.9516 48.293 26.9288C48.4189 26.883 48.5408 26.8304 48.6626 26.7709L48.8485 26.6794C48.9744 26.6107 49.0983 26.5375 49.2222 26.4506C49.2677 26.4208 49.3152 26.3934 49.3606 26.3614C52.8918 23.9613 54.8515 17.0175 55.2212 12.2152C55.2129 12.2015 55.2129 12.1694 55.217 12.1374Z" fill="#52B958"/>
<path d="M111.27 65.567C111.27 65.567 121.203 49.2313 125.125 43.5824C126.141 42.1182 126.595 43.3193 126.556 43.4086C126.205 44.191 111.481 67.1319 111.481 67.1319C111.481 67.1319 106.969 73.4603 105.651 74.2519C105.164 74.547 105.079 74.2404 104.939 74.1901C104.798 74.1398 104.98 73.5952 105.703 72.918C105.703 72.918 109.975 67.8228 111.27 65.567Z" fill="#ECF5EE"/>
<path d="M116.015 61.6066C115.984 61.6935 115.97 61.7866 115.973 61.8799C115.976 61.9733 115.997 62.0649 116.034 62.1489C116.176 62.3671 116.35 62.558 116.548 62.714C117.424 63.5399 117.564 63.0549 117.748 62.7643C117.82 62.6258 117.842 62.4628 117.812 62.3067C117.637 62.0643 117.436 61.8454 117.215 61.6547C116.736 61.339 116.249 60.7098 116.015 61.6066ZM124.561 55.3881C124.614 55.1593 124.943 54.7612 124.399 54.4729C124.207 54.3677 123.516 54.3471 123.257 54.2624C122.935 54.1549 122.316 53.679 122.066 53.7385C121.816 53.798 121.325 53.8758 121.339 54.2853C121.362 54.8436 121.587 54.9259 121.752 55.1227C121.917 55.3195 122.4 55.4407 122.721 55.5482C123.041 55.6558 123.505 55.8525 123.726 55.8434C124.069 55.8251 124.521 55.6146 124.561 55.3881ZM104.077 48.9179C104.119 51.5055 107.035 55.2165 108.294 56.7265C109.281 57.9117 111.567 59.2432 111.858 57.9528C112.15 56.6625 109.38 55.1868 107.856 53.2901C106.037 51.0159 105.364 49.2794 105.769 46.2159C105.975 44.7264 109.416 41.656 110.948 41.6057C109.862 45.8658 110.772 48.8424 111.584 50.8283C112.119 52.1415 113.087 53.3816 114.221 52.4802C115.355 51.5787 114.109 50.1007 113.562 48.5266C112.629 45.8498 113.203 43.5916 113.67 42.2097C114.211 40.6082 116.777 39.6473 119.185 40.281C117.339 42.7611 118.202 46.9388 118.853 48.0736C119.503 49.2084 120.385 48.6136 120.664 47.4307C120.87 46.5362 121.985 41.6721 122.384 41.1527C123.865 39.224 127.396 39.8715 129.23 39.2766C129.486 41.7384 130.787 44.5205 129.626 46.0031C129.223 46.5179 125.453 49.6042 124.746 50.1648C123.811 50.9061 123.64 51.9791 124.91 52.1301C126.18 52.2811 130.243 51.4025 131.695 48.6593C133.236 50.6681 134.132 53.83 132.934 54.9831C131.902 55.9852 129.424 56.7128 126.661 56.9187C125.04 57.0423 122.737 57.0354 122.405 58.4676C122.072 59.8999 123.922 59.9296 125.409 60.0875C126.785 60.2339 130.514 59.6985 133.857 56.9507C134.433 58.4127 133.238 62.3708 132.096 63.2974C130.415 64.6473 128.024 65.3451 124.662 64.3476C122.365 63.6612 120.001 61.9178 118.97 62.714C117.94 63.5102 120.342 64.8006 121.899 65.5624C123.27 66.2351 129.599 66.9352 130.63 66.1436C130.749 68.5344 128.887 70.8063 127.237 71.6986C124.703 73.0714 122.091 71.6757 120.443 70.4677C118.659 69.159 116.106 66.5051 115.825 68.1363C115.158 72.0716 122.149 73.4626 123.247 73.9156C121.32 77.9057 115.712 77.7868 113.153 73.5999C111.6 71.0534 112.521 68.2828 111.501 67.132C111.741 66.7819 122.642 49.4601 123.214 48.5999C123.885 47.5794 125.434 44.8385 125.453 44.4816C125.137 44.6463 123.33 47.2134 122.698 48.2612C122.159 49.149 110.857 66.3586 110.642 66.7224C109.197 66.2191 108.218 68.4841 105.362 67.8664C102.316 67.196 97.998 64.4139 100.592 58.0558C101.44 58.9092 103.689 61.1788 105.025 62.3159C106.091 63.2196 107.89 64.105 108.329 63.1281C109.007 61.6249 105.356 60.2225 103.472 59.0739C101.73 58.01 100.513 57.0308 100.259 54.8504C100.1 53.6173 101.905 49.5219 104.077 48.9179ZM110.297 62.9336C109.734 62.8284 109.577 63.1739 109.515 63.5148C109.48 63.7115 109.401 63.9723 109.618 64.1394C109.777 64.256 110.444 64.3842 110.681 64.4299C110.899 64.4741 111.122 64.4694 111.338 64.4162C111.592 64.3453 111.861 64.3887 111.896 64.1874C111.896 64.0606 111.872 63.9352 111.823 63.8205C111.774 63.7057 111.703 63.6043 111.615 63.5239C111.441 63.3569 110.584 62.9908 110.289 62.9336H110.297ZM116.947 55.0495C116.569 54.6102 115.532 53.7431 115.194 53.7362C114.136 53.7088 114.008 54.569 114.049 54.7887C114.091 55.0083 114.993 55.3469 115.208 55.5391C115.379 55.6924 115.505 56.1065 115.58 56.1683C115.918 56.4451 116.544 56.2735 116.751 56.0859C116.996 55.8571 117.318 55.4888 116.938 55.0495H116.947Z" fill="#ECF5EE"/>
<path d="M116.309 93.6031V33.2296C116.307 32.678 116.109 32.1495 115.757 31.7594C115.405 31.3694 114.928 31.1495 114.43 31.1476H29.7633C29.2652 31.1495 28.788 31.3693 28.4356 31.7593C28.0832 32.1493 27.8843 32.6778 27.8821 33.2296V93.6031H116.309Z" fill="#314780"/>
<path d="M112.722 35.3666H31.2109V91.9215H112.722V35.3666Z" fill="#C2DAF1"/>
<path opacity="0.3" d="M115.764 97.067H28.5305C27.498 97.067 12.8693 119.576 12.8693 119.576C11.7872 121.124 12.4232 122.932 13.9204 122.932H129.862C131.326 122.932 132.402 121.349 131.572 119.903C130.741 118.457 116.798 97.067 115.764 97.067Z" fill="#2C2728"/>
<path d="M115.764 94.7951H28.5305C27.498 94.7951 12.8693 117.304 12.8693 117.304C11.7872 118.853 12.4232 120.66 13.9204 120.66H129.862C131.326 120.66 132.402 119.077 131.572 117.631C130.741 116.185 116.798 94.7951 115.764 94.7951Z" fill="white"/>
<path d="M115.764 93.2027H28.5305C27.498 93.2027 12.8693 115.711 12.8693 115.711C11.7872 117.26 12.4232 119.068 13.9204 119.068H129.862C131.326 119.068 132.402 117.484 131.572 116.036C130.741 114.588 116.798 93.2027 115.764 93.2027Z" fill="#EBEEF7"/>
<path d="M101.309 93.2027H42.8784V94.7951H101.309V93.2027Z" fill="#314780"/>
<path d="M75.3716 106.811H27.1943L33.8809 96.8633H75.3716V106.811Z" fill="#D2D7E3"/>
<path d="M75.3714 115.675H53.7773L55.5285 109.188H75.3714V115.675Z" fill="#D2D7E3"/>
<path d="M55.353 109.836H75.3715V109.188H55.5286L55.353 109.836Z" fill="#A9B6C3"/>
<path d="M69.5151 106.811H117.69L111.006 96.8633H69.5151V106.811Z" fill="#D2D7E3"/>
<path d="M69.5151 115.675H91.1092L89.358 109.188H69.5151V115.675Z" fill="#D2D7E3"/>
<path d="M89.5336 109.836H69.5151V109.188H89.358L89.5336 109.836Z" fill="#A9B6C3"/>
<path d="M40.5241 100.652H33.1003V101.711H40.5241V100.652Z" fill="#4D5A8F"/>
<path d="M40.5241 101.201H33.1003V101.75H40.5241V101.201Z" fill="#4D5A8F"/>
<path d="M42.4735 100.652H38.0833V101.711H42.4735V100.652Z" fill="#4D5A8F"/>
<path d="M42.4735 101.201H38.0833V101.75H42.4735V101.201Z" fill="#4D5A8F"/>
<path d="M47.4896 100.652H43.0994V101.711H47.4896V100.652Z" fill="#4D5A8F"/>
<path d="M47.4896 101.201H43.0994V101.75H47.4896V101.201Z" fill="#4D5A8F"/>
<path d="M52.4723 100.652H48.082V101.711H52.4723V100.652Z" fill="#4D5A8F"/>
<path d="M52.4723 101.201H48.082V101.75H52.4723V101.201Z" fill="#4D5A8F"/>
<path d="M57.4205 100.652H53.0303V101.711H57.4205V100.652Z" fill="#4D5A8F"/>
<path d="M57.4205 101.201H53.0303V101.75H57.4205V101.201Z" fill="#4D5A8F"/>
<path d="M62.4035 100.652H58.0132V101.711H62.4035V100.652Z" fill="#4D5A8F"/>
<path d="M62.4035 101.201H58.0132V101.75H62.4035V101.201Z" fill="#4D5A8F"/>
<path d="M67.4191 100.652H63.0288V101.711H67.4191V100.652Z" fill="#4D5A8F"/>
<path d="M67.4191 101.201H63.0288V101.75H67.4191V101.201Z" fill="#4D5A8F"/>
<path d="M72.402 100.652H68.0117V101.711H72.402V100.652Z" fill="#4D5A8F"/>
<path d="M72.402 101.201H68.0117V101.75H72.402V101.201Z" fill="#4D5A8F"/>
<path d="M77.2819 100.634H72.8916V101.693H77.2819V100.634Z" fill="#4D5A8F"/>
<path d="M77.2819 101.183H72.8916V101.732H77.2819V101.183Z" fill="#4D5A8F"/>
<path d="M82.2648 100.634H77.8745V101.693H82.2648V100.634Z" fill="#4D5A8F"/>
<path d="M82.2648 101.183H77.8745V101.732H82.2648V101.183Z" fill="#4D5A8F"/>
<path d="M87.2828 100.634H82.8926V101.693H87.2828V100.634Z" fill="#4D5A8F"/>
<path d="M87.2828 101.183H82.8926V101.732H87.2828V101.183Z" fill="#4D5A8F"/>
<path d="M92.2638 100.634H87.8735V101.693H92.2638V100.634Z" fill="#4D5A8F"/>
<path d="M92.2638 101.183H87.8735V101.732H92.2638V101.183Z" fill="#4D5A8F"/>
<path d="M97.2116 100.634H92.8213V101.693H97.2116V100.634Z" fill="#4D5A8F"/>
<path d="M97.2116 101.183H92.8213V101.732H97.2116V101.183Z" fill="#4D5A8F"/>
<path d="M102.194 100.634H97.8042V101.693H102.194V100.634Z" fill="#4D5A8F"/>
<path d="M102.194 101.183H97.8042V101.732H102.194V101.183Z" fill="#4D5A8F"/>
<path d="M107.211 100.634H102.82V101.693H107.211V100.634Z" fill="#4D5A8F"/>
<path d="M107.211 101.183H102.82V101.732H107.211V101.183Z" fill="#4D5A8F"/>
<path d="M112.193 100.634H105.752V101.693H112.193V100.634Z" fill="#4D5A8F"/>
<path d="M112.193 101.183H105.752V101.732H112.193V101.183Z" fill="#4D5A8F"/>
<path d="M39.9335 102.471H32.0244V103.53H39.9335V102.471Z" fill="#4D5A8F"/>
<path d="M39.9335 103.02H32.0244V103.569H39.9335V103.02Z" fill="#4D5A8F"/>
<path d="M44.9144 102.471H40.5242V103.53H44.9144V102.471Z" fill="#4D5A8F"/>
<path d="M44.9144 103.02H40.5242V103.569H44.9144V103.02Z" fill="#4D5A8F"/>
<path d="M49.9305 102.471H45.5403V103.53H49.9305V102.471Z" fill="#4D5A8F"/>
<path d="M49.9305 103.02H45.5403V103.569H49.9305V103.02Z" fill="#4D5A8F"/>
<path d="M54.9132 102.471H50.5229V103.53H54.9132V102.471Z" fill="#4D5A8F"/>
<path d="M54.9132 103.02H50.5229V103.569H54.9132V103.02Z" fill="#4D5A8F"/>
<path d="M59.861 102.471H55.4707V103.53H59.861V102.471Z" fill="#4D5A8F"/>
<path d="M59.861 103.02H55.4707V103.569H59.861V103.02Z" fill="#4D5A8F"/>
<path d="M64.8439 102.471H60.4536V103.53H64.8439V102.471Z" fill="#4D5A8F"/>
<path d="M64.8439 103.02H60.4536V103.569H64.8439V103.02Z" fill="#4D5A8F"/>
<path d="M69.86 102.471H65.4697V103.53H69.86V102.471Z" fill="#4D5A8F"/>
<path d="M69.86 103.02H65.4697V103.569H69.86V103.02Z" fill="#4D5A8F"/>
<path d="M74.8429 102.471H70.4526V103.53H74.8429V102.471Z" fill="#4D5A8F"/>
<path d="M74.8429 103.02H70.4526V103.569H74.8429V103.02Z" fill="#4D5A8F"/>
<path d="M79.7228 102.453H75.3325V103.512H79.7228V102.453Z" fill="#4D5A8F"/>
<path d="M79.7228 103.002H75.3325V103.551H79.7228V103.002Z" fill="#4D5A8F"/>
<path d="M84.7057 102.453H80.3154V103.512H84.7057V102.453Z" fill="#4D5A8F"/>
<path d="M84.7057 103.002H80.3154V103.551H84.7057V103.002Z" fill="#4D5A8F"/>
<path d="M89.7213 102.453H85.3311V103.512H89.7213V102.453Z" fill="#4D5A8F"/>
<path d="M89.7213 103.002H85.3311V103.551H89.7213V103.002Z" fill="#4D5A8F"/>
<path d="M94.7042 102.453H90.314V103.512H94.7042V102.453Z" fill="#4D5A8F"/>
<path d="M94.7042 103.002H90.314V103.551H94.7042V103.002Z" fill="#4D5A8F"/>
<path d="M99.6525 102.453H95.2622V103.512H99.6525V102.453Z" fill="#4D5A8F"/>
<path d="M99.6525 103.002H95.2622V103.551H99.6525V103.002Z" fill="#4D5A8F"/>
<path d="M104.635 102.453H100.245V103.512H104.635V102.453Z" fill="#4D5A8F"/>
<path d="M104.635 103.002H100.245V103.551H104.635V103.002Z" fill="#4D5A8F"/>
<path d="M109.651 102.453H105.261V103.512H109.651V102.453Z" fill="#4D5A8F"/>
<path d="M109.651 103.002H105.261V103.551H109.651V103.002Z" fill="#4D5A8F"/>
<path d="M113.36 102.453H108.745V103.512H113.36V102.453Z" fill="#4D5A8F"/>
<path d="M113.36 103.002H108.745V103.551H113.36V103.002Z" fill="#4D5A8F"/>
<path d="M40.7698 104.418H31.2542V105.477H40.7698V104.418Z" fill="#4D5A8F"/>
<path d="M40.7698 104.965H31.2542V105.514H40.7698V104.965Z" fill="#4D5A8F"/>
<path d="M42.7194 104.418H38.3291V105.477H42.7194V104.418Z" fill="#4D5A8F"/>
<path d="M42.7194 104.965H38.3291V105.514H42.7194V104.965Z" fill="#4D5A8F"/>
<path d="M47.7374 104.418H43.3472V105.477H47.7374V104.418Z" fill="#4D5A8F"/>
<path d="M47.7374 104.965H43.3472V105.514H47.7374V104.965Z" fill="#4D5A8F"/>
<path d="M52.7184 104.418H48.3281V105.477H52.7184V104.418Z" fill="#4D5A8F"/>
<path d="M52.7184 104.965H48.3281V105.514H52.7184V104.965Z" fill="#4D5A8F"/>
<path d="M57.6661 104.418H53.2759V105.477H57.6661V104.418Z" fill="#4D5A8F"/>
<path d="M57.6661 104.965H53.2759V105.514H57.6661V104.965Z" fill="#4D5A8F"/>
<path d="M62.6491 104.418H58.2588V105.477H62.6491V104.418Z" fill="#4D5A8F"/>
<path d="M62.6491 104.965H58.2588V105.514H62.6491V104.965Z" fill="#4D5A8F"/>
<path d="M67.6652 104.418H63.2749V105.477H67.6652V104.418Z" fill="#4D5A8F"/>
<path d="M67.6652 104.965H63.2749V105.514H67.6652V104.965Z" fill="#4D5A8F"/>
<path d="M72.6481 104.418H68.2578V105.477H72.6481V104.418Z" fill="#4D5A8F"/>
<path d="M72.6481 104.965H68.2578V105.514H72.6481V104.965Z" fill="#4D5A8F"/>
<path d="M77.5294 104.4H73.1392V105.459H77.5294V104.4Z" fill="#4D5A8F"/>
<path d="M77.5294 104.947H73.1392V105.496H77.5294V104.947Z" fill="#4D5A8F"/>
<path d="M82.5123 104.4H78.1221V105.459H82.5123V104.4Z" fill="#4D5A8F"/>
<path d="M82.5123 104.947H78.1221V105.496H82.5123V104.947Z" fill="#4D5A8F"/>
<path d="M87.5285 104.4H83.1382V105.459H87.5285V104.4Z" fill="#4D5A8F"/>
<path d="M87.5285 104.947H83.1382V105.496H87.5285V104.947Z" fill="#4D5A8F"/>
<path d="M92.5113 104.4H88.1211V105.459H92.5113V104.4Z" fill="#4D5A8F"/>
<path d="M92.5113 104.947H88.1211V105.496H92.5113V104.947Z" fill="#4D5A8F"/>
<path d="M97.4591 104.4H93.0688V105.459H97.4591V104.4Z" fill="#4D5A8F"/>
<path d="M97.4591 104.947H93.0688V105.496H97.4591V104.947Z" fill="#4D5A8F"/>
<path d="M102.44 104.4H98.0498V105.459H102.44V104.4Z" fill="#4D5A8F"/>
<path d="M102.44 104.947H98.0498V105.496H102.44V104.947Z" fill="#4D5A8F"/>
<path d="M107.458 104.4H103.068V105.459H107.458V104.4Z" fill="#4D5A8F"/>
<path d="M107.458 104.947H103.068V105.496H107.458V104.947Z" fill="#4D5A8F"/>
<path d="M114.105 104.4H105.998V105.459H114.105V104.4Z" fill="#4D5A8F"/>
<path d="M114.105 104.947H105.998V105.496H114.105V104.947Z" fill="#4D5A8F"/>
<path d="M39.8034 98.5038H33.9346V99.5631H39.8034V98.5038Z" fill="#4D5A8F"/>
<path d="M39.8034 99.0529H33.9346V99.602H39.8034V99.0529Z" fill="#4D5A8F"/>
<path d="M44.7843 98.5038H40.394V99.5631H44.7843V98.5038Z" fill="#4D5A8F"/>
<path d="M44.7843 99.0529H40.394V99.602H44.7843V99.0529Z" fill="#4D5A8F"/>
<path d="M49.8004 98.5038H45.4102V99.5631H49.8004V98.5038Z" fill="#4D5A8F"/>
<path d="M49.8004 99.0529H45.4102V99.602H49.8004V99.0529Z" fill="#4D5A8F"/>
<path d="M54.7833 98.5038H50.3931V99.5631H54.7833V98.5038Z" fill="#4D5A8F"/>
<path d="M54.7833 99.0529H50.3931V99.602H54.7833V99.0529Z" fill="#4D5A8F"/>
<path d="M59.7311 98.5038H55.3408V99.5631H59.7311V98.5038Z" fill="#4D5A8F"/>
<path d="M59.7311 99.0529H55.3408V99.602H59.7311V99.0529Z" fill="#4D5A8F"/>
<path d="M64.714 98.5038H60.3237V99.5631H64.714V98.5038Z" fill="#4D5A8F"/>
<path d="M64.714 99.0529H60.3237V99.602H64.714V99.0529Z" fill="#4D5A8F"/>
<path d="M69.7301 98.5038H65.3398V99.5631H69.7301V98.5038Z" fill="#4D5A8F"/>
<path d="M69.7301 99.0529H65.3398V99.602H69.7301V99.0529Z" fill="#4D5A8F"/>
<path d="M74.713 98.5038H70.3228V99.5631H74.713V98.5038Z" fill="#4D5A8F"/>
<path d="M74.713 99.0529H70.3228V99.602H74.713V99.0529Z" fill="#4D5A8F"/>
<path d="M79.5924 98.4855H75.2021V99.5448H79.5924V98.4855Z" fill="#4D5A8F"/>
<path d="M79.5924 99.0347H75.2021V99.5838H79.5924V99.0347Z" fill="#4D5A8F"/>
<path d="M84.5753 98.4855H80.1851V99.5448H84.5753V98.4855Z" fill="#4D5A8F"/>
<path d="M84.5753 99.0347H80.1851V99.5838H84.5753V99.0347Z" fill="#4D5A8F"/>
<path d="M89.5914 98.4855H85.2012V99.5448H89.5914V98.4855Z" fill="#4D5A8F"/>
<path d="M89.5914 99.0347H85.2012V99.5838H89.5914V99.0347Z" fill="#4D5A8F"/>
<path d="M94.5743 98.4855H90.1841V99.5448H94.5743V98.4855Z" fill="#4D5A8F"/>
<path d="M94.5743 99.0347H90.1841V99.5838H94.5743V99.0347Z" fill="#4D5A8F"/>
<path d="M99.5221 98.4855H95.1318V99.5448H99.5221V98.4855Z" fill="#4D5A8F"/>
<path d="M99.5221 99.0347H95.1318V99.5838H99.5221V99.0347Z" fill="#4D5A8F"/>
<path d="M104.505 98.4855H100.115V99.5448H104.505V98.4855Z" fill="#4D5A8F"/>
<path d="M104.505 99.0347H100.115V99.5838H104.505V99.0347Z" fill="#4D5A8F"/>
<path d="M109.521 98.4855H105.131V99.5448H109.521V98.4855Z" fill="#4D5A8F"/>
<path d="M109.521 99.0347H105.131V99.5838H109.521V99.0347Z" fill="#4D5A8F"/>
<path d="M111.054 98.4855H108.615V99.5448H111.054V98.4855Z" fill="#4D5A8F"/>
<path d="M111.054 99.0347H108.615V99.5838H111.054V99.0347Z" fill="#4D5A8F"/>
<path d="M72.0946 84.8061C82.5837 84.8061 91.0868 75.2746 91.0868 63.517C91.0868 51.7594 82.5837 42.228 72.0946 42.228C61.6056 42.228 53.1025 51.7594 53.1025 63.517C53.1025 75.2746 61.6056 84.8061 72.0946 84.8061Z" fill="#52B958"/>
<path d="M72.0944 75.4187C77.957 75.4187 82.7107 70.0902 82.7107 63.5216C82.7107 56.953 77.9611 51.6245 72.0944 51.6245C66.2276 51.6245 61.478 56.953 61.478 63.5216C61.478 70.0902 66.2317 75.4187 72.0944 75.4187ZM72.0944 54.6148C73.6878 54.5943 75.2507 55.0992 76.5846 56.0651C77.9184 57.0311 78.963 58.4145 79.5856 60.0397C80.2082 61.6649 80.3807 63.4585 80.0811 65.1925C79.7816 66.9266 79.0236 68.5228 77.9033 69.7785C76.7831 71.0341 75.3513 71.8925 73.7897 72.2445C72.2282 72.5965 70.6075 72.4263 69.1335 71.7554C67.6595 71.0846 66.3987 69.9434 65.5114 68.4769C64.6241 67.0104 64.1503 65.2848 64.1502 63.5193C64.1439 62.3567 64.3445 61.204 64.7403 60.1273C65.1362 59.0505 65.7197 58.0707 66.4574 57.2438C67.1951 56.4169 68.0726 55.7591 69.0398 55.308C70.007 54.8569 71.045 54.6213 72.0944 54.6148Z" fill="white"/>
<path d="M72.0946 81.3925C80.902 81.3925 88.0408 73.3848 88.0408 63.5193C88.0408 53.6538 80.8999 45.6439 72.0946 45.6439C63.2893 45.6439 56.1484 53.6515 56.1484 63.5193C56.1484 73.3871 63.2873 81.3925 72.0946 81.3925ZM72.0946 48.641C79.4234 48.641 85.3666 55.3011 85.3666 63.5124C85.3666 71.7238 79.4255 78.3839 72.0946 78.3839C64.7638 78.3839 58.8227 71.7238 58.8227 63.5124C58.8227 55.3011 64.7658 48.641 72.0946 48.641Z" fill="white"/>
<path d="M72.0945 69.3489C73.1382 69.3625 74.162 69.032 75.0358 68.3994C75.9096 67.7669 76.5939 66.8607 77.0017 65.7962C77.4096 64.7317 77.5226 63.5569 77.3264 62.4211C77.1301 61.2853 76.6336 60.2397 75.8997 59.4173C75.1659 58.5949 74.228 58.0328 73.2051 57.8025C72.1822 57.5721 71.1206 57.6838 70.1552 58.1235C69.1898 58.5631 68.3642 59.3109 67.7833 60.2716C67.2023 61.2324 66.8923 62.3629 66.8927 63.5193C66.8886 64.2806 67.0199 65.0352 67.2792 65.7402C67.5384 66.4452 67.9205 67.0867 68.4035 67.6281C68.8866 68.1694 69.4612 68.6001 70.0945 68.8953C70.7278 69.1906 71.4074 69.3447 72.0945 69.3489ZM72.0945 59.9296C72.7369 59.921 73.3672 60.1242 73.9051 60.5133C74.4431 60.9025 74.8645 61.4601 75.1157 62.1152C75.367 62.7703 75.4368 63.4934 75.3162 64.1926C75.1957 64.8918 74.8902 65.5355 74.4387 66.0419C73.9872 66.5483 73.41 66.8945 72.7804 67.0366C72.1508 67.1786 71.4974 67.1101 70.9031 66.8397C70.3087 66.5694 69.8004 66.1093 69.4426 65.5181C69.0848 64.9269 68.8937 64.2311 68.8937 63.5193C68.891 63.0507 68.9716 62.5861 69.131 62.1521C69.2904 61.718 69.5255 61.323 69.8227 60.9896C70.12 60.6563 70.4736 60.3911 70.8634 60.2092C71.2532 60.0273 71.6715 59.9323 72.0945 59.9296Z" fill="white"/>
<path opacity="0.6" d="M27.562 129.766C32.7569 129.766 36.9682 129.116 36.9682 128.315C36.9682 127.514 32.7569 126.865 27.562 126.865C22.3671 126.865 18.1558 127.514 18.1558 128.315C18.1558 129.116 22.3671 129.766 27.562 129.766Z" fill="#C1DBE2"/>
<path d="M26.4594 79.077C27.8866 75.4698 28.1891 72.1306 27.1352 71.6187C26.0813 71.1069 24.0699 73.6162 22.6427 77.2234C21.2156 80.8306 20.913 84.1698 21.9669 84.6817C23.0209 85.1935 25.0322 82.6842 26.4594 79.077Z" fill="#52B958"/>
<path d="M30.7711 122.394L28.5925 122.538L27.9049 113.508L27.2895 110.305L26.9859 107.125L26.0484 110.337L23.8099 122.543H21.97L22.4387 114.366L23.083 108.408L23.6055 97.4468L27.5538 97.0532L29.8336 96.6757L30.7711 122.394Z" fill="url(#paint0_linear_201_846)"/>
<path d="M21.9368 127.37L25.406 127.798L23.1489 125.78V122.664H22.2135L22.1577 125.231L21.9368 127.37Z" fill="#D7AC8E"/>
<path d="M22.8744 127.247C22.8744 127.247 24.2869 127.391 24.8569 127.476C25.527 127.573 26.1627 127.862 26.7009 128.315H24.8011L22.8744 127.629V128.123H21.9658V126.819L22.8744 127.247Z" fill="url(#paint1_linear_201_846)"/>
<path d="M28.7761 127.238L32.2454 127.666L29.9862 125.65V122.534H29.0508L28.995 125.101L28.7761 127.238Z" fill="#D7AC8E"/>
<path d="M29.7116 127.116C29.7116 127.116 31.1241 127.261 31.694 127.345C32.365 127.442 33.0015 127.731 33.5402 128.185H31.6403L29.7116 127.498V127.995H28.803V126.682L29.7116 127.116Z" fill="url(#paint2_linear_201_846)"/>
<path d="M23.1284 85.4856L24.8878 79.5073L27.4216 80.8182C28.1041 82.1704 28.63 83.6125 28.9869 85.1104C29.3689 86.8583 29.1934 88.6429 29.1521 90.1095C29.0427 93.4498 30.1846 97.202 30.1846 97.202C30.1846 97.202 28.4479 97.083 26.8331 97.1631C25.7152 97.2391 24.6048 97.415 23.5125 97.6893C23.5125 97.6893 24.9105 94.0492 24.9167 91.5943C24.9229 89.1394 23.1284 85.4856 23.1284 85.4856Z" fill="#C2DAF1"/>
<path d="M17.0489 88.4324L24.7288 79.775C24.7288 79.775 25.5548 80.6901 25.3689 82.4061C25.1831 84.122 23.1284 85.4856 23.1284 85.4856L19.9358 89.5649L21.5507 91.2854L20.5966 93.6466C20.5966 93.6466 17.8109 91.1871 17.2017 90.6014C16.5925 90.0157 17.0489 88.4324 17.0489 88.4324Z" fill="#C2DAF1"/>
<path d="M25.9574 76.2973L27.9666 71.932L28.5304 73.0027C28.6647 73.2155 28.7743 73.4461 28.8567 73.6891C28.9207 73.9294 29.6703 74.6729 29.4163 74.7599C29.3698 74.7759 29.3281 74.8057 29.2958 74.846C29.2634 74.8863 29.2415 74.9356 29.2325 74.9887C29.2279 75.1989 29.2438 75.4091 29.28 75.6155C29.28 76.5101 28.8938 76.8991 28.8938 76.8991C28.8938 76.8991 27.5371 76.8167 26.9857 77.9973C26.4344 79.1778 26.9857 80.514 26.9857 80.514C26.9857 80.514 23.6404 81.2141 24.7658 79.7818C25.7364 78.5624 25.9574 76.2973 25.9574 76.2973Z" fill="#F8C599"/>
<path d="M27.7369 74.4614C28.2301 73.2136 28.06 71.9256 27.3569 71.5844C26.6538 71.2433 25.684 71.9783 25.1908 73.226C24.6977 74.4737 24.8678 75.7618 25.5709 76.1029C26.274 76.444 27.2437 75.7091 27.7369 74.4614Z" fill="#52B958"/>
<path d="M23.5022 94.0996L20.925 93.0654L21.3112 91.91L23.7934 93.0105L23.5022 94.0996Z" fill="#F8C599"/>
<path d="M24.8982 94.4405C25.8733 94.4405 26.6638 94.0779 26.6638 93.6306C26.6638 93.1833 25.8733 92.8207 24.8982 92.8207C23.9231 92.8207 23.1326 93.1833 23.1326 93.6306C23.1326 94.0779 23.9231 94.4405 24.8982 94.4405Z" fill="#F8C599"/>
<path d="M27.151 71.4973C27.2911 71.5427 27.429 71.5962 27.564 71.6575C26.3449 72.6374 25.4619 74.0465 25.0592 75.6545C24.9972 75.8833 24.9476 76.1121 24.9063 76.3546C23.7582 75.6247 23.1242 74.3344 23.434 73.1515C23.8139 71.6987 25.4804 70.9574 27.151 71.4973Z" fill="#52B958"/>
<path opacity="0.6" d="M54.7771 138.002C61.7341 138.002 67.3738 137.519 67.3738 136.922C67.3738 136.326 61.7341 135.842 54.7771 135.842C47.8202 135.842 42.1804 136.326 42.1804 136.922C42.1804 137.519 47.8202 138.002 54.7771 138.002Z" fill="#C1DBE2"/>
<path d="M53.4057 89.3796C53.4057 89.3796 52.1853 87.7414 52.5426 85.8608C52.7305 84.8701 55.0743 84.1357 55.8755 84.1357C56.6767 84.1357 57.0402 85.2796 57.0402 85.2796L57.8889 87.9313C57.8889 87.9313 58.3019 89.9058 57.8146 90.1598C57.5255 90.3108 56.1151 90.4366 56.1151 90.4366L55.9086 92.9396L53.4842 92.347L53.4057 89.3796Z" fill="#F5B7A0"/>
<path d="M54.0562 88.7047L55.0783 90.5762L56.0138 90.7798L56.115 90.4435L55.1341 90.3359L54.1656 88.7047H54.0562Z" fill="#DFAB8A"/>
<path d="M50.0686 136.215C49.2736 136.371 48.0614 136.559 48.0614 136.559L47.9912 135.824L48.1151 134.987L50.8781 134.907L52.2452 135.136L52.557 135.412C52.557 135.412 50.682 136.096 50.0686 136.215Z" fill="#1D1132"/>
<path d="M59.6278 134.598L56.8937 135.433L56.1275 124.595L56.4352 121.561L55.2065 111.945L52.7491 120.98L50.7543 135.433H48.0801L48.8008 125.707L49.5256 119.658L50.2938 108.873L56.0965 108.477L59.444 108.097L59.6278 134.598Z" fill="url(#paint3_linear_201_846)"/>
<path d="M64.5488 107.363C64.5488 107.363 62.7998 99.2177 62.4301 98.6686C62.1968 98.3162 60.8504 95.3557 59.5556 93.8777L58.6965 92.7978L58.3124 92.3928C58.283 92.3723 58.2499 92.359 58.2154 92.3539V92.3905L56.6129 92.2693H55.2025L52.6233 92.2235L49.6558 93.4727L46.6698 101.446L45.9697 109.04L48.1442 108.857L48.0864 101.709L50.4219 98.9088L50.6987 102.318L50.1803 109.227L60.0078 108.541L58.903 97.607L58.8803 98.1538L60.9743 101.503L62.2567 107.591L64.5488 107.363Z" fill="#52B958"/>
<path opacity="0.6" d="M56.681 121.044L56.4228 124.433L56.9866 135.142L56.1152 124.27L56.4001 121.079L55.2065 111.945L55.5452 110.687L56.681 121.044Z" fill="#1D1132"/>
<path d="M62.1945 136.922H58.3267L58.0334 136.533L57.7856 136.922H57.1104V135.142L59.035 134.774L59.9911 136.003L62.1945 136.691V136.922Z" fill="#1D1132"/>
<path d="M48.8009 111.11L48.3817 111.346L47.8159 110.691L47.6879 111.751L48.4416 113.409L47.9522 113.428L47.0126 112.245L46.3353 111.076L46.3022 110.051L46.4509 109.188L47.5764 108.966L48.8009 111.11Z" fill="#F5B7A0"/>
<path opacity="0.6" d="M50.2631 109.323L54.9611 109.131L59.3534 108.55L50.2012 108.969L50.2631 109.323Z" fill="#1D1132"/>
<path d="M62.0708 109.907L62.5272 110.062L62.9588 109.316L63.283 110.335L62.8555 112.101L63.3367 112.032L64.0388 110.696L64.4848 109.424L64.3258 108.413L64.0161 107.591L62.87 107.578L62.0708 109.907Z" fill="#F5B7A0"/>
<path d="M57.4327 84.1677C57.2634 83.852 56.5861 83.6369 56.1276 83.5797C56.1276 83.5797 55.8282 81.9622 54.6635 82.7012C53.4988 83.4402 52.4766 83.9984 52.1566 85.2934C51.9914 85.9546 52.0843 88.1212 52.4622 89.629C52.8401 91.1367 55.3202 90.5739 55.6898 90.1117C55.8365 89.9287 55.9149 89.3773 56.0058 88.7069C55.8515 88.5526 55.713 88.38 55.5928 88.1922C55.2149 87.6087 55.314 87.3205 55.4978 87.1512C55.6816 86.9819 55.8592 86.9887 56.1937 87.4737C56.2371 87.245 56.2866 87.0047 56.3445 86.7874C56.458 86.3481 56.4725 85.7876 56.7203 85.5405C57.2427 85.0074 57.6144 84.5246 57.4327 84.1677Z" fill="#314780"/>
<path d="M49.6599 93.4635L48.8504 93.8822C48.8504 93.8822 46.6966 98.7829 46.3063 101.355C45.916 103.926 45.9635 109.033 45.9635 109.033L48.138 108.85C48.138 108.85 48.297 104.386 48.8504 102.215C49.4038 100.044 50.4157 98.9042 50.4157 98.9042L50.583 100.963C50.583 100.824 50.583 100.686 50.583 100.547C50.5933 97.8815 50.4012 95.422 49.6599 93.4635Z" fill="#29992C"/>
<path d="M105.304 64.9195H104.935V64.1439H104.332V63.7069H104.935V62.9313H105.304V63.7069H105.905V64.1439H105.304V64.9195Z" fill="#FCFCFD"/>
<path d="M102.05 92.9579H101.466V91.7454H100.516V91.059H101.466V89.835H102.05V91.059H103.002V91.7454H102.05V92.9579Z" fill="#FCFCFD"/>
<path opacity="0.6" d="M106.787 116.576C113.308 116.576 118.595 116.099 118.595 115.51C118.595 114.921 113.308 114.444 106.787 114.444C100.266 114.444 94.979 114.921 94.979 115.51C94.979 116.099 100.266 116.576 106.787 116.576Z" fill="#C1DBE2"/>
<path d="M106.349 68.1798C106.349 68.1798 107.421 66.6744 107.107 64.9447C106.942 64.0295 104.887 63.3592 104.185 63.3592C103.483 63.3592 103.384 64.4162 103.384 64.4162C103.384 64.4162 102.744 66.1573 102.64 66.4753L102.828 67.1045C102.828 67.1045 102.056 68.6603 102.485 68.8959C102.739 69.0355 103.974 69.1499 103.974 69.1499L104.152 71.4538L106.281 70.7194L106.349 68.1798Z" fill="#F5BAA0"/>
<path d="M104.978 65.0683C105.024 64.5238 104.152 64.2698 103.634 64.0959C103.303 63.9861 103.621 63.3661 104.037 63.1579C104.805 62.7735 105.916 63.6155 105.916 63.6155C105.916 63.6155 107.047 64.208 107.227 65.0363C107.407 65.8645 106.779 68.0609 106.779 68.0609C106.779 68.0609 107.192 67.8321 106.436 67.6239C105.68 67.4157 106.601 66.4662 106.192 66.4204C105.784 66.3747 105.528 67.2029 105.528 67.2029L105.137 66.9741C105.137 66.9741 104.933 65.6151 104.978 65.0683Z" fill="#314780"/>
<path d="M105.771 67.5689L104.872 69.2894L104.053 69.477L103.964 69.1659L104.825 69.0675L105.674 67.5689H105.771Z" fill="#DFAC8A"/>
<path d="M100.501 113.146L103.064 113.972L103.782 103.26L103.493 100.263L104.645 90.7615L106.948 99.6912L112.129 113.977H114.661L112.294 104.295L109.969 98.3825L109.251 86.1697L103.811 85.7807L100.672 85.4032L100.501 113.146Z" fill="url(#paint4_linear_201_846)"/>
<path d="M95.8877 86.2338C95.8877 86.2338 97.5397 78.1826 97.8743 77.6335C98.0932 77.288 99.3549 73.5839 100.569 72.1242L101.668 70.6668H101.792L101.825 70.6279V70.6645L103.326 70.5432L104.073 74.6615L107.066 70.1017C107.066 70.1017 109.389 71.2342 110.607 72.9181C111.826 74.602 113.135 78.7042 113.222 80.3058C113.308 81.9073 113.308 87.8971 113.308 87.8971L111.272 87.7163L110.603 81.1523L109.135 77.8783L108.877 81.2484L109.364 86.5106L100.154 85.8517L101.187 76.6039L101.207 77.1439L99.2434 80.4522L98.0436 86.4694L95.8877 86.2338Z" fill="#314780"/>
<path opacity="0.6" d="M103.264 99.753L103.506 103.102L102.977 113.684L103.795 102.94L103.526 99.785L104.646 90.7615L104.328 89.5168L103.264 99.753Z" fill="#1D1132"/>
<path d="M108.358 100.295L109.222 101.316" stroke="#482A71" stroke-miterlimit="10"/>
<path d="M96.4722 115.443H101.422L101.796 115.059L102.112 115.443H102.977V113.684L100.516 113.32L99.2909 114.535L96.4722 115.215V115.443Z" fill="#1D1132"/>
<path d="M112.243 115.665L114.71 115.53L114.776 114.805L114.43 113.977L112.243 114.071V115.665Z" fill="#1D1132"/>
<path d="M104.189 73.8973L106.977 70.1932L106.609 70.1382L104.645 71.3097L103.811 70.3419L103.322 70.5341L104.189 73.8973Z" fill="white"/>
<path d="M110.648 89.9356L111.043 90.169L111.571 89.5238L111.693 90.5693L110.987 92.2098L111.443 92.2281L112.325 91.059L112.961 89.9036L112.992 88.89L112.852 88.0389L111.797 87.8193L110.648 89.9356Z" fill="#F5BAA0"/>
<path opacity="0.6" d="M109.28 86.6158L104.875 86.4259L100.759 85.8516L109.337 86.2657L109.28 86.6158Z" fill="#1D1132"/>
<path opacity="0.6" d="M111.035 85.044L110.603 81.1523L109.135 77.8783L109.221 77.4321L110.861 81.1408L111.035 85.044Z" fill="#1D1132"/>
<path d="M109.257 75.1641L109.084 77.8732L109.179 77.8806L109.351 75.1716L109.257 75.1641Z" fill="url(#paint5_linear_201_846)"/>
<path d="M101.355 73.6244L101.144 76.6008L101.238 76.6091L101.45 73.6326L101.355 73.6244Z" fill="url(#paint6_linear_201_846)"/>
<path d="M108.72 100.073L110.068 101.602" stroke="#482A71" stroke-miterlimit="10"/>
<path d="M101.02 99.785L101.883 100.805" stroke="#482A71" stroke-miterlimit="10"/>
<path opacity="0.6" d="M101.277 76.5239L101.263 76.9792L99.2476 80.4522L101.277 76.5239Z" fill="#1D1132"/>
<path d="M98.2131 88.7459L97.7836 88.9015L97.3788 88.1648L97.0753 89.1692L97.4759 90.9171L97.0236 90.8462L96.367 89.5284L95.9478 88.2723L96.0985 87.2702L96.3876 86.4603L97.4614 86.4465L98.2131 88.7459Z" fill="#F5BAA0"/>
<path d="M93.4033 90.1438V95.9756H100.36V90.1438H98.8488V88.4919H94.9046V90.1438H93.4033ZM98.5453 90.1438H95.2247V88.7481H98.5453V90.1438Z" fill="#52B958"/>
<path d="M111.786 20.0924C113.932 18.3262 113.412 29.267 110.574 31.6006L103.229 37.6384C103.229 37.6384 100.621 29.2716 103.198 27.1529L111.786 20.0924Z" fill="#29992C"/>
<path d="M121.205 34.154C123.351 32.39 113.748 29.7703 110.913 32.0949L103.565 38.1327C103.565 38.1327 110.039 43.3239 112.616 41.2053L121.205 34.154Z" fill="#29992C"/>
<path d="M113.665 29.5141C113.665 29.5141 84.755 48.8699 79.8485 52.908C74.942 56.9462 73.9404 62.1718 73.9404 62.1718C73.9404 62.1718 78.0705 63.1808 83.6564 58.5935C87.898 55.0976 113.665 29.5141 113.665 29.5141Z" fill="#6DE26D"/>
<path d="M72.0161 63.7436L77.505 58.4402L78.1885 59.4606L72.0161 63.7436Z" fill="#F69151"/>
<path d="M76.9268 55.6398L80.4642 60.9203C80.9653 60.6229 81.4836 60.2774 82.0191 59.8839L78.2504 54.2556C77.7875 54.6908 77.3457 55.1529 76.9268 55.6398Z" fill="#29992C"/>
<path d="M81.4967 51.6107C80.8772 52.0683 80.3816 52.4572 80.0161 52.7547L83.824 58.4401C84.1647 58.161 84.65 57.7378 85.2406 57.1955L81.4967 51.6107Z" fill="#29992C"/>
<path d="M120.447 8.89081V11.0048H120.86V8.89081C120.86 8.83013 120.839 8.77194 120.8 8.72903C120.761 8.68612 120.709 8.66202 120.654 8.66202C120.599 8.66202 120.546 8.68612 120.508 8.72903C120.469 8.77194 120.447 8.83013 120.447 8.89081Z" fill="white"/>
<path d="M120.447 18.1317C120.447 18.1924 120.469 18.2506 120.508 18.2935C120.546 18.3364 120.599 18.3605 120.654 18.3605C120.709 18.3605 120.761 18.3364 120.8 18.2935C120.839 18.2506 120.86 18.1924 120.86 18.1317V16.1435H120.447V18.1317Z" fill="white"/>
<path d="M116.234 13.5101C116.24 13.5767 116.269 13.6381 116.316 13.681C116.362 13.7238 116.422 13.7446 116.482 13.7389H118.39V13.2813H116.482C116.422 13.2762 116.363 13.2972 116.316 13.34C116.27 13.3827 116.241 13.4437 116.234 13.5101Z" fill="white"/>
<path d="M124.823 13.2813H123.028V13.7389H124.823C124.878 13.7389 124.93 13.7148 124.969 13.6719C125.008 13.6289 125.029 13.5708 125.029 13.5101C125.029 13.4494 125.008 13.3912 124.969 13.3483C124.93 13.3054 124.878 13.2813 124.823 13.2813Z" fill="white"/>
<path d="M117.559 10.4054L118.907 11.8971L119.2 11.5745L117.85 10.0805C117.831 10.0566 117.808 10.0371 117.783 10.0234C117.757 10.0097 117.729 10.0019 117.701 10.0007C117.672 9.9995 117.644 10.0048 117.618 10.0163C117.591 10.0278 117.567 10.0453 117.547 10.0676C117.527 10.0899 117.511 10.1165 117.501 10.1459C117.49 10.1752 117.485 10.2067 117.486 10.2382C117.488 10.2697 117.495 10.3006 117.507 10.329C117.519 10.3574 117.537 10.3826 117.559 10.4031V10.4054Z" fill="white"/>
<path d="M123.456 16.9306C123.474 16.9545 123.497 16.974 123.523 16.9877C123.548 17.0014 123.576 17.0091 123.605 17.0104C123.633 17.0116 123.662 17.0063 123.688 16.9948C123.715 16.9833 123.739 16.9658 123.759 16.9435C123.779 16.9212 123.795 16.8946 123.805 16.8652C123.815 16.8358 123.82 16.8044 123.819 16.7729C123.818 16.7414 123.811 16.7105 123.799 16.6821C123.786 16.6537 123.769 16.6285 123.747 16.608L122.479 15.2032L122.188 15.5349L123.456 16.9306Z" fill="white"/>
<path d="M117.527 16.9717C117.574 17.014 117.634 17.0344 117.694 17.0284C117.754 17.0224 117.81 16.9906 117.849 16.9396L119.2 15.4434L118.907 15.1208L117.558 16.6171C117.512 16.6598 117.483 16.721 117.477 16.7873C117.471 16.8537 117.489 16.9199 117.527 16.9717Z" fill="white"/>
<path d="M123.456 10.0828L122.188 11.4876L122.479 11.8102L123.747 10.4054C123.769 10.3849 123.786 10.3597 123.799 10.3313C123.811 10.3029 123.818 10.272 123.819 10.2405C123.82 10.209 123.815 10.1775 123.805 10.1482C123.795 10.1188 123.779 10.0921 123.759 10.0698C123.739 10.0476 123.715 10.0301 123.688 10.0186C123.662 10.0071 123.633 10.0018 123.605 10.003C123.576 10.0042 123.548 10.0119 123.523 10.0257C123.497 10.0394 123.474 10.0589 123.456 10.0828Z" fill="white"/>
</g>
<defs>
<linearGradient id="paint0_linear_201_846" x1="26.3706" y1="122.543" x2="26.3706" y2="96.6757" gradientUnits="userSpaceOnUse">
<stop stop-color="#052E4B"/>
<stop offset="1" stop-color="#002738"/>
</linearGradient>
<linearGradient id="paint1_linear_201_846" x1="414.473" y1="966.008" x2="414.473" y2="956.222" gradientUnits="userSpaceOnUse">
<stop stop-color="#052E4B"/>
<stop offset="1" stop-color="#002738"/>
</linearGradient>
<linearGradient id="paint2_linear_201_846" x1="564.672" y1="968.856" x2="564.672" y2="959.026" gradientUnits="userSpaceOnUse">
<stop stop-color="#052E4B"/>
<stop offset="1" stop-color="#002738"/>
</linearGradient>
<linearGradient id="paint3_linear_201_846" x1="53.8539" y1="135.433" x2="53.8539" y2="108.097" gradientUnits="userSpaceOnUse">
<stop stop-color="#072F4D"/>
<stop offset="1" stop-color="#002839"/>
</linearGradient>
<linearGradient id="paint4_linear_201_846" x1="10220.4" y1="14319.7" x2="10220.4" y2="10751.4" gradientUnits="userSpaceOnUse">
<stop stop-color="#072F4D"/>
<stop offset="1" stop-color="#002839"/>
</linearGradient>
<linearGradient id="paint5_linear_201_846" x1="1667.68" y1="113.136" x2="1664.51" y2="113.135" gradientUnits="userSpaceOnUse">
<stop stop-color="#072F4D"/>
<stop offset="1" stop-color="#002839"/>
</linearGradient>
<linearGradient id="paint6_linear_201_846" x1="1755.06" y1="107.75" x2="1751.06" y2="107.754" gradientUnits="userSpaceOnUse">
<stop stop-color="#072F4D"/>
<stop offset="1" stop-color="#002839"/>
</linearGradient>
<clipPath id="clip0_201_846">
<rect width="134" height="138" fill="white"/>
</clipPath>
</defs>
</svg>
