<svg width="121" height="93" viewBox="0 0 121 93" fill="none" xmlns="http://www.w3.org/2000/svg">
<path d="M22.5778 92.9731C20.4565 77.3413 24.9011 63.8171 24.9011 63.8171H23.4869C18.8403 76.9022 19.8505 90.3386 20.1535 92.9731H22.5778Z" fill="#09C9CE"/>
<path d="M20.7596 83.1365V80.7655C20.7596 80.7655 11.3654 76.7261 7.22382 71.0183L5.91064 71.3696C5.91064 71.4574 10.0522 77.1652 20.7596 83.1365Z" fill="#09C9CE"/>
<path d="M20.4565 86.6506V84.2794C20.4565 84.2794 31.77 78.7466 36.8207 73.3894L37.6288 74.3555C37.6288 74.3555 32.3761 80.5909 20.4565 86.6506Z" fill="#09C9CE"/>
<path d="M13.5878 72.0715C13.5878 72.0715 12.7797 74.6184 13.2847 77.3409L14.9009 78.6582C14.9009 78.6582 13.5878 74.7062 14.5979 72.4228L13.5878 72.0715Z" fill="#09C9CE"/>
<path d="M37.3256 78.3069C35.8104 78.5704 33.6891 78.2191 32.1739 77.78C32.0729 78.1313 31.8709 78.4826 31.5679 78.746C34.5983 79.6242 37.5276 79.1851 37.5276 79.1851L37.3256 78.3069Z" fill="#09C9CE"/>
<path d="M34.2954 83.6637C34.2954 83.6637 32.1741 81.732 29.1437 80.854L27.0225 81.4686C27.0225 81.4686 31.5681 82.4345 33.4873 84.2783L34.2954 83.6637Z" fill="#09C9CE"/>
<path d="M14.295 78.3071C12.1738 80.1512 11.2646 82.5222 11.2646 82.5222L12.3758 82.7856C12.8809 81.3806 14.3961 79.8 15.5072 78.834C15.0021 78.834 14.5981 78.5706 14.295 78.3071Z" fill="#09C9CE"/>
<path d="M6.31494 79.2732C6.31494 79.2732 10.9615 79.1854 13.8909 78.0437L12.9818 76.9021C12.9818 76.9021 9.24432 78.5706 6.41595 78.3072L6.31494 79.2732Z" fill="#09C9CE"/>
<path d="M29.548 74.6194C29.548 74.6194 27.5278 78.3073 27.4268 81.0293L29.043 80.7659C29.043 80.7659 29.043 77.078 30.4572 75.0584L29.548 74.6194Z" fill="#09C9CE"/>
<path d="M21.6688 61.3581C21.6688 61.3581 21.9718 61.7094 22.0728 62.0606C22.0728 62.1485 22.0728 62.4119 22.0728 62.7631L26.3154 63.5535C26.4164 63.2022 26.5174 62.9388 26.6184 62.9388C27.0225 62.7631 31.8711 61.2703 31.6691 57.5822C31.4671 53.894 28.9417 52.6646 27.7296 52.3134C26.5174 51.9621 21.7698 51.8743 20.0526 55.4747C18.6384 58.3725 21.2647 60.6556 21.6688 61.3581Z" fill="#FFD066"/>
<path d="M23.1839 63.2905C23.1839 63.2905 23.891 60.48 23.79 60.0408C23.689 59.6017 22.8809 57.9329 22.7799 57.5816C22.6789 57.2303 23.1839 56.9668 23.285 57.4938C23.487 57.9329 24.1941 59.426 24.2951 60.0408C24.3961 60.6556 23.79 63.6418 23.79 63.6418L23.1839 63.2905Z" fill="#0186CB"/>
<path d="M25.0021 63.6412C25.0021 63.6412 25.7092 60.831 26.1132 60.4798C26.4163 60.1285 27.9315 58.899 28.2345 58.6356C28.5376 58.3721 28.2345 57.933 27.8305 58.3721C27.5274 58.7234 26.1132 59.7772 25.7092 60.3041C25.3051 60.7432 24.396 63.729 24.396 63.729L25.0021 63.6412Z" fill="#0186CB"/>
<path d="M28.0327 58.4583C27.5276 58.5461 26.8206 58.4583 26.3155 58.195C25.8104 58.3705 25.2043 58.195 24.8003 57.7562C24.1942 57.8439 23.3861 57.6684 23.1841 57.6684L23.2851 57.4051C23.6891 57.4928 24.1942 57.4928 24.5983 57.4928C24.3962 57.1418 24.3962 56.7907 24.5983 56.6152C24.9013 56.3518 25.3054 56.4396 25.5074 56.6152C25.7094 56.8785 25.7094 57.2295 25.4064 57.4928C25.3054 57.5806 25.2043 57.5806 25.1033 57.6684C25.4064 57.8439 25.7094 58.0195 26.0125 57.9317C25.9114 57.8439 25.9114 57.7561 25.8104 57.6684C25.7094 57.5806 25.7094 57.3173 26.0125 57.054C26.2145 56.8785 26.4165 56.8785 26.6185 56.9662C26.8206 57.054 26.9216 57.2295 26.9216 57.4051C26.9216 57.5806 26.8206 57.7561 26.6185 57.9317C27.0226 58.1072 27.6287 58.195 28.0327 58.1072V58.4583ZM26.3155 57.3173C26.3155 57.3173 26.2145 57.3173 26.2145 57.4051C26.0125 57.4928 26.1135 57.5806 26.1135 57.6684C26.1135 57.7561 26.2145 57.8439 26.3155 57.9317C26.5175 57.8439 26.6185 57.6684 26.6185 57.5806C26.6185 57.4928 26.6185 57.4051 26.5175 57.4051C26.4165 57.2295 26.3155 57.3173 26.3155 57.3173ZM24.9013 57.4928C25.0023 57.4928 25.1033 57.4051 25.2043 57.4051C25.4064 57.2295 25.4064 57.054 25.3054 56.8785C25.2043 56.7907 25.0023 56.7907 24.9013 56.8785C24.5983 56.9662 24.6993 57.2295 24.9013 57.4928C24.8003 57.4051 24.8003 57.4051 24.9013 57.4928Z" fill="#0186CB"/>
<path d="M24.2937 62.8516C23.0816 62.5881 22.1725 62.1491 21.9704 62.0613V62.1491C22.0714 62.5003 21.6674 64.8712 21.8694 65.8371C21.8694 66.0127 21.9704 66.1005 22.0714 66.1883C22.2735 66.3639 22.7785 66.6273 23.2836 66.7151C23.7887 66.803 24.3948 66.803 24.5968 66.7151C24.6978 66.7151 24.7988 66.5395 24.8998 66.4517C25.6069 65.6614 26.415 63.2906 26.617 63.0272C26.617 63.0272 26.6171 63.0272 26.7181 62.9394C26.516 63.0272 25.5059 63.0272 24.2937 62.8516Z" fill="#1E1EA4"/>
<path d="M23.9919 63.9035C24.699 63.9913 25.4061 64.0791 26.2142 64.0791C26.3152 63.8157 26.4163 63.5523 26.5173 63.3767C25.0021 63.5523 23.3859 63.2889 22.0727 62.4988C22.0727 62.6744 22.0727 62.9378 21.9717 63.2889C22.5778 63.5523 23.2849 63.7279 23.9919 63.9035Z" fill="#110239"/>
<path d="M23.6888 65.1318C24.2949 65.2196 25.002 65.3074 25.608 65.3074C25.709 65.0441 25.8101 64.8686 25.9111 64.6053C24.4969 64.693 23.0827 64.4298 21.8705 63.8154C21.8705 64.0787 21.8705 64.342 21.7695 64.5175C22.4766 64.7808 23.0827 64.9563 23.6888 65.1318Z" fill="#110239"/>
<path d="M21.8706 65.1353C21.8706 65.3987 21.8706 65.662 21.8706 65.8376V65.9254C22.3757 66.101 22.8807 66.2766 23.3858 66.3644C23.8909 66.4522 24.3959 66.54 24.901 66.54C24.901 66.54 24.901 66.54 25.002 66.4522C25.103 66.2766 25.3051 66.101 25.4061 65.8376C24.1939 65.8376 22.8807 65.662 21.8706 65.1353Z" fill="#110239"/>
<path d="M9.34509 69.6135C9.34509 71.633 7.52686 73.2134 5.20355 73.2134C2.88025 73.2134 1.06201 71.633 1.06201 69.6135C1.06201 67.5941 2.88025 66.0137 5.20355 66.0137C7.42584 66.0137 9.34509 67.5941 9.34509 69.6135Z" fill="#FFD066"/>
<path d="M8.53699 69.6134C8.53699 71.1943 7.02179 72.5117 5.20355 72.5117C3.38532 72.5117 1.87012 71.1943 1.87012 69.6134C1.87012 68.0325 3.38532 66.7151 5.20355 66.7151C7.02179 66.7151 8.53699 67.9447 8.53699 69.6134Z" fill="#FEAC1A"/>
<path d="M4.79969 68.1195C5.50678 67.9439 6.21387 67.9439 6.4159 68.5585L5.30475 68.9097C5.20374 68.7341 4.9007 68.7341 4.79969 68.8219C4.69867 68.8219 4.39564 68.9975 4.49665 69.1731C4.69867 69.5243 6.51691 68.4707 7.02198 69.5243C7.32502 70.2266 6.81995 70.6656 6.11286 70.929L6.51691 71.6314L5.80982 71.8948L5.50678 71.1046C4.79969 71.2802 4.0926 71.1924 3.78956 70.6656L4.9007 70.2266C5.00171 70.49 5.40577 70.4022 5.50678 70.4022C5.70881 70.3144 6.01185 70.2266 5.91083 70.051C5.70881 69.6121 3.89057 70.7534 3.3855 69.6121C3.08246 68.9975 3.58753 68.5585 4.19361 68.2951L3.89057 67.5927L4.59766 67.3293L4.79969 68.1195Z" fill="#FFD066"/>
<path d="M18.4362 72.6863C17.4261 74.4427 15.0018 75.2331 12.8805 74.3549C10.8602 73.4767 9.9511 71.369 10.9612 69.5248C11.9714 67.7684 14.3957 66.9781 16.517 67.8563C18.6382 68.7345 19.4463 70.93 18.4362 72.6863Z" fill="#FFD066"/>
<path d="M17.8301 72.4229C17.022 73.9159 15.0017 74.4429 13.2845 73.7403C11.5672 73.0377 10.9612 71.2812 11.7693 69.7882C12.5774 68.2952 14.5976 67.7683 16.3149 68.4709C17.9311 69.1735 18.6382 70.9299 17.8301 72.4229Z" fill="#FEAC1A"/>
<path d="M15.2041 69.6122C15.9112 69.7 16.5173 70.0513 16.4163 70.5783L15.2041 70.4905C15.2041 70.227 14.9011 70.227 14.8001 70.1392C14.6991 70.1392 14.295 70.1392 14.295 70.3148C14.295 70.754 16.4163 70.4027 16.3153 71.6323C16.2143 72.3349 15.6082 72.5984 14.8001 72.5984V73.3889L14.194 73.3011L14.295 72.5106C13.5879 72.4228 12.8808 72.0715 12.9818 71.4566L14.194 71.5445C14.194 71.808 14.497 71.8958 14.6991 71.8958C14.9011 71.8958 15.2041 71.8958 15.2041 71.7201C15.2041 71.281 13.0829 71.5445 13.1839 70.4027C13.2849 69.7 13.891 69.5244 14.5981 69.5244V68.7339L15.3052 68.8217L15.2041 69.6122Z" fill="#FFD066"/>
<path d="M34.3964 72.7748C33.8913 74.7068 31.77 75.9363 29.5477 75.4972C27.3255 75.0581 25.9113 73.2139 26.4163 71.2819C26.9214 69.3498 29.0427 68.1204 31.265 68.5595C33.4873 68.9986 34.9014 70.8428 34.3964 72.7748Z" fill="#FFD066"/>
<path d="M33.6891 72.6849C33.2851 74.2652 31.4668 75.231 29.6486 74.9676C27.8304 74.6164 26.7192 73.0361 27.0223 71.4557C27.4263 69.8754 29.2446 68.9096 31.0628 69.173C32.881 69.5242 34.0932 71.1045 33.6891 72.6849Z" fill="#FEAC1A"/>
<path d="M30.3561 70.4897C31.0632 70.4019 31.7703 70.5775 31.8713 71.1922L30.7601 71.3679C30.6591 71.1044 30.4571 71.1044 30.2551 71.1922C30.154 71.1922 29.851 71.2801 29.851 71.4557C29.952 71.8948 31.9723 71.1044 32.1743 72.3339C32.2753 73.0365 31.7703 73.3877 30.9622 73.5634L31.1642 74.2659L30.4571 74.3538L30.3561 73.5634C29.649 73.5634 28.9419 73.3877 28.7399 72.773L29.851 72.5974C29.952 72.8608 30.2551 72.8608 30.4571 72.8608C30.6591 72.8608 30.9622 72.773 30.9622 72.5974C30.8611 72.1583 28.8409 72.8608 28.6388 71.7192C28.5378 71.1044 29.0429 70.7531 29.75 70.5775L29.548 69.8749L30.2551 69.7871L30.3561 70.4897Z" fill="#FFD066"/>
<path d="M40.2552 75.5861C38.0329 75.7617 36.0126 74.2686 35.8106 72.2486C35.6086 70.3164 37.3258 68.5598 39.6491 68.3842C41.8714 68.2085 43.8917 69.7016 44.0937 71.7216C44.1947 73.7417 42.4775 75.4982 40.2552 75.5861Z" fill="#FFD066"/>
<path d="M40.1541 74.9691C38.3359 75.057 36.7197 73.9154 36.5177 72.247C36.4166 70.6664 37.7298 69.2614 39.6491 69.0858C41.4673 68.998 43.0835 70.1395 43.2856 71.8079C43.3866 73.4764 42.0734 74.8813 40.1541 74.9691Z" fill="#FEAC1A"/>
<path d="M41.6693 71.6311C41.9724 72.2457 41.9724 72.8602 41.2653 73.1236L40.7602 72.2457C40.9622 72.1579 40.9622 71.8945 40.8612 71.8067C40.8612 71.7189 40.6592 71.4555 40.4572 71.5433C40.0531 71.7189 41.4673 73.2114 40.1541 73.7382C39.447 74.0893 38.8409 73.6504 38.4369 73.0358L37.6288 73.387L37.4268 72.7724L38.2349 72.5091C38.0328 71.8945 38.0328 71.28 38.6389 70.9288L39.144 71.8067C38.8409 71.8945 38.942 72.2457 39.043 72.4213C39.144 72.5969 39.245 72.8602 39.447 72.7724C39.8511 72.5969 38.5379 71.1044 39.7501 70.5776C40.4572 70.3142 40.9622 70.6654 41.3663 71.1922L42.1744 70.841L42.4774 71.3677L41.6693 71.6311Z" fill="#FFD066"/>
<path d="M15.204 85.069C14.7999 87.0011 12.6786 88.3185 10.4563 87.9672C8.23405 87.6159 6.71885 85.7716 7.1229 83.8395C7.52696 81.9073 9.64824 80.59 11.8705 80.9413C14.0928 81.2926 15.608 83.1369 15.204 85.069Z" fill="#FFD066"/>
<path d="M14.497 84.9803C14.194 86.5611 12.4768 87.615 10.6585 87.3515C8.84029 87.088 7.62813 85.5951 7.93117 84.0143C8.23421 82.4335 9.95144 81.3797 11.7697 81.6431C13.5879 81.9066 14.8001 83.3996 14.497 84.9803Z" fill="#FEAC1A"/>
<path d="M11.0625 82.9613C11.7696 82.8735 12.4767 83.0491 12.5777 83.6638L11.4666 83.8394C11.3656 83.576 11.1635 83.576 10.9615 83.6638C10.8605 83.6638 10.5575 83.7516 10.5575 83.9272C10.6585 84.3663 12.6787 83.4882 12.9818 84.7175C13.1838 85.4199 12.5777 85.7712 11.8706 85.9468L12.0727 86.6492L11.3656 86.7371L11.1635 86.0346C10.4564 86.1224 9.74935 85.9468 9.54732 85.3321L10.6585 85.1565C10.7595 85.4199 11.0625 85.4199 11.2645 85.4199C11.4666 85.4199 11.7696 85.3321 11.7696 85.1565C11.6686 84.7175 9.64833 85.5078 9.34529 84.3663C9.14327 83.7516 9.74935 83.4004 10.3554 83.1369L10.1534 82.4345L10.8605 82.3467L11.0625 82.9613Z" fill="#FFD066"/>
<path d="M37.8309 86.3869C37.4269 88.3188 35.3056 89.6361 33.0833 89.2848C30.861 88.9335 29.3458 87.0894 29.7499 85.1575C30.1539 83.2256 32.2752 81.9084 34.4975 82.2596C36.7198 82.6109 38.235 84.455 37.8309 86.3869Z" fill="#FFD066"/>
<path d="M37.0229 86.2981C36.7199 87.8786 35.0026 88.9323 33.1844 88.6689C31.3662 88.4055 30.154 86.9128 30.4571 85.3322C30.7601 83.7517 32.4773 82.6981 34.2956 82.9615C36.1138 83.1371 37.326 84.7176 37.0229 86.2981Z" fill="#FEAC1A"/>
<path d="M33.689 84.1908C34.3961 84.103 35.1032 84.2786 35.2042 84.8934L34.0931 85.069C33.9921 84.8056 33.7901 84.8056 33.588 84.8934C33.487 84.8934 33.184 84.9812 33.184 85.1568C33.285 85.5959 35.3053 84.7177 35.6083 85.9472C35.8103 86.6498 35.2042 87.001 34.4972 87.1767L34.6992 87.8792L33.9921 87.967L33.8911 87.1767C33.184 87.2645 32.4769 87.0889 32.2749 86.4741L33.386 86.2985C33.487 86.5619 33.7901 86.5619 33.9921 86.5619C34.1941 86.5619 34.4972 86.4741 34.4972 86.2985C34.3961 85.8594 32.3759 86.6498 32.0728 85.5081C31.8708 84.8934 32.4769 84.5421 33.083 84.2787L32.8809 83.5761L33.588 83.4883L33.689 84.1908Z" fill="#FFD066"/>
<path d="M10.6582 78.3075C10.6582 78.3075 8.63794 76.5513 6.71869 76.4635C4.79944 76.3757 1.76904 78.5709 1.76904 78.5709C1.76904 78.5709 4.39539 81.4687 6.71869 81.1174C9.34503 80.6784 10.6582 78.3075 10.6582 78.3075Z" fill="#09C9CE"/>
<path d="M45.2046 78.3075C45.2046 78.3075 43.1843 76.5513 41.2651 76.4635C39.3458 76.3757 36.3154 78.5709 36.3154 78.5709C36.3154 78.5709 38.9418 81.4687 41.2651 81.1174C43.7904 80.6784 45.2046 78.3075 45.2046 78.3075Z" fill="#09C9CE"/>
<path d="M70.9626 46.5144C70.7606 46.6898 70.3565 46.2512 70.1545 46.1635C69.7505 45.9881 69.5484 46.2512 69.1444 46.339C69.0434 46.339 68.7403 46.5144 68.6393 46.339C68.5383 46.2512 68.7403 46.0758 68.6393 46.0758C68.5383 45.9881 68.2353 46.1635 68.1343 46.1635C67.8312 46.2512 67.5282 46.2512 67.6292 45.9004C67.8312 45.4618 68.4373 45.1986 68.8413 45.0232C69.2454 44.8478 69.8515 44.76 70.2555 44.9355C70.7606 45.1986 71.1647 45.7249 71.0636 46.2512C71.0636 46.4267 71.0636 46.5144 70.9626 46.5144Z" fill="#E8A393"/>
<path d="M72.7812 45.6384C72.8822 45.3749 72.5792 44.9359 72.4782 44.6724C72.2761 44.2334 71.9731 43.9699 71.6701 43.6187C71.569 43.6187 71.064 44.1455 70.862 44.2334C70.5589 44.409 70.0538 44.409 69.8518 44.409C69.5488 44.409 69.2457 44.409 68.9427 44.4968C68.4376 44.6724 67.9326 44.7602 67.4275 44.848C66.8214 45.0237 66.4174 45.3749 65.9123 45.5506C65.6093 45.6384 64.7002 46.4287 65.1042 46.78C65.4073 47.1312 66.2154 46.2531 66.4174 46.1653C66.7204 45.9018 67.8316 45.5506 67.8316 45.5506C67.8316 45.5506 67.2255 45.6384 67.0235 45.814C66.8214 45.9018 66.7204 46.0774 66.6194 46.2531C66.5184 46.5165 66.6194 46.6043 66.9224 46.6043C67.2255 46.6043 67.4275 46.4287 67.7306 46.2531C68.1346 45.9896 68.5387 45.814 69.0437 45.7262C69.3468 45.6384 69.4478 45.6384 69.7508 45.7262C69.9528 45.814 70.2559 45.814 70.4579 45.9896C70.8619 46.2531 70.0538 46.6043 69.9528 46.9556C69.8518 47.1312 69.8518 47.3947 70.0539 47.4825C70.1549 47.6581 70.4579 47.4825 70.6599 47.3947C70.862 47.3068 70.963 47.1312 71.064 46.9556C71.266 46.78 71.367 46.6043 71.569 46.4287C71.7711 46.2531 71.8721 46.0774 72.1751 45.9896C72.2761 45.7262 72.5792 45.7262 72.7812 45.6384C72.7812 45.5506 72.7812 45.6384 72.7812 45.6384Z" fill="#FCD4CA"/>
<path d="M62.0737 49.7657C62.0737 49.7657 68.1345 43.7944 71.67 46.7801C75.2054 49.7657 71.3669 53.893 68.7406 56.2639L67.3264 55.1223C67.3264 55.1223 73.4882 50.9951 70.6599 48.1851C68.0335 45.6385 63.4879 50.9951 63.4879 50.9951L62.0737 49.7657Z" fill="#EBEBEB"/>
<path d="M63.2858 48.6235C62.3767 49.3255 61.9727 49.7642 61.9727 49.7642L63.2858 50.9927C63.2858 50.9927 63.7909 50.4662 64.498 49.7642L63.2858 48.6235Z" fill="#C8C8C8"/>
<path d="M69.0438 53.6301C68.1347 54.508 67.2256 55.1225 67.2256 55.1225L68.6398 56.2637C69.1448 55.8247 69.6499 55.298 70.256 54.6835L69.0438 53.6301Z" fill="#C8C8C8"/>
<path d="M55.5079 59.9524L33.79 62.763L34.1941 66.0127L61.3667 63.6413L55.5079 59.9524Z" fill="#EBEBEB"/>
<path d="M34.8002 62.6746L33.79 62.8502L34.1941 66.0994L35.5073 66.0115C35.3052 65.0456 34.8002 62.938 34.8002 62.6746Z" fill="#EBEBEB"/>
<path d="M57.9323 62.412C57.8313 62.3241 57.8313 62.3241 57.7303 62.2363C52.8817 62.851 33.9922 64.783 33.9922 64.783L34.0932 65.9246L59.6496 63.817C59.0435 63.3779 58.4374 62.9388 57.9323 62.412Z" fill="#C8C8C8"/>
<path d="M56.8207 49.6779C56.8207 49.6779 53.1843 45.6388 50.0529 48.3608C46.7194 51.2584 51.063 54.4194 51.063 54.4194L52.1741 53.4536C52.1741 53.4536 49.0427 50.9072 51.265 49.2389C53.1843 47.7462 55.7096 50.7316 55.7096 50.7316L56.8207 49.6779Z" fill="#EBEBEB"/>
<path d="M55.7097 50.7317L56.2148 50.2926C55.5077 49.59 53.0834 47.0431 50.7601 48.9752C48.6388 50.7317 51.0631 53.1907 51.8712 53.8933L52.2753 53.4542C52.2753 53.4542 49.1439 50.9073 51.3662 49.2387C53.2854 47.7457 55.7097 50.7317 55.7097 50.7317Z" fill="#C8C8C8"/>
<path d="M74.8012 60.2156L63.4877 69.7876L47.9316 56.703L59.6492 46.6919L74.8012 60.2156Z" fill="#EBEBEB"/>
<path d="M48.437 56.2643L64.0941 69.3496L66.4174 67.3297L50.7603 54.3323L48.437 56.2643Z" fill="#C8C8C8"/>
<path d="M61.8714 48.6229L61.0633 47.9204L49.4468 57.9315L50.2549 58.634L61.8714 48.6229Z" fill="#C8C8C8"/>
<path d="M34.396 62.675L32.0727 62.1481C31.7697 62.0603 31.4667 62.3237 31.5677 62.5872L32.3758 66.6272C32.3758 66.8907 32.7798 66.9785 32.9819 66.8906L35.0021 65.9246L34.396 62.675Z" fill="#EBEBEB"/>
<path d="M31.9717 64.9583L32.2747 66.714C32.2747 66.9773 32.6788 67.0651 32.8808 66.9773L34.9011 66.0117L34.699 64.6072L31.9717 64.9583Z" fill="#C8C8C8"/>
<path d="M93.7919 9.98413C93.6909 10.072 93.6909 10.1598 93.5899 10.2476C92.9838 11.1258 92.3777 11.9162 91.6706 12.7066C91.1655 13.1457 90.4584 13.497 90.0544 13.9361C89.8524 14.1117 89.7513 14.2874 89.5493 14.463C90.2564 15.7803 91.8726 19.1176 92.1757 20.5227C92.1757 20.5227 97.0243 19.1176 98.3375 17.0098C98.3375 17.0977 94.903 12.7066 93.7919 9.98413Z" fill="#FCD4CA"/>
<path d="M93.1858 17.8002C93.1858 16.4829 93.5899 15.1656 94.499 14.0239C94.802 13.6726 95.1051 13.3213 95.5091 12.9701C94.802 11.9162 94.196 10.8623 93.7919 9.98413C93.6909 10.072 93.6909 10.1598 93.5899 10.2476C92.9838 11.1258 92.3777 11.9162 91.6706 12.7066C91.1655 13.1457 90.4584 13.497 90.0544 13.9361C89.8524 14.1117 89.7513 14.2874 89.5493 14.463C90.2564 15.7803 91.8726 19.1176 92.1757 20.5227C92.1757 20.5227 92.9838 20.2592 94.0949 19.8201C93.4888 19.2932 93.1858 18.5906 93.1858 17.8002Z" fill="#E8A393"/>
<path d="M94.2968 86.2978C94.2968 86.2978 94.5998 90.6886 93.7917 91.3911C92.9836 92.0937 82.9833 92.9718 82.0742 92.2693C81.1651 91.5668 81.5691 90.1617 83.6904 89.4592C86.0137 88.7567 87.1248 89.1957 88.539 88.581C89.9532 87.9663 89.3471 85.9465 89.3471 85.9465L94.2968 86.2978Z" fill="#110239"/>
<path d="M119.045 85.9465C119.045 85.9465 120.459 90.1623 119.853 90.8649C119.146 91.5675 109.045 93.4997 108.035 92.7971C107.024 92.0945 107.226 90.6892 109.247 89.8988C111.469 89.0205 112.681 89.3718 113.994 88.5814C115.308 87.8787 114.499 85.9465 114.499 85.9465H119.045Z" fill="#110239"/>
<path d="M118.035 62.1484C118.54 49.9416 117.126 41.4233 116.419 37.4714C114.701 37.4714 113.085 37.5593 111.368 38.2618C108.236 39.4034 105.105 40.5451 101.974 41.6867C104.398 46.2533 109.651 61.1824 110.257 64.256C110.964 68.12 114.297 87.5278 114.297 87.5278L120.055 87.3522C119.954 84.1907 117.934 63.2022 118.035 62.1484Z" fill="#09C9CE"/>
<path d="M106.924 39.9299C105.307 40.6325 103.59 41.0716 101.873 41.5985C104.297 46.0774 109.449 60.9191 110.156 64.1685C110.964 62.1486 114.197 54.7716 115.813 49.3267C116.823 45.7261 117.126 41.9498 116.52 38.1735C116.52 38.1735 116.52 38.1735 116.52 38.0857C113.389 38.3492 110.358 38.6126 106.924 39.9299Z" fill="#23A1AD"/>
<path d="M111.166 39.3158C108.944 39.9305 105.004 40.8087 101.974 41.6868C99.7516 46.2533 93.8929 59.4259 92.7817 64.2558C91.2665 70.9299 88.7412 87.1761 88.7412 87.1761L95.206 87.8787C95.206 87.8787 101.671 64.8706 102.681 63.3777C105.711 58.5477 109.146 54.6838 111.065 51.698C115.712 44.4092 116.015 40.8087 116.621 38.262C114.803 38.6132 112.984 38.7889 111.166 39.3158Z" fill="#09C9CE"/>
<path d="M99.6506 19.0292C97.1253 17.9754 94.1959 18.8535 92.5797 20.7855C90.0544 24.0346 85.2058 30.0938 83.6906 31.8501C81.4683 34.309 70.9629 43.7052 70.9629 43.7052L73.6903 46.3396C73.6903 46.3396 87.428 37.119 89.2463 35.1871C90.9635 33.2552 101.772 23.859 101.57 21.1367C101.469 20.1708 100.661 19.4682 99.6506 19.0292Z" fill="#0186CB"/>
<path opacity="0.65" d="M99.6506 19.0292C97.1253 17.9754 94.1959 18.8535 92.5797 20.7855C90.0544 24.0346 85.2058 30.0938 83.6906 31.8501C81.4683 34.309 70.9629 43.7052 70.9629 43.7052L73.6903 46.3396C73.6903 46.3396 87.428 37.119 89.2463 35.1871C90.9635 33.2552 101.772 23.859 101.57 21.1367C101.469 20.1708 100.661 19.4682 99.6506 19.0292Z" fill="#0056A3"/>
<path d="M99.6506 45.0242C99.6506 45.0242 104.903 44.6729 109.954 43.0921C113.691 41.9505 116.823 40.0184 117.328 38.6133C117.328 38.6133 111.065 25.2646 106.823 20.7857C102.58 16.3069 97.8323 16.3069 97.8323 16.3069C97.8323 16.3069 94.8019 18.8537 91.8726 19.4684C91.8726 19.4684 94.8019 29.3921 96.1151 33.3441C97.5293 37.296 99.6506 45.0242 99.6506 45.0242Z" fill="#0186CB"/>
<path opacity="0.65" d="M100.56 29.8311C100.56 28.0748 100.863 25.1768 99.9535 23.157C99.7515 23.3326 99.4484 23.5083 99.2464 23.6839C97.9332 24.8255 96.6201 26.055 94.8018 26.7575C94.5998 26.8453 94.2968 26.9331 94.0947 26.9331C94.8018 29.3042 95.6099 31.7631 96.115 33.256C97.4282 37.2078 99.6504 44.9358 99.6504 44.9358C99.6504 44.9358 101.166 44.848 103.287 44.4967C100.863 40.3693 100.56 34.8367 100.56 29.8311Z" fill="#0056A3"/>
<path d="M93.1856 3.92287C93.1856 3.92287 88.9431 1.46392 86.6198 2.95685C84.1954 4.36197 82.8823 5.59145 83.0843 6.55747C83.2863 7.52348 84.2965 10.1581 84.2965 11.3876C84.1954 12.5292 83.5894 14.3734 83.8924 14.8125C84.1954 15.1638 85.7106 14.5491 85.9127 14.7247C86.1147 14.8125 88.842 17.2715 89.5491 17.2715C90.2562 17.2715 93.9937 13.144 93.8927 11.5632C93.6907 9.8068 94.9028 6.03055 93.1856 3.92287Z" fill="#FCD4CA"/>
<path d="M88.3369 6.82298C88.0339 7.61337 86.8217 8.93069 83.3872 9.28198C80.0538 9.63326 77.6295 3.74924 83.3872 1.29025C89.145 -1.16874 90.1551 0.675506 91.3673 0.499864C92.6805 0.324221 93.7916 0.499864 94.9028 1.20243C96.822 2.51975 98.2362 4.45181 97.024 7.78902C95.8119 11.1262 93.7916 11.741 93.7916 11.741C93.2865 11.214 92.6805 10.1602 93.0845 9.54544C93.2865 9.28198 93.4886 9.10633 93.6906 8.66723C94.0946 7.78902 92.7815 6.82298 91.5693 7.61337C90.9632 7.96466 91.3673 9.10633 91.1653 9.63326C91.0642 10.1602 90.7612 10.248 90.4582 10.248C89.9531 10.3358 88.943 9.3698 89.044 7.78902C89.246 6.82298 88.6399 6.12042 88.3369 6.82298Z" fill="#110239"/>
<path d="M73.2859 45.9023C73.0839 45.9902 72.7809 45.9902 72.6798 46.078C72.3768 46.3415 71.5687 46.4293 71.2657 46.4293C70.5586 46.4293 69.4474 46.4293 68.8413 46.7806C68.5383 46.9562 66.518 48.1858 67.4271 48.8006C67.5282 48.8884 67.9322 48.9762 67.9322 48.8884C68.2353 48.7128 68.7403 48.2736 68.7403 48.2736C68.7403 48.2736 68.3363 48.6249 68.2353 48.7128C68.1342 48.8006 68.0332 48.8884 68.0332 48.9762C68.0332 49.1519 68.3363 49.5032 68.5383 49.5032C68.7403 49.5032 68.8413 49.2397 68.9423 49.1519C68.8413 49.3275 68.5383 49.5032 68.9423 49.8545C69.3464 50.2058 69.4474 49.8545 69.6494 49.7667C69.7505 49.6788 69.7505 49.6788 69.8515 49.591C69.7505 49.6788 69.5484 49.9423 69.4474 49.9423C69.3464 50.2058 70.0535 50.5571 70.4575 50.3814C70.6596 50.2936 71.1646 49.7667 71.2657 49.6788C71.4677 49.6788 71.6697 49.591 71.7707 49.5032C72.2758 49.3275 72.7809 49.0641 73.1849 48.7128C73.3869 48.5371 73.69 48.2736 73.892 48.098C74.2961 47.6588 74.3971 47.4832 74.4981 47.3075C73.892 46.9562 73.589 46.6049 73.2859 45.9023Z" fill="#FCD4CA"/>
<path d="M74.3973 48.624L71.6699 45.5503C71.6699 45.5503 81.1652 37.3831 84.7006 33.3434C88.2361 29.3038 91.5695 21.5756 94.4989 20.7853C97.5293 19.9949 100.863 21.1365 99.6506 25.0884C98.4384 29.0403 90.0543 35.012 88.5391 36.8562C86.8219 38.7004 76.0135 47.5702 74.3973 48.624Z" fill="#0186CB"/>
<path d="M50.1024 6.3833H46.668V40.0178H50.1024C51.6176 40.0178 52.9308 38.964 52.9308 37.7345V8.7544C52.9308 7.43712 51.7186 6.3833 50.1024 6.3833Z" fill="#CBCBCB"/>
<path opacity="0.65" d="M52.9308 14.8142V8.66667C52.9308 7.34934 51.7186 6.3833 50.1024 6.3833H46.668V14.8142H52.9308Z" fill="#0056A3"/>
<path d="M47.4762 41.6868H2.82837C1.31317 41.6868 0 40.6329 0 39.2278V8.75482C0 7.43754 1.21216 6.2959 2.82837 6.2959H47.4762C48.9914 6.2959 50.3046 7.34972 50.3046 8.75482V39.2278C50.3046 40.6329 48.9914 41.6868 47.4762 41.6868Z" fill="#EBEBEB"/>
<path d="M50.1026 6.2959C50.1026 6.2959 47.6782 6.2959 47.4762 6.2959H2.82837C1.21216 6.2959 0 7.43753 0 8.75479V14.8142H50.3046V10.5111C50.3046 10.4233 50.3046 10.3355 50.3046 10.2477C50.5066 9.01825 52.7289 9.01825 52.9309 10.2477C52.9309 10.3355 52.9309 10.4233 52.9309 10.599V8.84261C52.9309 7.43753 51.7188 6.2959 50.1026 6.2959Z" fill="#0186CB"/>
<path d="M50.3046 14.0237H0V14.813H50.3046V14.0237Z" fill="white"/>
<path d="M20.2025 6.3833H17.4751C17.4751 6.3833 17.7781 3.04649 16.667 2.2562V1.55371C16.667 1.55371 20.2025 1.90495 20.2025 6.3833Z" fill="#110239"/>
<path d="M10.606 6.38257H15.3536C15.3536 6.38257 14.8485 3.04554 16.6667 2.25519L17.7779 1.90393C17.1718 1.55266 16.6667 1.46484 16.0607 1.46484C14.6465 1.46484 10.606 1.72829 10.606 6.38257Z" fill="#C8C8C8"/>
<path d="M41.9207 6.3833H39.1934C39.1934 6.3833 39.4964 3.04649 38.3853 2.2562V1.55371C38.3853 1.55371 41.9207 1.90495 41.9207 6.3833Z" fill="#110239"/>
<path d="M32.2231 6.38257H36.9708C36.9708 6.38257 36.4657 3.04554 38.2839 2.25519L39.3951 1.90393C38.789 1.55266 38.2839 1.46484 37.6779 1.46484C36.2637 1.46484 32.2231 1.72829 32.2231 6.38257Z" fill="#C8C8C8"/>
<path d="M8.78778 16.8337H3.43408V20.3452H8.78778V16.8337Z" fill="white"/>
<path d="M16.364 16.8337H11.0103V20.3452H16.364V16.8337Z" fill="white"/>
<path d="M24.0407 16.8337H18.687V20.3452H24.0407V16.8337Z" fill="white"/>
<path d="M31.6169 16.8337H26.2632V20.3452H31.6169V16.8337Z" fill="white"/>
<path d="M39.1931 16.8337H33.8394V20.3452H39.1931V16.8337Z" fill="white"/>
<path d="M46.7692 16.8337H41.4155V20.3452H46.7692V16.8337Z" fill="white"/>
<path d="M8.78778 22.8931H3.43408V26.4058H8.78778V22.8931Z" fill="white"/>
<path d="M16.364 22.8931H11.0103V26.4058H16.364V22.8931Z" fill="white"/>
<path d="M24.0407 22.8931H18.687V26.4058H24.0407V22.8931Z" fill="white"/>
<path d="M31.6169 22.8931H26.2632V26.4058H31.6169V22.8931Z" fill="white"/>
<path d="M39.1931 22.8931H33.8394V26.4058H39.1931V22.8931Z" fill="white"/>
<path d="M46.7692 22.8931H41.4155V26.4058H46.7692V22.8931Z" fill="white"/>
<path d="M8.78778 28.9531H3.43408V32.4639H8.78778V28.9531Z" fill="white"/>
<path d="M16.364 28.9531H11.0103V32.4639H16.364V28.9531Z" fill="white"/>
<path d="M24.0407 28.9531H18.687V32.4639H24.0407V28.9531Z" fill="white"/>
<path d="M31.6169 28.9531H26.2632V32.4639H31.6169V28.9531Z" fill="white"/>
<path d="M39.1931 28.9531H33.8394V32.4639H39.1931V28.9531Z" fill="white"/>
<path d="M46.7692 28.9531H41.4155V32.4639H46.7692V28.9531Z" fill="white"/>
<path d="M8.78778 35.0125H3.43408V38.5247H8.78778V35.0125Z" fill="white"/>
<path d="M16.364 35.0125H11.0103V38.5247H16.364V35.0125Z" fill="white"/>
<path d="M24.0407 35.0125H18.687V38.5247H24.0407V35.0125Z" fill="white"/>
<path d="M31.6169 35.0125H26.2632V38.5247H31.6169V35.0125Z" fill="white"/>
<path d="M6.16199 17.0974L6.56604 18.2383H7.87921L6.86908 18.9404L7.27313 20.0813L6.16199 19.3792L5.05084 20.0813L5.45489 18.9404L4.34375 18.2383H5.75793L6.16199 17.0974Z" fill="#FFD066"/>
<path d="M6.16199 23.2449L6.56604 24.3861H7.87921L6.86908 25.0885L7.27313 26.2297L6.16199 25.5274L5.05084 26.2297L5.45489 25.0885L4.34375 24.3861H5.75793L6.16199 23.2449Z" fill="#FFD066"/>
<path d="M13.7377 17.0974L14.1418 18.2383H15.556L14.4448 18.9404L14.8489 20.0813L13.7377 19.3792L12.6266 20.0813L13.0306 18.9404L12.0205 18.2383H13.3337L13.7377 17.0974Z" fill="#FFD066"/>
<path d="M21.3134 17.0974L21.7175 18.2383H23.1317L22.0205 18.9404L22.4246 20.0813L21.3134 19.3792L20.2023 20.0813L20.7073 18.9404L19.5962 18.2383H20.9094L21.3134 17.0974Z" fill="#FFD066"/>
<path d="M21.3134 23.157L21.7175 24.2985H23.1317L22.0205 25.001L22.4246 26.1426L21.3134 25.4401L20.2023 26.1426L20.7073 25.001L19.5962 24.2985H20.9094L21.3134 23.157Z" fill="#FFD066"/>
<path d="M28.8896 17.0974L29.3947 18.2383H30.7078L29.5967 18.9404L30.0007 20.0813L28.8896 19.3792L27.8795 20.0813L28.2835 18.9404L27.1724 18.2383H28.4855L28.8896 17.0974Z" fill="#FFD066"/>
<path d="M28.8896 23.157L29.3947 24.2985H30.7078L29.5967 25.001L30.0007 26.1426L28.8896 25.4401L27.8795 26.1426L28.2835 25.001L27.1724 24.2985H28.4855L28.8896 23.157Z" fill="#FFD066"/>
<path d="M36.5663 17.0974L36.9703 18.2383H38.2835L37.1724 18.9404L37.5764 20.0813L36.5663 19.3792L35.4551 20.0813L35.8592 18.9404L34.748 18.2383H36.1622L36.5663 17.0974Z" fill="#FFD066"/>
<path d="M13.7377 29.3047L14.1418 30.446H15.556L14.4448 31.1483L14.8489 32.2896L13.7377 31.5872L12.6266 32.2896L13.0306 31.1483L12.0205 30.446H13.3337L13.7377 29.3047Z" fill="#FFD066"/>
<path d="M13.7377 35.3635L14.1418 36.4172H15.556L14.4448 37.1197L14.8489 38.2612L13.7377 37.5588L12.6266 38.2612L13.0306 37.1197L12.0205 36.4172H13.3337L13.7377 35.3635Z" fill="#FFD066"/>
<path d="M28.8896 29.2168L29.3947 30.3578H30.7078L29.5967 31.0599L30.0007 32.2009L28.8896 31.4988L27.8795 32.2009L28.2835 31.0599L27.1724 30.3578H28.4855L28.8896 29.2168Z" fill="#FFD066"/>
<path d="M36.5663 29.2168L36.9703 30.3578H38.2835L37.1724 31.0599L37.5764 32.2009L36.5663 31.4988L35.4551 32.2009L35.8592 31.0599L34.748 30.3578H36.1622L36.5663 29.2168Z" fill="#FFD066"/>
<path d="M58.0424 21.2605C58.7771 17.3352 55.7124 13.6353 51.1973 12.9966C46.6821 12.3579 42.4263 15.0222 41.6916 18.9475C40.9569 22.8728 44.0216 26.5727 48.5367 27.2114C53.0519 27.8501 57.3077 25.1858 58.0424 21.2605Z" fill="#F45762"/>
<path d="M55.8599 20.0826C55.8599 22.9808 53.1325 25.3521 49.7991 25.3521C46.4656 25.3521 43.7383 22.9808 43.7383 20.0826C43.7383 17.1845 46.4656 14.8132 49.7991 14.8132C53.1325 14.8132 55.8599 17.1845 55.8599 20.0826Z" fill="white"/>
<path d="M49.3951 19.9956C49.2941 19.9956 48.082 17.0098 47.6779 17.0976C47.0718 17.2732 45.5566 17.888 45.5566 18.5027C45.5566 19.0296 48.6881 23.9475 49.1931 23.9475C50.3043 23.9475 54.9509 18.5905 54.6478 17.9758C54.2438 17.3611 52.5266 16.5707 52.2235 16.7463C51.9205 16.922 49.4962 19.9956 49.3951 19.9956Z" fill="#BBEADB"/>
</svg>
